<?xml version="1.0" standalone="no"?>
<!DOCTYPE svg PUBLIC "-//W3C//DTD SVG 1.1//EN" "http://www.w3.org/Graphics/SVG/1.1/DTD/svg11.dtd" >
<svg xmlns="http://www.w3.org/2000/svg" xmlns:xlink="http://www.w3.org/1999/xlink" version="1.1">
<metadata>
Created by FontForge 20161003 at Mon Sep 18 14:32:51 2017
 By www-data
Copyright (c) 2015 by Radomir Tinkov. All rights reserved.
</metadata>
<defs>
<font id="QanelasSoftBold" horiz-adv-x="532" >
  <font-face 
    font-family="QanelasSoftBold"
    font-weight="700"
    font-stretch="normal"
    units-per-em="1000"
    panose-1="0 0 8 0 0 0 0 0 0 0"
    ascent="800"
    descent="-200"
    x-height="500"
    cap-height="700"
    bbox="-403.083 -262 1128 976"
    underline-thickness="50"
    underline-position="-150"
    unicode-range="U+0020-FB02"
  />
<missing-glyph horiz-adv-x="500" 
d="M410 800v-1000h-317v1000h317zM333 733h-165v-33h65v-37h-66v-33h166v33h-66v37h66v33zM267 604h-100v-104h166v34h-66v70zM233 570v-36h-33v36h33zM333 473h-166v-33h66v-37h-66v-33h100v70h66v33zM333 413h-33v-66h-133v-34h166v100zM333 291h-100v-56h34v23h33v-47
h-100v80h-33v-113h166v113zM333 118h-166v-113h166v113zM300 85v-47h-100v47h100zM333 -18h-166v-33h70l-70 -47v-33h166v33h-102l70 47h32v33z" />
    <glyph glyph-name="fi" unicode="fi" horiz-adv-x="540" 
d="M458 500q24 0 24 -24v-452q0 -24 -24 -24h-82q-24 0 -24 24v352h-146v-352q0 -24 -24 -24h-82q-24 0 -24 24v352h-47q-24 0 -24 24v76q0 24 24 24h47v5q0 209 235 209q48 0 97 -10q21 -3 21 -26v-72q0 -11 -6.5 -17t-18.5 -5q-50 6 -93 6q-53 0 -79 -18.5t-26 -66.5v-5
h203h49z" />
    <glyph glyph-name="fl" unicode="fl" horiz-adv-x="540" 
d="M460 697q22 -4 22 -26v-647q0 -24 -24 -24h-82q-24 0 -24 24v576q-17 1 -41 1q-105 0 -105 -96v-5h59q24 0 24 -24v-76q0 -24 -24 -24h-59v-352q0 -24 -24 -24h-82q-24 0 -24 24v352h-47q-24 0 -24 24v76q0 24 24 24h47v5q0 209 235 209q70 0 149 -17z" />
    <glyph glyph-name="f_f" unicode="ff" horiz-adv-x="589" 
d="M564 600q-81 -3 -81 -85v-15h82q24 0 24 -24v-76q0 -24 -24 -24h-82v-352q0 -24 -24 -24h-81q-24 0 -24 24v352h-72h-76v-352q0 -24 -24 -24h-82q-24 0 -24 24v352h-47q-24 0 -24 24v76q0 24 24 24h47v5q0 100 53.5 155t158.5 54q23 0 23 -24v-77q0 -21 -25 -23
q-80 -3 -80 -85v-5h105h43v15q0 100 53 155t158 54q24 0 24 -24v-77q0 -21 -25 -23z" />
    <glyph glyph-name="f_f_i" unicode="ffi" horiz-adv-x="818" 
d="M735 500q24 0 24 -24v-452q0 -24 -24 -24h-81q-24 0 -24 24v352h-147v-352q0 -24 -24 -24h-81q-24 0 -24 24v352h-72h-76v-352q0 -24 -24 -24h-82q-24 0 -24 24v352h-47q-24 0 -24 24v76q0 24 24 24h47v5q0 100 53.5 155t158.5 54q23 0 23 -24v-77q0 -21 -25 -23
q-80 -3 -80 -85v-5h105h43v15q0 209 235 209q48 0 97 -10q20 -3 20 -26v-72q0 -11 -6.5 -17t-17.5 -5q-51 6 -93 6q-54 0 -80 -18.5t-26 -66.5v-15h203h49z" />
    <glyph glyph-name="f_f_l" unicode="ffl" horiz-adv-x="818" 
d="M738 707q21 -4 21 -26v-657q0 -24 -24 -24h-81q-24 0 -24 24v586q-17 1 -41 1q-106 0 -106 -96v-15h59q24 0 24 -24v-76q0 -24 -24 -24h-59v-352q0 -24 -24 -24h-81q-24 0 -24 24v352h-72h-76v-352q0 -24 -24 -24h-82q-24 0 -24 24v352h-47q-24 0 -24 24v76q0 24 24 24
h47v5q0 100 53.5 155t158.5 54q23 0 23 -24v-77q0 -21 -25 -23q-80 -3 -80 -85v-5h105h43v15q0 209 235 209q69 0 149 -17z" />
    <glyph glyph-name=".notdef" horiz-adv-x="500" 
d="M410 800v-1000h-317v1000h317zM333 733h-165v-33h65v-37h-66v-33h166v33h-66v37h66v33zM267 604h-100v-104h166v34h-66v70zM233 570v-36h-33v36h33zM333 473h-166v-33h66v-37h-66v-33h100v70h66v33zM333 413h-33v-66h-133v-34h166v100zM333 291h-100v-56h34v23h33v-47
h-100v80h-33v-113h166v113zM333 118h-166v-113h166v113zM300 85v-47h-100v47h100zM333 -18h-166v-33h70l-70 -47v-33h166v33h-102l70 47h32v33z" />
    <glyph glyph-name=".null" horiz-adv-x="0" 
 />
    <glyph glyph-name="nonmarkingreturn" horiz-adv-x="333" 
 />
    <glyph glyph-name="space" unicode=" " horiz-adv-x="250" 
 />
    <glyph glyph-name="exclam" unicode="!" horiz-adv-x="268" 
d="M104 235q-22 0 -24 21l-24 244v176q0 24 24 24h108q23 0 23 -24v-176l-23 -244q-3 -21 -24 -21h-60zM86 0q-24 0 -24 24v95q0 23 24 23h95q24 0 24 -23v-95q0 -24 -24 -24h-95z" />
    <glyph glyph-name="quotedbl" unicode="&#x22;" horiz-adv-x="378" 
d="M82 470q-22 0 -24 22l-14 184q-1 24 22 24h75q24 0 22 -24l-14 -184q-1 -22 -24 -22h-43zM252 470q-22 0 -24 22l-14 184q-1 24 22 24h75q24 0 22 -24l-14 -184q-1 -22 -24 -22h-43z" />
    <glyph glyph-name="numbersign" unicode="#" horiz-adv-x="616" 
d="M567 492q8 0 13.5 -3t7.5 -8.5t1 -13.5l-8 -50q-3 -22 -26 -22h-87l-15 -90h84q8 0 13 -3t7.5 -9t0.5 -14l-7 -50q-3 -21 -26 -21h-88l-23 -136q-3 -22 -25 -22h-54q-8 0 -13.5 3t-7.5 9t-1 14l22 132h-101l-23 -136q-3 -22 -26 -22h-54q-5 0 -10 2t-7.5 5t-3.5 8t0 11
l22 132h-84q-12 0 -18 6.5t-4 18.5l9 50q3 22 25 22h88l15 90h-84q-8 0 -13.5 3t-7.5 9t-1 14l8 50q3 21 26 21h88l23 136q3 22 26 22h54q7 0 12.5 -3t8 -9t0.5 -14l-22 -132h102l23 136q2 22 25 22h54q8 0 13.5 -3t7.5 -9t1 -14l-22 -132h82zM352 305l15 90h-102l-15 -90
h102z" />
    <glyph glyph-name="dollar" unicode="$" horiz-adv-x="545" 
d="M520 190q0 -60 -30 -105t-77 -68.5t-106 -28.5v-68q0 -20 -20 -20h-27q-20 0 -20 20v69q-89 9 -148 60.5t-66 141.5q-2 25 24 25h90q20 0 24 -23q10 -56 76 -69v171q-35 12 -58.5 22t-53 29t-47.5 40t-30 53.5t-12 72.5q0 87 57 139t144 61v68q0 20 20 20h27q20 0 20 -20
v-69q81 -9 137 -60t64 -138q1 -25 -24 -25h-87q-21 0 -25 23q-9 52 -65 65v-170q28 -10 43.5 -16t41.5 -17.5t41 -22t33.5 -27.5t28.5 -35.5t17.5 -43.5t7.5 -54zM176 512q0 -48 64 -79v144q-31 -6 -47.5 -23.5t-16.5 -41.5zM307 122q36 6 55.5 24t19.5 44q0 27 -19 45.5
t-56 34.5v-148z" />
    <glyph glyph-name="percent" unicode="%" horiz-adv-x="798" 
d="M214 384q-72 0 -120.5 47.5t-48.5 117t48.5 117.5t120.5 48q47 0 85.5 -22t60.5 -59.5t22 -84.5q0 -69 -48 -116.5t-120 -47.5zM127 0q-15 0 -19.5 8t4.5 20l460 657q10 15 28 15h70q15 0 19.5 -8t-3.5 -20l-462 -657q-11 -15 -28 -15h-69zM213 485q27 0 45 18.5t18 44.5
q0 28 -17.5 46t-45.5 18q-27 0 -44.5 -18t-17.5 -45.5t17.5 -45.5t44.5 -18zM585 -12q-72 0 -120.5 48t-48.5 117q0 45 21.5 83t60.5 60t87 22q71 0 119.5 -48t48.5 -117t-48.5 -117t-119.5 -48zM584 89q14 0 25.5 5.5t20 14t13 20t4.5 24.5q0 18 -8 32.5t-22.5 23
t-32.5 8.5q-27 0 -44.5 -18.5t-17.5 -45.5t17.5 -45.5t44.5 -18.5z" />
    <glyph glyph-name="ampersand" unicode="&#x26;" horiz-adv-x="719" 
d="M677 29q11 -11 7 -20t-20 -9h-112q-18 0 -29 12l-31 29q-83 -54 -197 -54q-108 0 -180.5 57t-72.5 154q0 56 27 105.5t76 84.5q-41 57 -41 124q0 88 65.5 145t164.5 57q92 0 159 -51.5t75 -149.5q2 -25 -23 -25h-90q-21 0 -26 23q-6 33 -32 51t-63 18q-40 0 -66 -20.5
t-26 -56.5q0 -18 11.5 -38t22.5 -32.5t31 -32.5l177 -178q19 41 23 93q1 24 23 24h91q24 0 24 -16q-5 -109 -66 -196zM306 113q52 0 93 20l-172 167q-46 -35 -46 -90q0 -44 32.5 -70.5t92.5 -26.5z" />
    <glyph glyph-name="quotesingle" unicode="'" horiz-adv-x="208" 
d="M82 470q-22 0 -24 22l-14 184q-1 24 22 24h75q24 0 22 -24l-14 -184q-1 -22 -24 -22h-43z" />
    <glyph glyph-name="parenleft" unicode="(" horiz-adv-x="307" 
d="M182 -100q-20 0 -28 17q-102 213 -102 433t102 433q8 17 28 17h78q14 0 19 -8t-1 -20q-96 -208 -96 -422t96 -422q6 -12 1 -20t-19 -8h-78z" />
    <glyph glyph-name="parenright" unicode=")" horiz-adv-x="307" 
d="M125 -100h-79q-13 0 -18 8t0 20q97 208 97 422t-97 422q-5 12 0 20t18 8h79q19 0 27 -17q102 -213 102 -433t-102 -433q-8 -17 -27 -17z" />
    <glyph glyph-name="asterisk" unicode="*" horiz-adv-x="398" 
d="M322 606q7 1 12.5 -1.5t8.5 -7.5t3 -13v-32q0 -11 -6.5 -16.5t-17.5 -4.5l-67 5l39 -51q15 -20 -5 -32l-27 -17q-20 -13 -31 10l-32 62l-32 -62q-11 -23 -31 -10l-27 16q-20 13 -5 33l39 51l-67 -5q-11 -1 -17.5 4.5t-6.5 16.5v32q0 12 6.5 17.5t17.5 4.5l67 -5l-39 51
q-15 20 5 32l27 17q20 13 31 -9l32 -62l32 62q11 22 31 9l27 -17q20 -12 5 -32l-39 -51z" />
    <glyph glyph-name="plus" unicode="+" horiz-adv-x="555" 
d="M479 410q23 0 23 -23v-74q0 -23 -23 -23h-141v-141q0 -24 -24 -24h-73q-24 0 -24 24v141h-141q-24 0 -24 23v74q0 23 24 23h141v141q0 24 24 24h73q24 0 24 -24v-141h141z" />
    <glyph glyph-name="comma" unicode="," horiz-adv-x="268" 
d="M181 142q24 0 24 -23v-119q0 -58 -32.5 -94.5t-90.5 -43.5q-20 -1 -20 18v22q0 15 18 19q26 5 37.5 23.5t11.5 55.5h-43q-24 0 -24 24v95q0 23 24 23h95z" />
    <glyph glyph-name="hyphen" unicode="-" horiz-adv-x="505" 
d="M89 240q-24 0 -24 23v77q0 24 24 24h327q24 0 24 -24v-77q0 -23 -24 -23h-327z" />
    <glyph glyph-name="period" unicode="." horiz-adv-x="268" 
d="M86 0q-24 0 -24 24v95q0 23 24 23h95q24 0 24 -23v-95q0 -24 -24 -24h-95z" />
    <glyph glyph-name="slash" unicode="/" horiz-adv-x="523" 
d="M77 -100h-23q-10 0 -13.5 5t-0.5 14l388 869q5 12 18 12h23q21 0 13 -19l-387 -869q-5 -12 -18 -12z" />
    <glyph glyph-name="zero" unicode="0" horiz-adv-x="630" 
d="M315 -14q-132 0 -206 99.5t-74 264.5t74 264.5t206 99.5t206 -99.5t74 -264.5t-74 -264.5t-206 -99.5zM315 120q70 0 106.5 59t36.5 171q0 74 -16.5 125t-48 78t-78.5 27q-70 0 -106.5 -59t-36.5 -171q0 -74 16.5 -125t48 -78t78.5 -27z" />
    <glyph glyph-name="one" unicode="1" horiz-adv-x="385" 
d="M162 692q12 8 29 8h98q23 0 23 -24v-652q0 -24 -23 -24h-90q-24 0 -24 24v538l-135 -75q-12 -7 -20.5 -2t-8.5 19v87q0 19 17 28z" />
    <glyph glyph-name="two" unicode="2" horiz-adv-x="533" 
d="M56 0q-24 0 -24 24v62q0 17 13 29l225 227q82 84 82 146q0 44 -23.5 68t-63.5 24q-82 0 -93 -72q-4 -22 -25 -22h-91q-24 0 -22 24q5 68 39.5 115t83 68t105.5 21q44 0 84 -14t72.5 -40.5t52 -71t19.5 -100.5q0 -109 -111 -218l-141 -138h239q24 0 24 -23v-85
q0 -24 -24 -24h-421z" />
    <glyph glyph-name="three" unicode="3" horiz-adv-x="545" 
d="M351 416q72 -21 116.5 -73t44.5 -127q0 -73 -35 -126t-91 -78.5t-124 -25.5q-98 0 -169 54.5t-79 150.5q-2 25 23 25h91q20 0 24 -22q7 -35 36 -54.5t74 -19.5q54 0 83.5 26.5t29.5 69.5t-29.5 69t-83.5 26h-50q-24 0 -24 24v51q0 15 10 29l117 156h-251q-24 0 -24 24v81
q0 24 24 24h392q24 0 24 -24v-74q0 -15 -10 -29z" />
    <glyph glyph-name="four" unicode="4" horiz-adv-x="585" 
d="M550 246q24 0 24 -23v-80q0 -24 -24 -24h-51v-95q0 -24 -24 -24h-91q-24 0 -24 24v95h-315q-24 0 -24 24v88q0 15 7 30l217 422q8 17 27 17h98q14 0 19 -8t-2 -20l-217 -426h190v143q0 23 24 23h91q24 0 24 -23v-143h51z" />
    <glyph glyph-name="five" unicode="5" horiz-adv-x="558" 
d="M286 445q104 0 173.5 -60.5t69.5 -168.5q0 -73 -35.5 -126t-91.5 -78.5t-123 -25.5q-64 0 -117.5 23t-89.5 70t-42 112q-2 25 23 25h91q20 0 25 -22q7 -35 35.5 -54.5t74.5 -19.5q53 0 82.5 26.5t29.5 69.5t-29.5 69t-82.5 26h-193q-25 0 -24 25l25 341q2 23 25 23h360
q24 0 24 -24v-81q0 -24 -24 -24h-255l-9 -126h78z" />
    <glyph glyph-name="six" unicode="6" horiz-adv-x="553" 
d="M284 472q109 -2 177.5 -69.5t68.5 -172.5q0 -108 -71 -176t-183 -68t-183 68t-71 176q0 80 42 141l207 314q10 15 29 15h104q15 0 19.5 -8t-3.5 -20zM276 116q50 0 83 31t33 82.5t-33 82.5t-83 31t-83 -31t-33 -82.5t33 -82.5t83 -31z" />
    <glyph glyph-name="seven" unicode="7" horiz-adv-x="490" 
d="M12 676q0 24 24 24h405q24 0 24 -24v-78q0 -14 -6 -29l-223 -551q-7 -18 -28 -18h-96q-13 0 -18 7.5t0 20.5l219 540h-277q-24 0 -24 24v84z" />
    <glyph glyph-name="eight" unicode="8" horiz-adv-x="568" 
d="M438 364q47 -27 72 -71t25 -98q0 -97 -67.5 -153t-184 -56t-184 56t-67.5 153q0 54 25.5 98t72.5 71q-74 52 -74 145q0 97 65.5 151t162.5 54t162 -54t65 -151q0 -93 -73 -145zM283.5 584q-39.5 0 -64.5 -22t-25 -60t25 -60.5t65 -22.5q26 0 46 10t32 29t12 44
q0 38 -25.5 60t-65 22zM283.5 116q50.5 0 82 25.5t31.5 70.5q0 31 -14.5 53t-40 33t-58.5 11q-51 0 -82.5 -25.5t-31.5 -71t31.5 -71t82 -25.5z" />
    <glyph glyph-name="nine" unicode="9" horiz-adv-x="553" 
d="M530 470q0 -80 -42 -141l-207 -314q-10 -15 -28 -15h-105q-14 0 -18.5 8.5t3.5 20.5l136 199q-110 2 -178.5 69.5t-68.5 172.5q0 108 71 176t183 68q113 0 183.5 -68t70.5 -176zM160 470.5q0 -51.5 33.5 -82.5t82.5 -31q51 0 83.5 31t32.5 83q0 34 -15.5 60t-41.5 39.5
t-59 13.5q-49 0 -82.5 -31t-33.5 -82.5z" />
    <glyph glyph-name="colon" unicode=":" horiz-adv-x="268" 
d="M86 358q-24 0 -24 23v95q0 24 24 24h95q24 0 24 -24v-95q0 -23 -24 -23h-95zM86 0q-24 0 -24 24v95q0 23 24 23h95q24 0 24 -23v-95q0 -24 -24 -24h-95z" />
    <glyph glyph-name="semicolon" unicode=";" horiz-adv-x="268" 
d="M181 500q24 0 24 -24v-95q0 -23 -24 -23h-95q-24 0 -24 23v95q0 24 24 24h95zM181 142q24 0 24 -23v-119q0 -58 -32.5 -94.5t-90.5 -43.5q-20 -1 -20 18v22q0 15 18 19q26 5 37.5 23.5t11.5 55.5h-43q-24 0 -24 24v95q0 23 24 23h95z" />
    <glyph glyph-name="less" unicode="&#x3c;" horiz-adv-x="528" 
d="M482 567v-83q0 -20 -18 -27l-273 -107l273 -107q18 -7 18 -27v-83q0 -14 -7.5 -19t-19.5 1l-392 170q-18 8 -18 27v76q0 20 18 27l392 170q12 6 19.5 1t7.5 -19z" />
    <glyph glyph-name="equal" unicode="=" horiz-adv-x="525" 
d="M69 393q-24 0 -24 24v73q0 24 24 24h387q24 0 24 -24v-73q0 -24 -24 -24h-387zM69 186q-24 0 -24 24v73q0 24 24 24h387q24 0 24 -24v-73q0 -24 -24 -24h-387z" />
    <glyph glyph-name="greater" unicode="&#x3e;" horiz-adv-x="528" 
d="M45 567q0 14 7.5 19t19.5 -1l392 -170q18 -7 18 -27v-76q0 -19 -18 -27l-392 -170q-12 -6 -19.5 -1t-7.5 19v83q0 20 19 27l272 107l-272 107q-19 7 -19 27v83z" />
    <glyph glyph-name="question" unicode="?" horiz-adv-x="554" 
d="M220 235q-12 0 -18 6.5t-4 18.5q6 31 25 59.5t42 50t45.5 42.5t38 45t15.5 50q0 35 -24 54t-67 19q-41 0 -67.5 -18t-33.5 -52q-4 -22 -25 -22h-90q-25 0 -23 25q8 97 76.5 149t167.5 52q58 0 108 -22t82.5 -67.5t32.5 -107.5q0 -32 -10.5 -61t-26.5 -50t-36 -42
t-37.5 -37t-32.5 -35t-21 -36q-7 -21 -25 -21h-92zM217 0q-24 0 -24 24v95q0 23 24 23h95q24 0 24 -23v-95q0 -24 -24 -24h-95z" />
    <glyph glyph-name="at" unicode="@" horiz-adv-x="779" 
d="M396 612q81 0 148.5 -30t111 -79t67.5 -109.5t24 -123.5q0 -105 -45 -161t-114 -56q-50 0 -84 21t-48 59q-38 -47 -99 -47q-42 0 -76 21.5t-52.5 59t-18.5 83.5q0 71 41.5 117.5t105.5 46.5q54 0 91 -37v2q0 24 24 24h59q24 0 24 -24v-207q0 -74 58 -74q43 0 69.5 43.5
t26.5 128.5q0 130 -90 219t-223 89q-137 0 -231.5 -94.5t-94.5 -233.5q0 -142 97.5 -235t246.5 -93q86 0 148 20q15 5 15 -11v-8q0 -12 -8 -15q-68 -20 -155 -20q-107 0 -194.5 46.5t-137.5 129.5t-50 186q0 74 28 141t76 115.5t116 77t144 28.5zM384 182q27 0 45 19t18 49
t-18 49t-45 19q-29 0 -47 -19t-18 -49q0 -20 8 -35.5t23 -24t34 -8.5z" />
    <glyph glyph-name="A" unicode="A" horiz-adv-x="653" 
d="M641 27q4 -13 -1.5 -20t-18.5 -7h-100q-21 0 -27 20l-33 106h-269l-34 -106q-5 -20 -26 -20h-101q-13 0 -18.5 7t-0.5 20l222 653q6 20 28 20h129q21 0 27 -20zM233 254h186l-93 293z" />
    <glyph glyph-name="B" unicode="B" horiz-adv-x="685" 
d="M537 426q56 -29 88.5 -83t32.5 -120q0 -95 -63.5 -159t-158.5 -64h-331h-16q-24 0 -24 24v652q0 24 24 24h113h154q90 0 148 -54t58 -135q0 -45 -25 -85zM356 571h-154v-118h202q21 21 21 50.5t-19 48.5t-50 19zM419 129q49 0 75 28.5t26 73t-26 72.5t-74 28h-218v-202
h217z" />
    <glyph glyph-name="C" unicode="C" horiz-adv-x="752" 
d="M397 -14q-104 0 -187.5 48.5t-130.5 131.5t-47 184t47 184t130.5 131.5t187.5 48.5q117 0 209 -66t124 -171q2 -8 0 -14t-7 -9.5t-13 -3.5h-98q-18 0 -27 19q-15 33 -43.5 58.5t-65.5 39t-79 13.5q-102 0 -164.5 -64t-62.5 -166t62.5 -166t164.5 -64q63 0 114 30t74 81
q9 19 27 19h98q12 0 17.5 -7t2.5 -18q-31 -106 -123 -172.5t-210 -66.5z" />
    <glyph glyph-name="D" unicode="D" horiz-adv-x="733" 
d="M362 700q145 0 241.5 -101t96.5 -249t-96.5 -249t-241.5 -101h-252h-21q-24 0 -24 24v652q0 24 24 24h113h160zM362 132q92 0 149 60.5t57 157.5t-57 157.5t-149 60.5h-160v-436h160z" />
    <glyph glyph-name="E" unicode="E" horiz-adv-x="513" 
d="M456 132q24 0 24 -24v-84q0 -24 -24 -24h-346h-21q-24 0 -24 24v652q0 24 24 24h113h249q24 0 24 -24v-84q0 -24 -24 -24h-249v-150h224q24 0 24 -24v-81q0 -24 -24 -24h-224v-157h254z" />
    <glyph glyph-name="F" unicode="F" horiz-adv-x="503" 
d="M451 700q24 0 24 -24v-84q0 -24 -24 -24h-249v-178h242q24 0 24 -24v-84q0 -24 -24 -24h-242v-234q0 -24 -23 -24h-90q-24 0 -24 24v652q0 24 24 24h113h249z" />
    <glyph glyph-name="G" unicode="G" horiz-adv-x="785" 
d="M712 376q23 0 23 -24v-98v-230q0 -24 -23 -24h-83q-24 0 -24 24v65q-74 -103 -224 -103q-98 0 -178 48t-125.5 131.5t-45.5 184.5t46.5 184t130.5 131.5t187 48.5q115 0 207 -63t124 -159q5 -12 -1 -19.5t-18 -7.5h-98q-18 0 -28 17q-24 43 -74.5 70.5t-111.5 27.5
q-67 0 -118.5 -29.5t-79.5 -81.5t-28 -119q0 -106 63.5 -171.5t162.5 -65.5q74 0 130 35.5t72 105.5h-172q-23 0 -23 24v74q0 24 23 24h286z" />
    <glyph glyph-name="H" unicode="H" horiz-adv-x="638" 
d="M549 700q23 0 23 -24v-652q0 -24 -23 -24h-90q-24 0 -24 24v270h-233v-270q0 -24 -23 -24h-90q-24 0 -24 24v652q0 24 24 24h90q23 0 23 -24v-250h233v250q0 24 24 24h90z" />
    <glyph glyph-name="I" unicode="I" horiz-adv-x="268" 
d="M65 676q0 24 24 24h90q23 0 23 -24v-652q0 -24 -23 -24h-90q-24 0 -24 24v652z" />
    <glyph glyph-name="J" unicode="J" horiz-adv-x="538" 
d="M248 -14q-45 0 -84.5 12.5t-72 37.5t-53.5 67t-24 97q-2 24 22 24h91q21 0 25 -23q9 -81 96 -81q46 0 71.5 22t25.5 65v469q0 24 24 24h90q23 0 23 -24v-469q0 -72 -34 -123.5t-85.5 -74.5t-114.5 -23z" />
    <glyph glyph-name="K" unicode="K" horiz-adv-x="615" 
d="M590 29q9 -12 4.5 -20.5t-18.5 -8.5h-106q-18 0 -28 14l-240 315v-305q0 -24 -23 -24h-90q-24 0 -24 24v652q0 24 24 24h90q23 0 23 -24v-285l230 295q11 14 28 14h106q14 0 18.5 -8.5t-4.5 -20.5l-237 -312z" />
    <glyph glyph-name="L" unicode="L" horiz-adv-x="475" 
d="M439 132q23 0 23 -24v-84q0 -24 -23 -24h-304h-46q-24 0 -24 24v652q0 24 24 24h90q23 0 23 -24v-544h237z" />
    <glyph glyph-name="M" unicode="M" horiz-adv-x="815" 
d="M726 700q24 0 24 -24v-652q0 -24 -24 -24h-90q-24 0 -24 24v446l-147 -340q-7 -18 -27 -18h-61q-20 0 -27 18l-148 340v-446q0 -24 -23 -24h-90q-24 0 -24 24v652q0 24 24 24h90h23q21 0 28 -18l178 -410l177 410q7 18 28 18h68h45z" />
    <glyph glyph-name="N" unicode="N" horiz-adv-x="645" 
d="M442 676q0 24 24 24h90q24 0 24 -24v-652q0 -24 -24 -24h-62q-20 0 -29 15l-263 417v-408q0 -24 -23 -24h-90q-24 0 -24 24v652q0 24 24 24h62q20 0 29 -15l262 -417v408z" />
    <glyph glyph-name="O" unicode="O" horiz-adv-x="792" 
d="M396 -14q-99 0 -183 48t-132.5 132t-48.5 184t48.5 184t132.5 132t183 48t183 -48t132.5 -132t48.5 -184t-48.5 -184t-132.5 -132t-183 -48zM396 120q38 0 72.5 11t62 31.5t48.5 48.5t32 63.5t11 75.5q0 100 -65 165t-161 65t-161 -65t-65 -165t65 -165t161 -65z" />
    <glyph glyph-name="P" unicode="P" horiz-adv-x="588" 
d="M326 700q65 0 119.5 -31t85.5 -84.5t31 -116.5q0 -97 -68.5 -165t-167.5 -68h-124v-211q0 -24 -23 -24h-90q-24 0 -24 24v652q0 24 24 24h113h124zM326 364q42 0 70.5 30t28.5 73.5t-28.5 73.5t-70.5 30h-124v-207h124z" />
    <glyph glyph-name="Q" unicode="Q" horiz-adv-x="797" 
d="M672 111l60 -69q15 -18 -3 -33l-64 -53q-18 -15 -33 3l-62 71q-81 -44 -174 -44q-99 0 -182.5 48t-132.5 132t-49 184t49 184t132.5 132t182.5 48t182.5 -48t132.5 -132t49 -184q0 -137 -88 -239zM396 120q43 0 82 15l-65 73q-15 18 3 33l64 53q18 15 33 -3l68 -77
q41 59 41 136q0 66 -30 118.5t-81.5 82t-114.5 29.5q-96 0 -161 -65t-65 -165t65 -165t161 -65z" />
    <glyph glyph-name="R" unicode="R" horiz-adv-x="630" 
d="M624 30q9 -12 5 -21t-19 -9h-106q-19 0 -29 14l-187 229h-85v-219q0 -24 -24 -24h-90q-24 0 -24 24v652q0 24 24 24h114h127q97 0 165 -68t68 -164q0 -65 -36 -119.5t-95 -82.5zM203 571v-207h127q39 0 67 30t28 73.5t-28 73.5t-67 30h-127z" />
    <glyph glyph-name="S" unicode="S" horiz-adv-x="546" 
d="M280 -14q-103 0 -174.5 52.5t-79.5 152.5q-2 25 24 25h90q20 0 24 -23q13 -73 116 -73q51 0 77.5 19.5t26.5 51.5q0 11 -3.5 20t-9 16.5t-15 14.5t-18.5 12.5t-23.5 11.5t-25.5 10t-28 10q-2 1 -7 3q-28 10 -43.5 15.5t-42 17.5t-41.5 22.5t-34.5 28t-30 36.5t-17.5 45
t-7 56q0 49 19 88.5t51 64t72.5 38t84.5 13.5q93 0 160 -51.5t75 -149.5q2 -25 -23 -25h-91q-20 0 -24 23q-12 69 -97 69q-28 0 -48.5 -9t-31 -25t-10.5 -36q0 -35 28 -56t85 -42q6 -2 19 -7q29 -10 43.5 -15.5t41 -17.5t41.5 -22t34 -27t29.5 -35t17.5 -43t7 -54
q0 -96 -69 -150.5t-172 -54.5z" />
    <glyph glyph-name="T" unicode="T" horiz-adv-x="500" 
d="M464 700q24 0 24 -24v-84q0 -24 -24 -24h-145v-544q0 -24 -24 -24h-90q-24 0 -24 24v544h-145q-24 0 -24 24v84q0 24 24 24h283h145z" />
    <glyph glyph-name="U" unicode="U" horiz-adv-x="620" 
d="M310 -14q-111 0 -183 60.5t-72 167.5v462q0 24 24 24h90q23 0 23 -24v-452q0 -104 118 -104t118 104v452q0 24 23 24h90q24 0 24 -24v-462q0 -107 -72 -167.5t-183 -60.5z" />
    <glyph glyph-name="V" unicode="V" horiz-adv-x="632" 
d="M251 0q-20 0 -27 20l-213 653q-3 12 2 19.5t18 7.5h101q21 0 26 -20l158 -520l158 520q5 20 26 20h101q13 0 18 -7.5t2 -19.5l-213 -653q-7 -20 -27 -20h-130z" />
    <glyph glyph-name="W" unicode="W" horiz-adv-x="890" 
d="M860 700q27 0 20 -27l-186 -653q-5 -20 -26 -20h-111q-21 0 -27 20l-85 300l-85 -300q-6 -20 -27 -20h-111q-21 0 -26 20l-186 653q-7 27 20 27h95q21 0 25 -21l135 -504l100 357l-40 141q-8 27 20 27h79q21 0 26 -21l135 -504l135 504q4 21 25 21h95z" />
    <glyph glyph-name="X" unicode="X" horiz-adv-x="600" 
d="M571 28q7 -12 2.5 -20t-18.5 -8h-104q-19 0 -29 16l-122 210l-122 -210q-10 -16 -29 -16h-104q-14 0 -18.5 8t2.5 20l193 332l-182 312q-7 12 -2.5 20t18.5 8h104q20 0 29 -16l111 -190l111 190q9 16 29 16h104q14 0 18.5 -8t-2.5 -20l-182 -312z" />
    <glyph glyph-name="Y" unicode="Y" horiz-adv-x="601" 
d="M566 700q14 0 18.5 -8t-2.5 -20l-213 -361v-287q0 -24 -24 -24h-90q-23 0 -23 24v287l-213 361q-7 12 -2.5 20t18.5 8h105q19 0 27 -17l134 -240l133 240q9 17 28 17h104z" />
    <glyph glyph-name="Z" unicode="Z" horiz-adv-x="535" 
d="M211 132h274q24 0 24 -24v-84q0 -24 -24 -24h-425q-24 0 -24 24v70q0 14 9 29l283 445h-262q-24 0 -24 24v84q0 24 24 24h413q23 0 23 -24v-70q0 -14 -8 -29z" />
    <glyph glyph-name="bracketleft" unicode="[" horiz-adv-x="290" 
d="M266 676h-84v-652h84q24 0 24 -24v-76q0 -24 -24 -24h-151h-39q-24 0 -24 24v852q0 24 24 24h106h84q24 0 24 -24v-76q0 -24 -24 -24z" />
    <glyph glyph-name="backslash" unicode="\" horiz-adv-x="523" 
d="M446 -100q-13 0 -18 12l-388 869q-1 5 -1 8.5t1.5 5.5t5 3.5t8.5 1.5h23q13 0 18 -12l387 -869q8 -19 -13 -19h-23z" />
    <glyph glyph-name="bracketright" unicode="]" horiz-adv-x="290" 
d="M214 800q24 0 24 -24v-852q0 -24 -24 -24h-106h-84q-24 0 -24 24v76q0 24 24 24h84v652h-84q-24 0 -24 24v76q0 24 24 24h151h39z" />
    <glyph glyph-name="asciicircum" unicode="^" horiz-adv-x="560" 
d="M504 398q7 -12 2 -20t-19 -8h-87q-20 0 -29 17l-91 165l-91 -165q-9 -17 -29 -17h-87q-14 0 -19 8t2 20l166 286q9 16 28 16h60q19 0 28 -16z" />
    <glyph glyph-name="underscore" unicode="_" horiz-adv-x="520" 
d="M56 -171q-24 0 -24 24v76q0 24 24 24h408q24 0 24 -24v-76q0 -24 -24 -24h-408z" />
    <glyph glyph-name="grave" unicode="`" horiz-adv-x="275" 
d="M228 562q11 0 15 7t-2 17l-58 100q-7 14 -23 14h-109q-13 0 -16.5 -7t4.5 -17l83 -102q8 -12 24 -12h82z" />
    <glyph glyph-name="a" unicode="a" horiz-adv-x="509" 
d="M259 514q88 0 145.5 -51.5t57.5 -145.5v-293q0 -24 -23 -24h-79q-24 0 -24 24v19q-46 -57 -135 -57q-71 0 -120 41.5t-49 116.5t49 116t120 41q85 0 135 -44v53q0 84 -77 84q-28 0 -48 -11.5t-26 -31.5q-8 -21 -25 -21h-80q-25 0 -24 25q10 74 66.5 116.5t136.5 42.5z
M245 81q42 0 66.5 17.5t24.5 45.5q0 29 -24.5 45.5t-66.5 16.5q-41 0 -62 -17t-21 -45t21 -45.5t62 -17.5z" />
    <glyph glyph-name="b" unicode="b" horiz-adv-x="626" 
d="M350 514q101 0 172.5 -76.5t71.5 -187.5t-71.5 -187.5t-172.5 -76.5q-105 0 -162 73v-35q0 -24 -24 -24h-82q-23 0 -23 24v652q0 24 23 24h82q24 0 24 -24v-235q57 73 162 73zM326 109q40 0 71.5 17.5t49.5 50t18 73.5q0 62 -39.5 101.5t-99.5 39.5t-99 -39.5t-39 -101.5
t39 -101.5t99 -39.5z" />
    <glyph glyph-name="c" unicode="c" horiz-adv-x="566" 
d="M520 182q12 0 18 -7t2 -19q-25 -76 -91.5 -123t-151.5 -47q-75 0 -135.5 35t-95 95.5t-34.5 133.5q0 112 76 188t189 76q85 0 151.5 -47t91.5 -123q4 -12 -2 -19t-18 -7h-90q-17 0 -28 16q-34 52 -105 52q-58 0 -96.5 -38.5t-38.5 -97.5t38.5 -97.5t96.5 -38.5
q22 0 42.5 6t36 17.5t26.5 27.5q10 17 28 17h90z" />
    <glyph glyph-name="d" unicode="d" horiz-adv-x="626" 
d="M544 700q24 0 24 -24v-652q0 -24 -24 -24h-82q-24 0 -24 24v35q-57 -73 -162 -73q-101 0 -172.5 76.5t-71.5 187.5t71.5 187.5t172.5 76.5q105 0 162 -73v235q0 24 24 24h82zM300 109q60 0 99 39.5t39 101.5t-39 101.5t-99 39.5t-99 -39.5t-39 -101.5t39 -101.5t99 -39.5
z" />
    <glyph glyph-name="e" unicode="e" horiz-adv-x="576" 
d="M298 514q43 0 82 -13.5t69.5 -37.5t52.5 -56.5t33.5 -73t11.5 -83.5q0 -11 -1 -31q-3 -22 -26 -22h-103h-250q12 -52 48.5 -78t86.5 -26q58 0 92 37q14 13 29 13l80 1q13 0 19 -7.5t0 -18.5q-18 -42 -51 -71.5t-76.5 -45t-94.5 -15.5q-79 0 -140.5 35t-94.5 94.5
t-33 134.5q0 113 74.5 188.5t191.5 75.5zM166 298h252q-10 51 -43.5 75.5t-77.5 24.5q-51 0 -85 -26.5t-46 -73.5z" />
    <glyph glyph-name="f" unicode="f" horiz-adv-x="311" 
d="M286 590q-80 1 -80 -85v-5h82q23 0 23 -24v-76q0 -24 -23 -24h-82v-352q0 -24 -24 -24h-82q-24 0 -24 24v352h-47q-24 0 -24 24v76q0 24 24 24h47v5q0 100 53.5 155t158.5 54q23 0 23 -24v-77q0 -23 -25 -23z" />
    <glyph glyph-name="g" unicode="g" horiz-adv-x="626" 
d="M544 500q24 0 24 -24v-452q0 -40 -10.5 -74.5t-28.5 -60t-42.5 -45.5t-53 -32.5t-59 -19t-62.5 -6.5q-95 0 -166.5 47t-81.5 129q-2 24 23 24h83q18 0 25 -21q9 -27 39.5 -45t77.5 -18q61 0 95.5 31.5t34.5 90.5v53q-58 -75 -166 -75q-100 0 -172 75t-72 180.5t72 181
t172 75.5q108 0 166 -76v38q0 24 23 24h79zM301.5 121q60.5 0 100.5 38.5t40 98t-40 98t-100 38.5q-41 0 -72.5 -17.5t-49.5 -48.5t-18 -70q0 -60 39.5 -98.5t100 -38.5z" />
    <glyph glyph-name="h" unicode="h" 
d="M324 514q71 0 116.5 -52.5t45.5 -141.5v-296q0 -24 -24 -24h-81q-24 0 -24 24v286q0 41 -21.5 62.5t-57.5 21.5q-41 0 -65.5 -25.5t-24.5 -78.5v-266q0 -24 -24 -24h-82q-23 0 -23 24v652q0 24 23 24h82q24 0 24 -24v-227q43 65 136 65z" />
    <glyph glyph-name="i" unicode="i" horiz-adv-x="247" 
d="M82 570q-23 0 -23 24v82q0 24 23 24h82q24 0 24 -24v-82q0 -24 -24 -24h-82zM82 0q-23 0 -23 24v452q0 24 23 24h82q24 0 24 -24v-452q0 -24 -24 -24h-82z" />
    <glyph glyph-name="j" unicode="j" horiz-adv-x="264" 
d="M181 700q24 0 24 -24v-82q0 -24 -24 -24h-81q-24 0 -24 24v82q0 24 24 24h81zM181 500q24 0 24 -24v-486q0 -104 -47.5 -154.5t-146.5 -49.5q-23 0 -23 24v76q0 23 24 25q33 2 48.5 21t15.5 58v486q0 24 24 24h81z" />
    <glyph glyph-name="k" unicode="k" horiz-adv-x="517" 
d="M489 29q9 -12 5 -20.5t-18 -8.5h-96q-18 0 -28 14l-164 212v-202q0 -24 -24 -24h-82q-23 0 -23 24v652q0 24 23 24h82q24 0 24 -24v-396l154 206q10 14 28 14h96q15 0 19 -8.5t-5 -20.5l-168 -219z" />
    <glyph glyph-name="l" unicode="l" horiz-adv-x="247" 
d="M82 0q-23 0 -23 24v672q0 24 23 24h82q24 0 24 -24v-672q0 -24 -24 -24h-82z" />
    <glyph glyph-name="m" unicode="m" horiz-adv-x="767" 
d="M566 514q72 0 113.5 -46t41.5 -131v-313q0 -24 -24 -24h-81q-24 0 -24 24v303q0 35 -17.5 51t-46.5 16q-14 0 -26 -4t-23.5 -13.5t-18 -26.5t-6.5 -40v-286q0 -24 -23 -24h-82q-24 0 -24 24v303q0 24 -9 39.5t-22.5 21.5t-31.5 6q-20 0 -35.5 -7t-27 -27t-11.5 -50v-286
q0 -24 -24 -24h-82q-23 0 -23 24v452q0 24 23 24h82q24 0 24 -24v-25q41 63 120 63q81 0 120 -66q52 66 138 66z" />
    <glyph glyph-name="n" unicode="n" 
d="M324 514q71 0 116.5 -52.5t45.5 -141.5v-296q0 -24 -24 -24h-81q-24 0 -24 24v286q0 41 -21.5 62.5t-57.5 21.5q-41 0 -65.5 -25.5t-24.5 -78.5v-266q0 -24 -24 -24h-82q-23 0 -23 24v452q0 24 23 24h82q24 0 24 -24v-27q43 65 136 65z" />
    <glyph glyph-name="o" unicode="o" horiz-adv-x="594" 
d="M297 -14q-111 0 -188 76.5t-77 187.5t77 187.5t188 76.5t188 -76.5t77 -187.5t-77 -187.5t-188 -76.5zM297 112q58 0 96.5 39t38.5 99t-38.5 99t-96.5 39t-96.5 -39t-38.5 -99t38.5 -99t96.5 -39z" />
    <glyph glyph-name="p" unicode="p" horiz-adv-x="626" 
d="M350 514q101 0 172.5 -76.5t71.5 -187.5t-71.5 -187.5t-172.5 -76.5q-105 0 -162 73v-235q0 -24 -24 -24h-82q-23 0 -23 24v652q0 24 23 24h82q24 0 24 -24v-35q57 73 162 73zM326 109q40 0 71.5 17.5t49.5 50t18 73.5q0 62 -39.5 101.5t-99.5 39.5t-99 -39.5t-39 -101.5
t39 -101.5t99 -39.5z" />
    <glyph glyph-name="q" unicode="q" horiz-adv-x="626" 
d="M544 500q24 0 24 -24v-652q0 -24 -24 -24h-82q-24 0 -24 24v235q-57 -73 -162 -73q-101 0 -172.5 76.5t-71.5 187.5t71.5 187.5t172.5 76.5q105 0 162 -73v35q0 24 24 24h82zM300 109q60 0 99 39.5t39 101.5t-39 101.5t-99 39.5t-99 -39.5t-39 -101.5t39 -101.5t99 -39.5
z" />
    <glyph glyph-name="r" unicode="r" horiz-adv-x="337" 
d="M300 508q12 2 18.5 -4.5t6.5 -18.5v-95q0 -22 -19 -22q-50 0 -84 -29.5t-34 -92.5v-222q0 -24 -24 -24h-82q-23 0 -23 24v452q0 24 23 24h82q24 0 24 -24v-52q31 73 112 84z" />
    <glyph glyph-name="s" unicode="s" horiz-adv-x="480" 
d="M173 355q0 -20 20 -32.5t49.5 -17.5t64.5 -15t65 -23.5t50 -44.5t20 -77q0 -76 -57.5 -117.5t-144.5 -41.5q-81 0 -136.5 38t-64.5 110q-2 25 23 25h80q16 0 26 -20q12 -39 72 -39q73 0 73 45q0 17 -15 28.5t-38.5 17.5t-52.5 12t-57.5 16t-52.5 25t-38.5 43.5
t-14.5 67.5q0 75 56.5 117t139.5 42q74 0 128 -38.5t62 -109.5q3 -25 -23 -25h-80q-10 0 -15 5t-10 16q-11 38 -62 38q-31 0 -49 -12t-18 -33z" />
    <glyph glyph-name="t" unicode="t" horiz-adv-x="334" 
d="M294 500q24 0 24 -24v-76q0 -24 -24 -24h-62v-352q0 -24 -24 -24h-82q-24 0 -24 24v352h-62q-24 0 -24 24v76q0 24 24 24h62v136q0 24 24 24h82q24 0 24 -24v-136h62z" />
    <glyph glyph-name="u" unicode="u" 
d="M450 500q24 0 24 -24v-452q0 -24 -24 -24h-82q-23 0 -23 24v27q-43 -65 -137 -65q-71 0 -116.5 52.5t-45.5 141.5v296q0 24 24 24h81q24 0 24 -24v-286q0 -28 10.5 -47t28 -28t40.5 -9q41 0 65.5 25.5t24.5 78.5v266q0 24 24 24h82z" />
    <glyph glyph-name="v" unicode="v" horiz-adv-x="500" 
d="M469 500q13 0 18 -7.5t1 -20.5l-165 -453q-7 -19 -27 -19h-69h-23q-20 0 -27 19l-165 453q-4 13 1.5 20.5t18.5 7.5h87q21 0 27 -20l104 -321l104 321q6 20 27 20h88z" />
    <glyph glyph-name="w" unicode="w" horiz-adv-x="725" 
d="M686 500q9 0 14.5 -3.5t7 -9.5t-1.5 -14l-148 -453q-6 -20 -27 -20h-69h-13q-21 0 -27 20l-59 181l-60 -181q-6 -20 -27 -20h-53h-29q-21 0 -27 20l-148 453q-4 12 1.5 19.5t17.5 7.5h89q21 0 26 -20l92 -322l65 204l-36 111q-4 12 1.5 19.5t18.5 7.5h65q21 0 27 -20
l98 -310l88 310q5 20 26 20h88z" />
    <glyph glyph-name="x" unicode="x" horiz-adv-x="473" 
d="M449 28q8 -12 3.5 -20t-19.5 -8h-85q-18 0 -28 16l-84 132l-84 -132q-10 -16 -28 -16h-85q-14 0 -19 8t3 20l145 228l-137 216q-8 12 -3 20t19 8h85q18 0 28 -16l76 -120l76 120q11 16 29 16h85q14 0 18.5 -8t-2.5 -20l-137 -216z" />
    <glyph glyph-name="y" unicode="y" horiz-adv-x="500" 
d="M354 480q6 20 27 20h88q13 0 18.5 -7t1.5 -20l-221 -654q-6 -19 -28 -19h-88q-13 0 -18.5 7t-1.5 20l62 180l-181 465q-4 13 1 20.5t18 7.5h88q20 0 27 -19l111 -296z" />
    <glyph glyph-name="z" unicode="z" horiz-adv-x="454" 
d="M206 121h198q24 0 24 -24v-73q0 -24 -24 -24h-348q-24 0 -24 24v46q0 15 10 29l202 280h-178q-24 0 -24 24v73q0 24 24 24h328q24 0 24 -24v-46q0 -15 -10 -29z" />
    <glyph glyph-name="braceleft" unicode="{" horiz-adv-x="351" 
d="M338 -84q0 -24 -23 -24q-187 -1 -187 187v148q0 34 -13 48t-41 15q-24 1 -24 24v75q0 23 24 24q28 1 41 15t13 48v148q0 188 187 187q23 0 23 -25v-75q0 -23 -24 -24q-19 0 -31 -5.5t-18.5 -19.5t-6.5 -38v-148q0 -90 -60 -124q60 -35 60 -125v-148q0 -35 13.5 -49
t42.5 -14q24 -1 24 -24v-76z" />
    <glyph glyph-name="bar" unicode="|" horiz-adv-x="259" 
d="M89 -200q-24 0 -24 24v872q0 24 24 24h81q24 0 24 -24v-872q0 -24 -24 -24h-81z" />
    <glyph glyph-name="braceright" unicode="}" horiz-adv-x="351" 
d="M12 -84v76q0 23 25 24q29 0 43 14t14 49v148q0 90 59 125q-59 34 -59 124v148q0 35 -14 49t-43 14q-25 1 -25 24v75q0 25 24 25q186 1 186 -187v-148q0 -24 7 -37.5t18 -19t29 -6.5q25 -1 25 -24v-75q0 -23 -25 -24q-27 -1 -40.5 -15t-13.5 -48v-148q0 -188 -186 -187
q-24 0 -24 24z" />
    <glyph glyph-name="asciitilde" unicode="~" horiz-adv-x="599" 
d="M439 420q10 23 31 12l64 -30q20 -11 13 -32q-30 -85 -96 -108.5t-147 16.5q-35 17 -57 25t-40 8.5t-28.5 -8t-19.5 -25.5q-11 -23 -31 -13l-63 31q-20 10 -13 31q29 85 95.5 108.5t147.5 -17.5q35 -16 57 -24t39.5 -8t28 8t19.5 26z" />
    <glyph glyph-name="exclamdown" unicode="&#xa1;" horiz-adv-x="268" 
d="M86 500h95q24 0 24 -24v-95q0 -23 -24 -23h-95q-24 0 -24 23v95q0 24 24 24zM104 265h60q21 0 24 -21l23 -244v-176q0 -24 -23 -24h-108q-24 0 -24 24v176l24 244q2 21 24 21z" />
    <glyph glyph-name="cent" unicode="&#xa2;" horiz-adv-x="566" 
d="M520 282q12 0 18 -7t1 -19q-24 -76 -90.5 -123t-151.5 -47q-35 0 -69 9l-26 -82q-4 -13 -18 -13h-25q-17 0 -13 18l31 95q-66 32 -105.5 95t-39.5 142q0 55 20.5 104t55.5 84t84 55t105 20q21 0 41 -3l24 77q5 13 18 13h25q18 0 13 -18l-27 -85q53 -20 92 -60t56 -93
q5 -12 -1 -19t-18 -7h-90q-17 0 -29 16q-17 28 -50 42l-83 -260q14 -2 29 -2q22 0 42.5 6t36 17.5t26.5 27.5q10 17 28 17h90zM161 350q0 -73 56 -112l81 248h-1q-58 0 -97 -38.5t-39 -97.5z" />
    <glyph glyph-name="sterling" unicode="&#xa3;" horiz-adv-x="585" 
d="M546 132q24 0 24 -23v-85q0 -24 -24 -24h-490q-24 0 -24 24v85q0 23 24 23h50v124h-37q-24 0 -24 24v73q0 24 24 24h37v116q0 55 19 98t50.5 69t70 40t80.5 14q40 0 78.5 -14t70.5 -40t51.5 -69.5t19.5 -97.5v-19q0 -24 -24 -24h-90q-24 0 -24 24v19q0 28 -11.5 48
t-30 29.5t-40.5 9.5q-37 0 -60 -23t-23 -64v-116h165q23 0 23 -24v-73q0 -24 -23 -24h-165v-124h303z" />
    <glyph glyph-name="currency" unicode="&#xa4;" horiz-adv-x="543" 
d="M497 162q14 -13 0 -26l-11 -12q-14 -14 -27 0l-57 58q-57 -43 -130 -43q-74 0 -131 42l-57 -57q-13 -13 -27 0l-11 12q-13 13 0 26l56 57q-45 56 -45 131t45 131l-56 57q-13 13 0 26l11 12q14 13 27 0l57 -57q57 41 130.5 41t130.5 -41l57 57q13 13 27 0l11 -12
q13 -13 0 -26l-56 -57q45 -56 45 -131t-45 -131zM271.5 262q38.5 0 63 24.5t24.5 63.5t-24.5 63.5t-62.5 24.5q-26 0 -46 -11t-30.5 -31.5t-10.5 -45.5q0 -39 24 -63.5t62.5 -24.5z" />
    <glyph glyph-name="yen" unicode="&#xa5;" horiz-adv-x="601" 
d="M566 700q14 0 18.5 -8t-2.5 -20l-182 -310h109q22 0 22 -22v-37q0 -21 -22 -21h-140v-46h140q22 0 22 -21v-37q0 -22 -22 -22h-140v-132q0 -24 -24 -24h-90q-23 0 -23 24v132h-140q-21 0 -21 22v37q0 21 21 21h140v46h-140q-21 0 -21 21v37q0 22 21 22h110l-183 310
q-7 12 -2.5 20t18.5 8h105q19 0 27 -17l134 -240l133 240q9 17 28 17h104z" />
    <glyph glyph-name="brokenbar" unicode="&#xa6;" horiz-adv-x="259" 
d="M89 350q-24 0 -24 24v322q0 24 24 24h81q24 0 24 -24v-322q0 -24 -24 -24h-81zM89 -200q-24 0 -24 24v322q0 24 24 24h81q24 0 24 -24v-322q0 -24 -24 -24h-81z" />
    <glyph glyph-name="section" unicode="&#xa7;" horiz-adv-x="545" 
d="M503 284q0 -80 -63 -131q33 -40 33 -99q0 -40 -16 -72t-43.5 -52.5t-63.5 -31t-78 -10.5q-82 0 -138 40t-65 118q-1 25 24 25h79q20 0 25 -22q11 -48 75 -48q35 0 53.5 14t18.5 39q0 8 -2.5 14.5t-7.5 12.5t-11.5 11t-16 10.5t-18.5 9.5t-21 9.5t-22.5 9.5t-24.5 10
t-24 10q-33 14 -57 28t-48 34.5t-36.5 48.5t-12.5 63q0 78 64 126q-31 41 -31 99q0 78 56 121t139 43q75 0 129.5 -40.5t62.5 -118.5q2 -24 -24 -24h-79q-19 0 -25 22q-10 47 -64 47q-31 0 -48.5 -13t-17.5 -37q0 -9 3.5 -17.5t12.5 -16t16 -13t23.5 -13.5t25 -11.5
t30 -12.5t29.5 -12q35 -14 58.5 -27.5t49 -33.5t38.5 -47.5t13 -61.5zM171 332q0 -26 21.5 -44t60.5 -34q7 -3 44 -16.5t57 -22.5q20 24 20 54q0 29 -23 46.5t-67 34.5q-87 34 -92 37q-21 -24 -21 -55z" />
    <glyph glyph-name="dieresis" unicode="&#xa8;" horiz-adv-x="343" 
d="M40 561q-20 0 -20 20v78q0 20 20 20h78q20 0 20 -20v-78q0 -20 -20 -20h-78zM224 561q-19 0 -19 20v78q0 20 19 20h79q19 0 19 -20v-78q0 -20 -19 -20h-79z" />
    <glyph glyph-name="copyright" unicode="&#xa9;" horiz-adv-x="789" 
d="M394.5 -12q-98.5 0 -182 48.5t-132 132t-48.5 181.5t48.5 181.5t132 132t182 48.5t182 -48.5t131.5 -132t48 -181.5t-48 -181.5t-131.5 -132t-182 -48.5zM394.5 22q134.5 0 229.5 96t95 232t-95 232t-229.5 96t-229.5 -96t-95 -232t95 -232t229.5 -96zM398 154
q-82 0 -140 58t-58 138t58 138t139 58q62 0 112.5 -35.5t71.5 -94.5q4 -12 -2 -19t-19 -7h-71q-16 0 -29 15q-21 30 -65 30q-37 0 -60.5 -25.5t-23.5 -59.5t23.5 -59.5t60.5 -25.5q44 0 65 30q13 16 29 16h71q13 0 19 -8t2 -20q-21 -59 -71.5 -94t-111.5 -35z" />
    <glyph glyph-name="ordfeminine" unicode="&#xaa;" horiz-adv-x="273" 
d="M137 714q22 0 40.5 -6.5t32.5 -18.5t22 -31t8 -42v-144q0 -15 -15 -15h-37q-15 0 -15 15v6q-24 -28 -68 -28q-35 0 -59 21t-24 58t24 57.5t59 20.5q43 0 68 -21v26q0 38 -36 38q-25 0 -33 -15q-7 -13 -16 -13h-38q-17 0 -15 16q5 36 33.5 56t68.5 20zM129 500q18 0 31 8
t13 21q0 7 -3.5 12.5t-10 9t-14 5t-16.5 1.5q-18 0 -28 -7.5t-10 -20.5t10 -21t28 -8z" />
    <glyph glyph-name="guillemotleft" unicode="&#xab;" horiz-adv-x="545" 
d="M259 496q14 0 19 -7.5t-2 -20.5l-94 -159l94 -159q7 -13 2 -20.5t-19 -7.5h-67q-20 0 -29 16l-91 155q-10 16 0 32l91 155q9 16 29 16h67zM449 496q14 0 19 -7.5t-2 -20.5l-94 -159l94 -159q7 -13 2 -20.5t-19 -7.5h-67q-20 0 -29 16l-91 155q-10 16 0 32l91 155
q9 16 29 16h67z" />
    <glyph glyph-name="logicalnot" unicode="&#xac;" horiz-adv-x="550" 
d="M481 410q24 0 24 -23v-97v-96q0 -24 -24 -24h-81q-24 0 -24 24v96h-307q-24 0 -24 23v74q0 23 24 23h412z" />
    <glyph glyph-name="registered" unicode="&#xae;" horiz-adv-x="789" 
d="M394.5 712q98.5 0 182 -48.5t131.5 -132t48 -181.5t-48 -181.5t-131.5 -132t-182 -48.5t-182 48.5t-132 132t-48.5 181.5t48.5 181.5t132 132t182 48.5zM394.5 22q134.5 0 229.5 96t95 232t-95 232t-229.5 96t-229.5 -96t-95 -232t95 -232t229.5 -96zM501 293l69 -99
q8 -12 3.5 -20.5t-18.5 -8.5h-63q-19 0 -29 15l-60 87h-38v-78q0 -24 -23 -24h-60q-24 0 -24 24v322q0 24 24 24h83h52q39 0 71 -16t50.5 -45.5t18.5 -65.5q0 -75 -56 -115zM365 438v-81h34q51 0 51 40.5t-51 40.5h-34z" />
    <glyph glyph-name="macron" unicode="&#xaf;" horiz-adv-x="330" 
d="M40 564q-20 0 -20 20v65q0 20 20 20h250q20 0 20 -20v-65q0 -20 -20 -20h-250z" />
    <glyph glyph-name="degree" unicode="&#xb0;" horiz-adv-x="401" 
d="M200 480q-71 0 -119.5 48t-48.5 117t48 117t120.5 48t120 -48t47.5 -117t-47 -117t-121 -48zM200 585q27 0 43.5 17t16.5 43t-16.5 43t-43 17t-42.5 -17t-16 -43t16 -43t42 -17z" />
    <glyph glyph-name="plusminus" unicode="&#xb1;" horiz-adv-x="555" 
d="M479 502q23 0 23 -24v-74q0 -23 -23 -23h-141v-122q0 -24 -24 -24h-73q-24 0 -24 24v122h-141q-24 0 -24 23v74q0 24 24 24h141v122q0 24 24 24h73q24 0 24 -24v-122h141zM479 174q23 0 23 -24v-74q0 -24 -23 -24h-403q-24 0 -24 24v74q0 24 24 24h403z" />
    <glyph glyph-name="acute" unicode="&#xb4;" horiz-adv-x="275" 
d="M36 590q-7 -12 -2.5 -20t18.5 -8h74q19 0 29 14l77 95q9 11 5 20t-19 9h-100q-18 0 -27 -16z" />
    <glyph glyph-name="uni00B5" unicode="&#xb5;" horiz-adv-x="577" 
d="M530 121q24 0 24 -24v-73q0 -24 -24 -24h-37q-76 0 -112 52q-45 -66 -133 -66q-32 0 -60 10v-172q0 -24 -24 -24h-82q-23 0 -23 24v652q0 24 23 24h82q24 0 24 -24v-286q0 -28 10.5 -47t28 -28t40.5 -9q41 0 65.5 25.5t24.5 78.5v266q0 24 24 24h81q24 0 24 -24v-324
q0 -18 10.5 -24.5t33.5 -6.5z" />
    <glyph glyph-name="paragraph" unicode="&#xb6;" horiz-adv-x="669" 
d="M599 700q23 0 23 -24v-65q0 -24 -23 -24h-38v-763q0 -24 -24 -24h-73q-24 0 -24 24v763h-79v-763q0 -24 -24 -24h-73q-24 0 -24 24v446q-89 0 -152 63t-63 152t63 152t152 63h121h200h38z" />
    <glyph glyph-name="periodcentered" unicode="&#xb7;" horiz-adv-x="268" 
d="M86 275q-24 0 -24 24v95q0 24 24 24h95q24 0 24 -24v-95q0 -24 -24 -24h-95z" />
    <glyph glyph-name="cedilla" unicode="&#xb8;" horiz-adv-x="260" 
d="M170 -46q29 -6 49.5 -26t20.5 -52q0 -101 -200 -93q-20 1 -20 21v51q0 19 22 19q86 -4 86 21q0 17 -44 23q-19 3 -19 21v61h105v-46z" />
    <glyph glyph-name="ordmasculine" unicode="&#xba;" horiz-adv-x="310" 
d="M155 450q-15 0 -30 3.5t-28.5 10t-25 15t-20.5 20t-15.5 24.5t-10 28t-3.5 31q0 56 38.5 94t94.5 38q27 0 51.5 -10.5t42 -28t28 -42t10.5 -51.5q0 -37 -17.5 -67t-48 -47.5t-66.5 -17.5zM155 517q18 0 32.5 8t22.5 23t8 34q0 14 -4.5 26.5t-13 20.5t-20 13t-25.5 5
q-28 0 -46 -18t-18 -47t18 -47t46 -18z" />
    <glyph glyph-name="guillemotright" unicode="&#xbb;" horiz-adv-x="545" 
d="M96 496h67q19 0 29 -16l90 -155q10 -16 0 -32l-90 -155q-10 -16 -29 -16h-67q-15 0 -19.5 7.5t2.5 20.5l93 159l-93 159q-7 13 -2.5 20.5t19.5 7.5zM286 496h67q19 0 29 -16l90 -155q10 -16 0 -32l-90 -155q-10 -16 -29 -16h-67q-15 0 -19.5 7.5t2.5 20.5l93 159l-93 159
q-7 13 -2.5 20.5t19.5 7.5z" />
    <glyph glyph-name="onequarter" unicode="&#xbc;" horiz-adv-x="814" 
d="M196 300h-62q-22 0 -22 23v269l-72 -38q-12 -7 -20 -2t-8 18v58q0 18 17 27l69 38q13 7 28 7h70q22 0 22 -23v-354q0 -23 -22 -23zM575 700q14 0 18.5 -8t-2.5 -20l-374 -656q-9 -16 -29 -16h-38q-14 0 -18.5 8t2.5 20l374 656q9 16 28 16h39zM775 162q23 0 23 -24v-50
q0 -24 -23 -24h-17v-41q0 -23 -24 -23h-56q-23 0 -23 23v41h-163q-24 0 -24 24v59q0 14 8 28l113 209q8 16 27 16h65q13 0 18 -7.5t-1 -20.5l-111 -210h68v46q0 23 23 23h56q24 0 24 -23v-46h17z" />
    <glyph glyph-name="onehalf" unicode="&#xbd;" horiz-adv-x="813" 
d="M98 693q13 7 28 7h70q22 0 22 -23v-354q0 -23 -22 -23h-62q-22 0 -22 23v269l-72 -38q-12 -7 -20 -2t-8 18v58q0 18 17 27zM150 0q-14 0 -18.5 8t2.5 20l374 656q9 16 28 16h39q14 0 18.5 -8t-2.5 -20l-374 -656q-9 -16 -29 -16h-38zM510 0q-23 0 -23 23v31q0 16 12 28
l139 137q34 34 34 62q0 16 -10 25.5t-28 9.5q-30 0 -39 -23q-5 -12 -10 -16.5t-14 -4.5h-64q-11 0 -17.5 6.5t-4.5 17.5q8 57 49 87.5t100 30.5q42 0 74.5 -14.5t52 -44.5t19.5 -72q0 -58 -68 -124l-64 -61h116q23 0 23 -24v-51q0 -23 -23 -23h-254z" />
    <glyph glyph-name="threequarters" unicode="&#xbe;" horiz-adv-x="895" 
d="M324 421q0 -65 -41.5 -100t-113.5 -35q-43 0 -76 13t-52.5 37.5t-24.5 60.5q-2 11 4 17.5t18 6.5h64q6 0 10.5 -3t6.5 -6t7 -10q10 -22 43 -22q47 0 47 41q0 9 -3 16.5t-9 12.5t-15 7.5t-20 2.5h-37q-23 0 -23 24v22q0 17 10 28l57 68h-123q-23 0 -23 24v51q0 23 23 23
h229q23 0 23 -23v-40q0 -16 -10 -29l-60 -73q42 -13 65.5 -42.5t23.5 -71.5zM655 700q14 0 18.5 -8t-2.5 -20l-374 -656q-9 -16 -29 -16h-38q-14 0 -18.5 8t2.5 20l374 656q9 16 28 16h39zM855 162q23 0 23 -24v-50q0 -24 -23 -24h-17v-41q0 -23 -23 -23h-57q-23 0 -23 23
v41h-163q-23 0 -23 24v59q0 14 7 28l113 209q8 16 27 16h65q13 0 18 -7.5t-1 -20.5l-111 -210h68v46q0 23 23 23h57q23 0 23 -23v-46h17z" />
    <glyph glyph-name="questiondown" unicode="&#xbf;" horiz-adv-x="546" 
d="M329 500q24 0 24 -24v-95q0 -23 -24 -23h-95q-24 0 -24 23v95q0 24 24 24h95zM326 265q12 0 18 -6.5t4 -18.5q-5 -31 -24.5 -59.5t-42.5 -50t-45.5 -42.5t-38 -45t-15.5 -50q0 -35 24 -54t67 -19q41 0 67.5 18t33.5 52q5 22 25 22h90q25 0 24 -25q-8 -97 -77 -149
t-167 -52q-58 0 -108 22t-83 67.5t-33 107.5q0 38 14.5 71.5t36.5 58t44.5 45.5t42.5 43.5t26 42.5q7 21 25 21h92z" />
    <glyph glyph-name="Agrave" unicode="&#xc0;" horiz-adv-x="653" 
d="M270 774l-82 102q-8 10 -4.5 17t16.5 7h108q17 0 24 -14l58 -100q6 -10 2 -17t-16 -7h-82q-16 0 -24 12zM641 27q4 -13 -1.5 -20t-18.5 -7h-100q-21 0 -27 20l-33 106h-269l-34 -106q-5 -20 -26 -20h-101q-13 0 -18.5 7t-0.5 20l222 653q6 20 28 20h129q21 0 27 -20z
M233 254h186l-93 293z" />
    <glyph glyph-name="Aacute" unicode="&#xc1;" horiz-adv-x="653" 
d="M278 762q-13 0 -18 8t2 20l55 94q9 16 28 16h99q15 0 19.5 -9t-5.5 -20l-77 -95q-10 -14 -29 -14h-74zM641 27q4 -13 -1.5 -20t-18.5 -7h-100q-21 0 -27 20l-33 106h-269l-34 -106q-5 -20 -26 -20h-101q-13 0 -18.5 7t-0.5 20l222 653q6 20 28 20h129q21 0 27 -20z
M233 254h186l-93 293z" />
    <glyph glyph-name="Acircumflex" unicode="&#xc2;" horiz-adv-x="653" 
d="M181 755q-12 0 -15.5 7t2.5 16l80 110q9 12 24 12h76h25q15 0 24 -12l79 -110q7 -9 3.5 -16t-15.5 -7h-82q-16 0 -24 13l-36 52l-35 -52q-8 -13 -24 -13h-82zM641 27q4 -13 -1.5 -20t-18.5 -7h-100q-21 0 -27 20l-33 106h-269l-34 -106q-5 -20 -26 -20h-101
q-13 0 -18.5 7t-0.5 20l222 653q6 20 28 20h129q21 0 27 -20zM233 254h186l-93 293z" />
    <glyph glyph-name="Atilde" unicode="&#xc3;" horiz-adv-x="653" 
d="M176 760q-20 0 -19 20q4 67 32.5 99.5t67.5 31t81 -29.5q26 -17 37.5 -17t14.5 21q3 20 20 20h66q20 0 18 -21q-2 -50 -19.5 -81.5t-43 -41t-56 -4t-61.5 26.5q-26 17 -37.5 17t-14.5 -21q-3 -20 -20 -20h-66zM641 27q4 -13 -1.5 -20t-18.5 -7h-100q-21 0 -27 20l-33 106
h-269l-34 -106q-5 -20 -26 -20h-101q-13 0 -18.5 7t-0.5 20l222 653q6 20 28 20h129q21 0 27 -20zM233 254h186l-93 293z" />
    <glyph glyph-name="Adieresis" unicode="&#xc4;" horiz-adv-x="653" 
d="M194 761q-19 0 -19 20v78q0 20 19 20h79q19 0 19 -20v-78q0 -20 -19 -20h-79zM380 761q-20 0 -20 20v78q0 20 20 20h78q20 0 20 -20v-78q0 -20 -20 -20h-78zM641 27q4 -13 -1.5 -20t-18.5 -7h-100q-21 0 -27 20l-33 106h-269l-34 -106q-5 -20 -26 -20h-101q-13 0 -18.5 7
t-0.5 20l222 653q6 20 28 20h129q21 0 27 -20zM233 254h186l-93 293z" />
    <glyph glyph-name="Aring" unicode="&#xc5;" horiz-adv-x="653" 
d="M326 739q-55 0 -90.5 33.5t-35.5 85t35.5 85t90.5 33.5q57 0 91.5 -33.5t34.5 -85t-34.5 -85t-91.5 -33.5zM326 895q-18 0 -28.5 -10.5t-10.5 -27t10.5 -27t28.5 -10.5q19 0 29.5 10.5t10.5 27.5q0 8 -2.5 14.5t-7.5 11.5t-12.5 8t-17.5 3zM641 27q4 -13 -1.5 -20
t-18.5 -7h-100q-21 0 -27 20l-33 106h-269l-34 -106q-5 -20 -26 -20h-101q-13 0 -18.5 7t-0.5 20l222 653q6 20 28 20h129q21 0 27 -20zM233 254h186l-93 293z" />
    <glyph glyph-name="AE" unicode="&#xc6;" horiz-adv-x="880" 
d="M824 132q24 0 24 -24v-84q0 -24 -24 -24h-326h-24q-24 0 -24 24v102h-221l-65 -110q-9 -16 -28 -16h-103q-14 0 -18.5 8t2.5 20l387 656q10 16 29 16h62h89h235q23 0 23 -24v-84q0 -24 -23 -24h-235v-150h212q24 0 24 -24v-81q0 -24 -24 -24h-212v-157h240zM305 254h145
v247z" />
    <glyph glyph-name="Ccedilla" unicode="&#xc7;" horiz-adv-x="752" 
d="M710 250q12 0 17.5 -7t2.5 -18q-27 -92 -102 -155.5t-174 -78.5v-37q19 -4 34 -13t26 -26t11 -39q0 -101 -200 -93q-20 1 -20 20v52q0 19 21 19q87 -4 87 21q0 17 -45 23q-18 3 -18 21v50q-140 17 -229 118t-89 243q0 101 47 184t130.5 131.5t187.5 48.5q117 0 209 -66
t124 -171q2 -8 0 -14t-7 -9.5t-13 -3.5h-98q-18 0 -27 19q-15 33 -43.5 58.5t-65.5 39t-79 13.5q-102 0 -164.5 -64t-62.5 -166t62.5 -166t164.5 -64q63 0 114 30t74 81q9 19 27 19h98z" />
    <glyph glyph-name="Egrave" unicode="&#xc8;" horiz-adv-x="513" 
d="M214 774l-82 102q-8 10 -4.5 17t16.5 7h108q17 0 24 -14l58 -100q6 -10 2 -17t-15 -7h-82q-16 0 -25 12zM456 132q24 0 24 -24v-84q0 -24 -24 -24h-346h-21q-24 0 -24 24v652q0 24 24 24h113h249q24 0 24 -24v-84q0 -24 -24 -24h-249v-150h224q24 0 24 -24v-81
q0 -24 -24 -24h-224v-157h254z" />
    <glyph glyph-name="Eacute" unicode="&#xc9;" horiz-adv-x="513" 
d="M222 762q-13 0 -17.5 8t1.5 20l55 94q9 16 28 16h100q14 0 18.5 -9t-4.5 -20l-77 -95q-11 -14 -29 -14h-75zM456 132q24 0 24 -24v-84q0 -24 -24 -24h-346h-21q-24 0 -24 24v652q0 24 24 24h113h249q24 0 24 -24v-84q0 -24 -24 -24h-249v-150h224q24 0 24 -24v-81
q0 -24 -24 -24h-224v-157h254z" />
    <glyph glyph-name="Ecircumflex" unicode="&#xca;" horiz-adv-x="513" 
d="M125 755q-12 0 -15.5 7t3.5 16l79 110q10 12 24 12h76h26q14 0 23 -12l80 -110q7 -9 3 -16t-16 -7h-82q-16 0 -24 13l-35 52l-36 -52q-8 -13 -23 -13h-83zM456 132q24 0 24 -24v-84q0 -24 -24 -24h-346h-21q-24 0 -24 24v652q0 24 24 24h113h249q24 0 24 -24v-84
q0 -24 -24 -24h-249v-150h224q24 0 24 -24v-81q0 -24 -24 -24h-224v-157h254z" />
    <glyph glyph-name="Edieresis" unicode="&#xcb;" horiz-adv-x="513" 
d="M139 761q-20 0 -20 20v78q0 20 20 20h78q20 0 20 -20v-78q0 -20 -20 -20h-78zM324 761q-20 0 -20 20v78q0 20 20 20h78q20 0 20 -20v-78q0 -20 -20 -20h-78zM456 132q24 0 24 -24v-84q0 -24 -24 -24h-346h-21q-24 0 -24 24v652q0 24 24 24h113h249q24 0 24 -24v-84
q0 -24 -24 -24h-249v-150h224q24 0 24 -24v-81q0 -24 -24 -24h-224v-157h254z" />
    <glyph glyph-name="Igrave" unicode="&#xcc;" horiz-adv-x="268" 
d="M184 762q12 0 15.5 7t-1.5 17l-59 100q-7 14 -23 14h-109q-12 0 -16 -7t4 -17l83 -102q8 -12 24 -12h82zM65 676q0 24 24 24h90q23 0 23 -24v-652q0 -24 -23 -24h-90q-24 0 -24 24v652z" />
    <glyph glyph-name="Iacute" unicode="&#xcd;" horiz-adv-x="268" 
d="M70 790q-7 -12 -2.5 -20t18.5 -8h74q18 0 29 14l77 95q9 11 5 20t-19 9h-100q-18 0 -28 -16zM65 676q0 24 24 24h90q23 0 23 -24v-652q0 -24 -23 -24h-90q-24 0 -24 24v652z" />
    <glyph glyph-name="Icircumflex" unicode="&#xce;" horiz-adv-x="268" 
d="M284 778q7 -9 3.5 -16t-15.5 -7h-83q-15 0 -23 13l-36 52l-36 -52q-8 -13 -23 -13h-83q-12 0 -15.5 7t3.5 16l80 110q9 12 23 12h76h26q14 0 23 -12zM179 700q23 0 23 -24v-652q0 -24 -23 -24h-90q-24 0 -24 24v652q0 24 24 24h90z" />
    <glyph glyph-name="Idieresis" unicode="&#xcf;" horiz-adv-x="268" 
d="M2 761q-20 0 -20 20v78q0 20 20 20h78q20 0 20 -20v-78q0 -20 -20 -20h-78zM187 761q-19 0 -19 20v78q0 20 19 20h79q19 0 19 -20v-78q0 -20 -19 -20h-79zM65 676q0 24 24 24h90q23 0 23 -24v-652q0 -24 -23 -24h-90q-24 0 -24 24v652z" />
    <glyph glyph-name="Eth" unicode="&#xd0;" horiz-adv-x="768" 
d="M398 700q144 0 240.5 -101t96.5 -249t-96.5 -249t-240.5 -101h-253h-21q-24 0 -24 24v256h-54q-24 0 -24 24v77q0 23 24 23h54v272q0 24 24 24h114h160zM398 132q91 0 147.5 60.5t56.5 157.5t-56.5 157.5t-147.5 60.5h-160v-164h136q24 0 24 -23v-77q0 -24 -24 -24h-136
v-148h160z" />
    <glyph glyph-name="Ntilde" unicode="&#xd1;" horiz-adv-x="645" 
d="M172 760q-20 0 -18 20q2 51 19.5 82.5t43.5 41t56 3.5t62 -26q25 -17 36.5 -17t14.5 21q3 20 20 20h66q20 0 19 -21q-4 -66 -32.5 -98.5t-67.5 -31t-81 29.5q-26 17 -37.5 17t-14.5 -21q-3 -20 -20 -20h-66zM442 676q0 24 24 24h90q24 0 24 -24v-652q0 -24 -24 -24h-62
q-20 0 -29 15l-263 417v-408q0 -24 -23 -24h-90q-24 0 -24 24v652q0 24 24 24h62q20 0 29 -15l262 -417v408z" />
    <glyph glyph-name="Ograve" unicode="&#xd2;" horiz-adv-x="792" 
d="M446 770q12 0 16 7t-2 17l-59 100q-7 14 -23 14h-109q-12 0 -15.5 -7.5t4.5 -17.5l82 -102q8 -11 24 -11h82zM396 -14q-99 0 -183 48t-132.5 132t-48.5 184t48.5 184t132.5 132t183 48t183 -48t132.5 -132t48.5 -184t-48.5 -184t-132.5 -132t-183 -48zM396 120
q38 0 72.5 11t62 31.5t48.5 48.5t32 63.5t11 75.5q0 100 -65 165t-161 65t-161 -65t-65 -165t65 -165t161 -65z" />
    <glyph glyph-name="Oacute" unicode="&#xd3;" horiz-adv-x="792" 
d="M332 798q-7 -12 -2.5 -20t18.5 -8h74q19 0 29 13l77 96q9 11 5 20t-19 9h-100q-18 0 -27 -16zM396 -14q-99 0 -183 48t-132.5 132t-48.5 184t48.5 184t132.5 132t183 48t183 -48t132.5 -132t48.5 -184t-48.5 -184t-132.5 -132t-183 -48zM396 120q38 0 72.5 11t62 31.5
t48.5 48.5t32 63.5t11 75.5q0 100 -65 165t-161 65t-161 -65t-65 -165t65 -165t161 -65z" />
    <glyph glyph-name="Ocircumflex" unicode="&#xd4;" horiz-adv-x="792" 
d="M250 762q-11 0 -15 7t3 17l80 109q9 13 24 13h75h26q14 0 23 -13l80 -109q7 -10 3.5 -17t-15.5 -7h-82q-16 0 -24 13l-36 53l-36 -53q-7 -13 -23 -13h-83zM396 714q99 0 183 -48t132.5 -132t48.5 -184t-48.5 -184t-132.5 -132t-183 -48t-183 48t-132.5 132t-48.5 184
t48.5 184t132.5 132t183 48zM396 120q38 0 72.5 11t62 31.5t48.5 48.5t32 63.5t11 75.5q0 100 -65 165t-161 65t-161 -65t-65 -165t65 -165t161 -65z" />
    <glyph glyph-name="Otilde" unicode="&#xd5;" horiz-adv-x="792" 
d="M246 767q-21 0 -19 21q4 66 32.5 99t67.5 31t81 -29q26 -18 37.5 -18t14.5 22q2 19 20 19h66q20 0 18 -20q-3 -67 -31.5 -99.5t-67.5 -30.5t-82 29q-25 17 -37 17t-14 -21q-3 -20 -20 -20h-66zM396 -14q-99 0 -183 48t-132.5 132t-48.5 184t48.5 184t132.5 132t183 48
t183 -48t132.5 -132t48.5 -184t-48.5 -184t-132.5 -132t-183 -48zM396 120q38 0 72.5 11t62 31.5t48.5 48.5t32 63.5t11 75.5q0 100 -65 165t-161 65t-161 -65t-65 -165t65 -165t161 -65z" />
    <glyph glyph-name="Odieresis" unicode="&#xd6;" horiz-adv-x="792" 
d="M264 769q-19 0 -19 19v79q0 19 19 19h79q19 0 19 -19v-79q0 -19 -19 -19h-79zM449 769q-19 0 -19 19v79q0 19 19 19h79q19 0 19 -19v-79q0 -19 -19 -19h-79zM396 -14q-99 0 -183 48t-132.5 132t-48.5 184t48.5 184t132.5 132t183 48t183 -48t132.5 -132t48.5 -184
t-48.5 -184t-132.5 -132t-183 -48zM396 120q38 0 72.5 11t62 31.5t48.5 48.5t32 63.5t11 75.5q0 100 -65 165t-161 65t-161 -65t-65 -165t65 -165t161 -65z" />
    <glyph glyph-name="multiply" unicode="&#xd7;" horiz-adv-x="512" 
d="M340 350l104 -104q17 -17 0 -34l-51 -50q-17 -17 -34 0l-103 103l-104 -103q-17 -17 -34 0l-51 50q-17 17 0 34l104 104l-104 104q-17 17 0 34l51 50q17 17 34 0l104 -103l103 103q17 17 34 0l51 -50q17 -17 0 -34z" />
    <glyph glyph-name="Oslash" unicode="&#xd8;" horiz-adv-x="798" 
d="M663 605q103 -105 103 -255q0 -100 -48.5 -184t-132 -132t-183.5 -48q-110 0 -201 60l-27 -33q-11 -13 -29 -13h-44q-15 0 -19.5 9t5.5 21l54 65q-102 105 -102 255q0 100 48.5 184t132 132t182.5 48q111 0 201 -60l27 33q11 13 30 13h44q15 0 19 -9t-5 -21zM176 350
q0 -88 52 -150l289 350q-52 30 -115 30q-96 0 -161 -65t-65 -165zM402 121q96 0 161 64.5t65 164.5q0 88 -51 150l-290 -350q52 -29 115 -29z" />
    <glyph glyph-name="Ugrave" unicode="&#xd9;" horiz-adv-x="620" 
d="M360 762q12 0 16 7t-2 17l-59 100q-7 14 -23 14h-109q-12 0 -15.5 -7t4.5 -17l82 -102q8 -12 24 -12h82zM310 -14q-111 0 -183 60.5t-72 167.5v462q0 24 24 24h90q23 0 23 -24v-452q0 -104 118 -104t118 104v452q0 24 23 24h90q24 0 24 -24v-462q0 -107 -72 -167.5
t-183 -60.5z" />
    <glyph glyph-name="Uacute" unicode="&#xda;" horiz-adv-x="620" 
d="M246 790q-7 -12 -2.5 -20t18.5 -8h74q19 0 29 14l77 95q9 11 5 20t-19 9h-100q-18 0 -27 -16zM310 -14q-111 0 -183 60.5t-72 167.5v462q0 24 24 24h90q23 0 23 -24v-452q0 -104 118 -104t118 104v452q0 24 23 24h90q24 0 24 -24v-462q0 -107 -72 -167.5t-183 -60.5z" />
    <glyph glyph-name="Ucircumflex" unicode="&#xdb;" horiz-adv-x="620" 
d="M164 755q-11 0 -15 7t3 16l80 110q9 12 24 12h75h26q14 0 23 -12l80 -110q7 -9 3.5 -16t-15.5 -7h-82q-16 0 -24 13l-36 52l-36 -52q-7 -13 -23 -13h-83zM541 700q24 0 24 -24v-462q0 -107 -72 -167.5t-183 -60.5t-183 60.5t-72 167.5v462q0 24 24 24h90q23 0 23 -24
v-452q0 -104 118 -104t118 104v452q0 24 23 24h90z" />
    <glyph glyph-name="Udieresis" unicode="&#xdc;" horiz-adv-x="620" 
d="M178 761q-19 0 -19 20v78q0 20 19 20h79q19 0 19 -20v-78q0 -20 -19 -20h-79zM363 761q-19 0 -19 20v78q0 20 19 20h79q19 0 19 -20v-78q0 -20 -19 -20h-79zM310 -14q-111 0 -183 60.5t-72 167.5v462q0 24 24 24h90q23 0 23 -24v-452q0 -104 118 -104t118 104v452
q0 24 23 24h90q24 0 24 -24v-462q0 -107 -72 -167.5t-183 -60.5z" />
    <glyph glyph-name="Yacute" unicode="&#xdd;" horiz-adv-x="601" 
d="M252 762q-14 0 -18.5 8t2.5 20l54 94q10 16 28 16h100q15 0 19 -9t-5 -20l-77 -95q-11 -14 -29 -14h-74zM566 700q14 0 18.5 -8t-2.5 -20l-213 -361v-287q0 -24 -24 -24h-90q-23 0 -23 24v287l-213 361q-7 12 -2.5 20t18.5 8h105q19 0 27 -17l134 -240l133 240
q9 17 28 17h104z" />
    <glyph glyph-name="Thorn" unicode="&#xde;" horiz-adv-x="588" 
d="M330 582q97 0 164.5 -67.5t67.5 -164t-67.5 -164.5t-164.5 -68h-128v-94q0 -24 -23 -24h-90q-24 0 -24 24v652q0 24 24 24h90q23 0 23 -24v-94h128zM330 246q39 0 67 30.5t28 73.5t-28 73.5t-67 30.5h-128v-208h128z" />
    <glyph glyph-name="germandbls" unicode="&#xdf;" horiz-adv-x="513" 
d="M293 -8q-24 1 -24 25v67q0 22 26 22q77 1 77 61q0 23 -18.5 52.5t-41 54t-41 54.5t-18.5 54q0 22 16.5 49.5t33.5 56t17 54.5q0 25 -17 39.5t-44 14.5q-31 0 -51 -19t-20 -59v-494q0 -24 -24 -24h-82q-23 0 -23 24v494q0 59 24 103t70 68.5t109 24.5q87 0 136.5 -42.5
t49.5 -109.5q0 -30 -11 -58.5t-24 -46t-24 -36t-11 -32.5q0 -16 12.5 -36t30.5 -41.5t36 -45.5t31 -56t13 -65q0 -73 -49.5 -116t-158.5 -37z" />
    <glyph glyph-name="agrave" unicode="&#xe0;" horiz-adv-x="509" 
d="M204 581l-83 102q-8 10 -4.5 17.5t16.5 7.5h109q16 0 23 -14l58 -100q6 -10 2 -17t-15 -7h-82q-16 0 -24 11zM259 514q88 0 145.5 -51.5t57.5 -145.5v-293q0 -24 -23 -24h-79q-24 0 -24 24v19q-46 -57 -135 -57q-71 0 -120 41.5t-49 116.5t49 116t120 41q85 0 135 -44v53
q0 84 -77 84q-28 0 -48 -11.5t-26 -31.5q-8 -21 -25 -21h-80q-25 0 -24 25q10 74 66.5 116.5t136.5 42.5zM245 81q42 0 66.5 17.5t24.5 45.5q0 29 -24.5 45.5t-66.5 16.5q-41 0 -62 -17t-21 -45t21 -45.5t62 -17.5z" />
    <glyph glyph-name="aacute" unicode="&#xe1;" horiz-adv-x="509" 
d="M211 570q-13 0 -17.5 8t2.5 20l54 94q9 16 28 16h100q14 0 18.5 -9t-4.5 -20l-78 -96q-10 -13 -28 -13h-75zM259 514q88 0 145.5 -51.5t57.5 -145.5v-293q0 -24 -23 -24h-79q-24 0 -24 24v19q-46 -57 -135 -57q-71 0 -120 41.5t-49 116.5t49 116t120 41q85 0 135 -44v53
q0 84 -77 84q-28 0 -48 -11.5t-26 -31.5q-8 -21 -25 -21h-80q-25 0 -24 25q10 74 66.5 116.5t136.5 42.5zM245 81q42 0 66.5 17.5t24.5 45.5q0 29 -24.5 45.5t-66.5 16.5q-41 0 -62 -17t-21 -45t21 -45.5t62 -17.5z" />
    <glyph glyph-name="acircumflex" unicode="&#xe2;" horiz-adv-x="509" 
d="M114 562q-12 0 -15.5 7t3.5 17l80 109q9 13 23 13h76h25q15 0 24 -13l80 -109q7 -10 3 -17t-15 -7h-83q-16 0 -23 13l-36 53l-36 -53q-8 -13 -24 -13h-82zM259 514q88 0 145.5 -51.5t57.5 -145.5v-293q0 -24 -23 -24h-79q-24 0 -24 24v19q-46 -57 -135 -57
q-71 0 -120 41.5t-49 116.5t49 116t120 41q85 0 135 -44v53q0 84 -77 84q-28 0 -48 -11.5t-26 -31.5q-8 -21 -25 -21h-80q-25 0 -24 25q10 74 66.5 116.5t136.5 42.5zM245 81q42 0 66.5 17.5t24.5 45.5q0 29 -24.5 45.5t-66.5 16.5q-41 0 -62 -17t-21 -45t21 -45.5t62 -17.5
z" />
    <glyph glyph-name="atilde" unicode="&#xe3;" horiz-adv-x="509" 
d="M109 567q-20 0 -19 21q4 66 32.5 99t67.5 31t82 -29q25 -18 36.5 -18t14.5 22q3 19 20 19h66q20 0 19 -20q-3 -50 -20 -81.5t-43 -41t-56.5 -4t-61.5 25.5q-26 17 -37.5 17t-14.5 -21q-3 -20 -20 -20h-66zM259 514q88 0 145.5 -51.5t57.5 -145.5v-293q0 -24 -23 -24h-79
q-24 0 -24 24v19q-46 -57 -135 -57q-71 0 -120 41.5t-49 116.5t49 116t120 41q85 0 135 -44v53q0 84 -77 84q-28 0 -48 -11.5t-26 -31.5q-8 -21 -25 -21h-80q-25 0 -24 25q10 74 66.5 116.5t136.5 42.5zM245 81q42 0 66.5 17.5t24.5 45.5q0 29 -24.5 45.5t-66.5 16.5
q-41 0 -62 -17t-21 -45t21 -45.5t62 -17.5z" />
    <glyph glyph-name="adieresis" unicode="&#xe4;" horiz-adv-x="509" 
d="M128 569q-20 0 -20 19v79q0 19 20 19h78q20 0 20 -19v-79q0 -19 -20 -19h-78zM313 569q-20 0 -20 19v79q0 19 20 19h78q20 0 20 -19v-79q0 -19 -20 -19h-78zM259 514q88 0 145.5 -51.5t57.5 -145.5v-293q0 -24 -23 -24h-79q-24 0 -24 24v19q-46 -57 -135 -57
q-71 0 -120 41.5t-49 116.5t49 116t120 41q85 0 135 -44v53q0 84 -77 84q-28 0 -48 -11.5t-26 -31.5q-8 -21 -25 -21h-80q-25 0 -24 25q10 74 66.5 116.5t136.5 42.5zM245 81q42 0 66.5 17.5t24.5 45.5q0 29 -24.5 45.5t-66.5 16.5q-41 0 -62 -17t-21 -45t21 -45.5t62 -17.5
z" />
    <glyph glyph-name="aring" unicode="&#xe5;" horiz-adv-x="509" 
d="M260 546q-56 0 -91.5 34t-35.5 85t35.5 85t91.5 34t91 -34t35 -85t-35 -85t-91 -34zM260 703q-7 0 -12.5 -1.5t-9.5 -4t-7.5 -6t-5.5 -7.5t-3.5 -9t-1.5 -10q0 -17 10.5 -27.5t29.5 -10.5q12 0 21.5 5t14 13.5t4.5 19.5t-4.5 19.5t-14 13.5t-21.5 5zM259 514
q88 0 145.5 -51.5t57.5 -145.5v-293q0 -24 -23 -24h-79q-24 0 -24 24v19q-46 -57 -135 -57q-71 0 -120 41.5t-49 116.5t49 116t120 41q85 0 135 -44v53q0 84 -77 84q-28 0 -48 -11.5t-26 -31.5q-8 -21 -25 -21h-80q-25 0 -24 25q10 74 66.5 116.5t136.5 42.5zM245 81
q42 0 66.5 17.5t24.5 45.5q0 29 -24.5 45.5t-66.5 16.5q-41 0 -62 -17t-21 -45t21 -45.5t62 -17.5z" />
    <glyph glyph-name="ae" unicode="&#xe6;" horiz-adv-x="835" 
d="M587 514q101 0 160 -75t59 -190q0 -10 -1 -30q-3 -22 -26 -22h-103h-206q10 -52 40 -78t74 -26q49 0 71 34q11 17 28 17h81q13 0 18.5 -8.5t-0.5 -21.5q-22 -59 -73.5 -92.5t-114.5 -33.5q-116 0 -172 83q-50 -85 -188 -85q-92 0 -147 42.5t-55 115.5q0 75 49 116t120 41
q83 0 135 -42v51l45 3l-45 -3q0 84 -77 84q-28 0 -48 -11.5t-26 -31.5q-8 -21 -25 -21h-80q-25 0 -24 25q10 74 66 116t132 42q56 0 99.5 -22.5t67.5 -65.5q57 89 166 89zM470 298h210q-7 51 -35 75.5t-66 24.5q-91 0 -109 -100zM246 81q42 0 66.5 17.5t24.5 45.5
q0 29 -25 45.5t-67 16.5q-41 0 -62 -17t-21 -45t21.5 -45.5t62.5 -17.5z" />
    <glyph glyph-name="ccedilla" unicode="&#xe7;" horiz-adv-x="566" 
d="M520 182q12 0 18 -7t1 -19q-19 -62 -69 -106t-116 -58v-38q29 -6 49.5 -26t20.5 -52q0 -101 -199 -93q-21 2 -21 21v51q0 20 22 20q86 -5 86 20q0 17 -44 24q-19 2 -19 20v51q-95 16 -156 88.5t-61 171.5q0 112 76 188t189 76q85 0 151.5 -47t91.5 -123q4 -12 -2 -19
t-18 -7h-90q-17 0 -28 16q-34 52 -105 52q-58 0 -96.5 -38.5t-38.5 -97.5t38.5 -97.5t96.5 -38.5q22 0 42.5 6t36 17.5t26.5 27.5q10 17 28 17h90z" />
    <glyph glyph-name="egrave" unicode="&#xe8;" horiz-adv-x="576" 
d="M243 577l-83 103q-8 10 -4 17t16 7h109q16 0 23 -14l58 -100q6 -10 2.5 -17t-15.5 -7h-82q-16 0 -24 11zM298 514q43 0 82 -13.5t69.5 -37.5t52.5 -56.5t33.5 -73t11.5 -83.5q0 -11 -1 -31q-3 -22 -26 -22h-103h-250q12 -52 48.5 -78t86.5 -26q58 0 92 37q14 13 29 13
l80 1q13 0 19 -7.5t0 -18.5q-18 -42 -51 -71.5t-76.5 -45t-94.5 -15.5q-79 0 -140.5 35t-94.5 94.5t-33 134.5q0 113 74.5 188.5t191.5 75.5zM166 298h252q-10 51 -43.5 75.5t-77.5 24.5q-51 0 -85 -26.5t-46 -73.5z" />
    <glyph glyph-name="eacute" unicode="&#xe9;" horiz-adv-x="576" 
d="M250 566q-13 0 -17.5 8t2.5 20l55 94q9 16 27 16h100q15 0 19 -9t-5 -20l-77 -95q-11 -14 -29 -14h-75zM298 514q43 0 82 -13.5t69.5 -37.5t52.5 -56.5t33.5 -73t11.5 -83.5q0 -11 -1 -31q-3 -22 -26 -22h-103h-250q12 -52 48.5 -78t86.5 -26q58 0 92 37q14 13 29 13
l80 1q13 0 19 -7.5t0 -18.5q-18 -42 -51 -71.5t-76.5 -45t-94.5 -15.5q-79 0 -140.5 35t-94.5 94.5t-33 134.5q0 113 74.5 188.5t191.5 75.5zM166 298h252q-10 51 -43.5 75.5t-77.5 24.5q-51 0 -85 -26.5t-46 -73.5z" />
    <glyph glyph-name="ecircumflex" unicode="&#xea;" horiz-adv-x="576" 
d="M153 559q-12 0 -15.5 7t3.5 16l80 110q9 12 23 12h76h26q14 0 23 -12l80 -110q7 -9 3.5 -16t-15.5 -7h-83q-15 0 -23 12l-36 53l-36 -53q-8 -12 -23 -12h-83zM298 514q43 0 82 -13.5t69.5 -37.5t52.5 -56.5t33.5 -73t11.5 -83.5q0 -11 -1 -31q-3 -22 -26 -22h-103h-250
q12 -52 48.5 -78t86.5 -26q58 0 92 37q14 13 29 13l80 1q13 0 19 -7.5t0 -18.5q-18 -42 -51 -71.5t-76.5 -45t-94.5 -15.5q-79 0 -140.5 35t-94.5 94.5t-33 134.5q0 113 74.5 188.5t191.5 75.5zM166 298h252q-10 51 -43.5 75.5t-77.5 24.5q-51 0 -85 -26.5t-46 -73.5z" />
    <glyph glyph-name="edieresis" unicode="&#xeb;" horiz-adv-x="576" 
d="M167 565q-19 0 -19 19v79q0 19 19 19h79q19 0 19 -19v-79q0 -19 -19 -19h-79zM352 565q-20 0 -20 19v79q0 19 20 19h78q20 0 20 -19v-79q0 -19 -20 -19h-78zM298 514q43 0 82 -13.5t69.5 -37.5t52.5 -56.5t33.5 -73t11.5 -83.5q0 -11 -1 -31q-3 -22 -26 -22h-103h-250
q12 -52 48.5 -78t86.5 -26q58 0 92 37q14 13 29 13l80 1q13 0 19 -7.5t0 -18.5q-18 -42 -51 -71.5t-76.5 -45t-94.5 -15.5q-79 0 -140.5 35t-94.5 94.5t-33 134.5q0 113 74.5 188.5t191.5 75.5zM166 298h252q-10 51 -43.5 75.5t-77.5 24.5q-51 0 -85 -26.5t-46 -73.5z" />
    <glyph glyph-name="igrave" unicode="&#xec;" horiz-adv-x="247" 
d="M79 555q-19 0 -27 18l-46 99q-5 13 0 20.5t18 7.5h96q21 0 27 -20l29 -98q4 -13 -2 -20t-18 -7h-77zM82 0q-23 0 -23 24v452q0 24 23 24h82q24 0 24 -24v-452q0 -24 -24 -24h-82z" />
    <glyph glyph-name="iacute" unicode="&#xed;" horiz-adv-x="247" 
d="M67 582q-2 -9 -0.5 -15t7 -9t14.5 -3h76q19 0 27 18l46 99q5 13 0 20.5t-18 7.5h-96q-21 0 -27 -20zM82 0q-23 0 -23 24v452q0 24 23 24h82q24 0 24 -24v-452q0 -24 -24 -24h-82z" />
    <glyph glyph-name="icircumflex" unicode="&#xee;" horiz-adv-x="247" 
d="M264 584q8 -12 3 -20.5t-19 -8.5h-74q-20 0 -29 16l-22 37l-21 -37q-10 -16 -29 -16h-74q-15 0 -19.5 8.5t3.5 20.5l65 101q9 15 29 15h67h26q19 0 29 -15zM164 500q24 0 24 -24v-452q0 -24 -24 -24h-82q-23 0 -23 24v452q0 24 23 24h82z" />
    <glyph glyph-name="idieresis" unicode="&#xef;" horiz-adv-x="247" 
d="M3 561q-23 0 -23 24v70q0 24 23 24h70q24 0 24 -24v-70q0 -24 -24 -24h-70zM173 561q-23 0 -23 24v70q0 24 23 24h70q24 0 24 -24v-70q0 -24 -24 -24h-70zM82 0q-23 0 -23 24v452q0 24 23 24h82q24 0 24 -24v-452q0 -24 -24 -24h-82z" />
    <glyph glyph-name="eth" unicode="&#xf0;" horiz-adv-x="571" 
d="M492 370q47 -63 47 -140q0 -110 -74.5 -176t-178.5 -66q-68 0 -125 28.5t-92.5 84.5t-35.5 129q0 99 71.5 165.5t171.5 59.5l-58 80l-100 -49q-12 -6 -19.5 -1.5t-7.5 17.5v40q0 19 17 28l62 31l-51 71q-8 12 -4 20t19 8h94q18 0 29 -14l23 -31l90 44q12 6 20 1.5
t8 -18.5v-39q0 -19 -18 -28l-51 -26zM285.5 109q54.5 0 89.5 32.5t35 88.5q0 41 -21 70q-36 47 -103 47q-55 0 -89.5 -32t-34.5 -85q0 -56 34.5 -88.5t89 -32.5z" />
    <glyph glyph-name="ntilde" unicode="&#xf1;" 
d="M119 567q-20 0 -19 21q4 66 32.5 99t67.5 31t82 -29q25 -18 36.5 -18t14.5 22q3 19 20 19h66q20 0 19 -20q-4 -67 -32.5 -99.5t-67.5 -30.5t-81 29q-26 17 -37.5 17t-14.5 -21q-3 -20 -20 -20h-66zM324 514q71 0 116.5 -52.5t45.5 -141.5v-296q0 -24 -24 -24h-81
q-24 0 -24 24v286q0 41 -21.5 62.5t-57.5 21.5q-41 0 -65.5 -25.5t-24.5 -78.5v-266q0 -24 -24 -24h-82q-23 0 -23 24v452q0 24 23 24h82q24 0 24 -24v-27q43 65 136 65z" />
    <glyph glyph-name="ograve" unicode="&#xf2;" horiz-adv-x="594" 
d="M347 570q12 0 16 7t-2 17l-59 100q-7 14 -23 14h-109q-12 0 -15.5 -7.5t3.5 -17.5l83 -102q8 -11 24 -11h82zM297 -14q-111 0 -188 76.5t-77 187.5t77 187.5t188 76.5t188 -76.5t77 -187.5t-77 -187.5t-188 -76.5zM297 112q58 0 96.5 39t38.5 99t-38.5 99t-96.5 39
t-96.5 -39t-38.5 -99t38.5 -99t96.5 -39z" />
    <glyph glyph-name="oacute" unicode="&#xf3;" horiz-adv-x="594" 
d="M233 598q-7 -12 -2.5 -20t18.5 -8h74q19 0 29 13l77 96q9 11 5 20t-19 9h-99q-19 0 -28 -16zM297 -14q-111 0 -188 76.5t-77 187.5t77 187.5t188 76.5t188 -76.5t77 -187.5t-77 -187.5t-188 -76.5zM297 112q58 0 96.5 39t38.5 99t-38.5 99t-96.5 39t-96.5 -39t-38.5 -99
t38.5 -99t96.5 -39z" />
    <glyph glyph-name="ocircumflex" unicode="&#xf4;" horiz-adv-x="594" 
d="M152 562q-12 0 -16 7t3 17l80 109q9 13 23 13h76h26q14 0 24 -13l79 -109q7 -10 3.5 -17t-15.5 -7h-83q-15 0 -23 13l-36 53l-35 -53q-8 -13 -24 -13h-82zM297 514q111 0 188 -76.5t77 -187.5t-77 -187.5t-188 -76.5t-188 76.5t-77 187.5t77 187.5t188 76.5zM297 112
q58 0 96.5 39t38.5 99t-38.5 99t-96.5 39t-96.5 -39t-38.5 -99t38.5 -99t96.5 -39z" />
    <glyph glyph-name="otilde" unicode="&#xf5;" horiz-adv-x="594" 
d="M146 567q-20 0 -18 21q4 66 32.5 99t67.5 31t81 -29q26 -18 37.5 -18t14.5 22q2 19 19 19h67q20 0 18 -20q-3 -50 -20 -81.5t-43 -41t-56 -4t-62 25.5q-17 12 -27 15.5t-16.5 -0.5t-8.5 -19q-2 -20 -19 -20h-67zM297 -14q-111 0 -188 76.5t-77 187.5t77 187.5t188 76.5
t188 -76.5t77 -187.5t-77 -187.5t-188 -76.5zM297 112q58 0 96.5 39t38.5 99t-38.5 99t-96.5 39t-96.5 -39t-38.5 -99t38.5 -99t96.5 -39z" />
    <glyph glyph-name="odieresis" unicode="&#xf6;" horiz-adv-x="594" 
d="M165 569q-19 0 -19 19v79q0 19 19 19h79q19 0 19 -19v-79q0 -19 -19 -19h-79zM350 569q-19 0 -19 19v79q0 19 19 19h79q19 0 19 -19v-79q0 -19 -19 -19h-79zM297 -14q-111 0 -188 76.5t-77 187.5t77 187.5t188 76.5t188 -76.5t77 -187.5t-77 -187.5t-188 -76.5zM297 112
q58 0 96.5 39t38.5 99t-38.5 99t-96.5 39t-96.5 -39t-38.5 -99t38.5 -99t96.5 -39z" />
    <glyph glyph-name="divide" unicode="&#xf7;" horiz-adv-x="565" 
d="M282.5 463q-34.5 0 -58 23.5t-23.5 58t23.5 58t58 23.5t58 -23.5t23.5 -58t-23.5 -58t-58 -23.5zM69 290q-24 0 -24 23v74q0 23 24 23h427q24 0 24 -23v-74q0 -23 -24 -23h-427zM282.5 74q-34.5 0 -58 23.5t-23.5 58t23.5 58t58 23.5t58 -23.5t23.5 -58t-23.5 -58
t-58 -23.5z" />
    <glyph glyph-name="oslash" unicode="&#xf8;" horiz-adv-x="594" 
d="M486 436q75 -76 75 -186q0 -111 -76.5 -187.5t-187.5 -76.5q-82 0 -148 45l-15 -18q-11 -13 -30 -13h-27q-14 0 -18 9t5 20l36 44q-68 74 -68 177q0 111 77 187t188 76q75 0 139 -38l9 12q11 13 29 13h27q15 0 19 -9t-5 -21zM161 250q0 -44 22 -78l170 205q-26 11 -56 11
q-58 0 -97 -39t-39 -99zM297 112q58 0 96.5 39t38.5 99q0 51 -28 87l-174 -208q30 -17 67 -17z" />
    <glyph glyph-name="ugrave" unicode="&#xf9;" 
d="M211 574l-83 102q-7 10 -3.5 17t15.5 7h109q16 0 23 -14l59 -100q6 -10 2 -17t-16 -7h-82q-16 0 -24 12zM450 500q24 0 24 -24v-452q0 -24 -24 -24h-82q-23 0 -23 24v27q-43 -65 -137 -65q-71 0 -116.5 52.5t-45.5 141.5v296q0 24 24 24h81q24 0 24 -24v-286
q0 -28 10.5 -47t28 -28t40.5 -9q41 0 65.5 25.5t24.5 78.5v266q0 24 24 24h82z" />
    <glyph glyph-name="uacute" unicode="&#xfa;" 
d="M219 562q-14 0 -18.5 8t2.5 20l55 94q9 16 28 16h99q15 0 19 -9t-5 -20l-77 -95q-10 -14 -29 -14h-74zM450 500q24 0 24 -24v-452q0 -24 -24 -24h-82q-23 0 -23 24v27q-43 -65 -137 -65q-71 0 -116.5 52.5t-45.5 141.5v296q0 24 24 24h81q24 0 24 -24v-286
q0 -28 10.5 -47t28 -28t40.5 -9q41 0 65.5 25.5t24.5 78.5v266q0 24 24 24h82z" />
    <glyph glyph-name="ucircumflex" unicode="&#xfb;" 
d="M122 555q-12 0 -16 7t3 16l80 110q9 12 23 12h76h26q14 0 24 -12l79 -110q7 -9 3.5 -16t-15.5 -7h-83q-15 0 -23 13l-36 52l-35 -52q-8 -13 -24 -13h-82zM450 500q24 0 24 -24v-452q0 -24 -24 -24h-82q-23 0 -23 24v27q-43 -65 -137 -65q-71 0 -116.5 52.5t-45.5 141.5
v296q0 24 24 24h81q24 0 24 -24v-286q0 -28 10.5 -47t28 -28t40.5 -9q41 0 65.5 25.5t24.5 78.5v266q0 24 24 24h82z" />
    <glyph glyph-name="udieresis" unicode="&#xfc;" 
d="M135 561q-19 0 -19 20v78q0 20 19 20h79q19 0 19 -20v-78q0 -20 -19 -20h-79zM320 561q-19 0 -19 20v78q0 20 19 20h79q19 0 19 -20v-78q0 -20 -19 -20h-79zM450 500q24 0 24 -24v-452q0 -24 -24 -24h-82q-23 0 -23 24v27q-43 -65 -137 -65q-71 0 -116.5 52.5
t-45.5 141.5v296q0 24 24 24h81q24 0 24 -24v-286q0 -28 10.5 -47t28 -28t40.5 -9q41 0 65.5 25.5t24.5 78.5v266q0 24 24 24h82z" />
    <glyph glyph-name="yacute" unicode="&#xfd;" horiz-adv-x="500" 
d="M186 590q-7 -12 -2.5 -20t18.5 -8h74q19 0 29 14l77 95q9 11 5 20t-19 9h-100q-18 0 -27 -16zM354 480q6 20 27 20h88q13 0 18.5 -7t1.5 -20l-221 -654q-6 -19 -28 -19h-88q-13 0 -18.5 7t-1.5 20l62 180l-181 465q-4 13 1 20.5t18 7.5h88q20 0 27 -19l111 -296z" />
    <glyph glyph-name="thorn" unicode="&#xfe;" horiz-adv-x="626" 
d="M350 514q101 0 172.5 -76.5t71.5 -187.5t-71.5 -187.5t-172.5 -76.5q-105 0 -162 73v-235q0 -24 -24 -24h-82q-23 0 -23 24v852q0 24 23 24h82q24 0 24 -24v-235q57 73 162 73zM326 109q40 0 71.5 17.5t49.5 50t18 73.5q0 62 -39.5 101.5t-99.5 39.5t-99 -39.5
t-39 -101.5t39 -101.5t99 -39.5z" />
    <glyph glyph-name="ydieresis" unicode="&#xff;" horiz-adv-x="500" 
d="M118 561q-19 0 -19 20v78q0 20 19 20h79q19 0 19 -20v-78q0 -20 -19 -20h-79zM303 561q-19 0 -19 20v78q0 20 19 20h79q19 0 19 -20v-78q0 -20 -19 -20h-79zM354 480q6 20 27 20h88q13 0 18.5 -7t1.5 -20l-221 -654q-6 -19 -28 -19h-88q-13 0 -18.5 7t-1.5 20l62 180
l-181 465q-4 13 1 20.5t18 7.5h88q20 0 27 -19l111 -296z" />
    <glyph glyph-name="Amacron" unicode="&#x100;" horiz-adv-x="653" 
d="M201 764q-20 0 -20 20v65q0 20 20 20h251q19 0 19 -20v-65q0 -20 -19 -20h-251zM641 27q4 -13 -1.5 -20t-18.5 -7h-100q-21 0 -27 20l-33 106h-269l-34 -106q-5 -20 -26 -20h-101q-13 0 -18.5 7t-0.5 20l222 653q6 20 28 20h129q21 0 27 -20zM233 254h186l-93 293z" />
    <glyph glyph-name="amacron" unicode="&#x101;" horiz-adv-x="509" 
d="M134 572q-20 0 -20 19v66q0 19 20 19h251q19 0 19 -19v-66q0 -19 -19 -19h-251zM259 514q88 0 145.5 -51.5t57.5 -145.5v-293q0 -24 -23 -24h-79q-24 0 -24 24v19q-46 -57 -135 -57q-71 0 -120 41.5t-49 116.5t49 116t120 41q85 0 135 -44v53q0 84 -77 84
q-28 0 -48 -11.5t-26 -31.5q-8 -21 -25 -21h-80q-25 0 -24 25q10 74 66.5 116.5t136.5 42.5zM245 81q42 0 66.5 17.5t24.5 45.5q0 29 -24.5 45.5t-66.5 16.5q-41 0 -62 -17t-21 -45t21 -45.5t62 -17.5z" />
    <glyph glyph-name="Abreve" unicode="&#x102;" horiz-adv-x="653" 
d="M326 747q-36 0 -65.5 8.5t-50.5 24t-33.5 39t-15.5 53.5q-2 20 19 20h76q17 0 22 -19q7 -33 48 -33t49 33q5 19 21 19h76q21 0 20 -18q-6 -61 -48.5 -94t-117.5 -33zM641 27q4 -13 -1.5 -20t-18.5 -7h-100q-21 0 -27 20l-33 106h-269l-34 -106q-5 -20 -26 -20h-101
q-13 0 -18.5 7t-0.5 20l222 653q6 20 28 20h129q21 0 27 -20zM233 254h186l-93 293z" />
    <glyph glyph-name="abreve" unicode="&#x103;" horiz-adv-x="509" 
d="M260 554q-74 0 -116.5 32.5t-49.5 92.5q-1 21 20 21h76q16 0 21 -19q8 -34 48.5 -34t48.5 34q5 19 21 19h77q20 0 19 -18q-6 -61 -48.5 -94.5t-116.5 -33.5zM259 514q88 0 145.5 -51.5t57.5 -145.5v-293q0 -24 -23 -24h-79q-24 0 -24 24v19q-46 -57 -135 -57
q-71 0 -120 41.5t-49 116.5t49 116t120 41q85 0 135 -44v53q0 84 -77 84q-28 0 -48 -11.5t-26 -31.5q-8 -21 -25 -21h-80q-25 0 -24 25q10 74 66.5 116.5t136.5 42.5zM245 81q42 0 66.5 17.5t24.5 45.5q0 29 -24.5 45.5t-66.5 16.5q-41 0 -62 -17t-21 -45t21 -45.5t62 -17.5
z" />
    <glyph glyph-name="Aogonek" unicode="&#x104;" horiz-adv-x="653" 
d="M621 -122q23 2 23 -16v-44q0 -17 -13 -21q-31 -11 -68 -11q-43 0 -69.5 23t-26.5 65q0 52 64 126h-10q-21 0 -27 20l-33 106h-269l-34 -106q-5 -20 -26 -20h-101q-13 0 -18.5 7t-0.5 20l222 653q6 20 28 20h129q21 0 27 -20l223 -653q1 -4 1.5 -8t0.5 -7.5t-1 -7t-2 -5.5
t-3 -5l-3 -4.5t-3.5 -4t-2.5 -3.5q-37 -45 -37 -77q-1 -28 30 -27zM233 254h186l-93 293z" />
    <glyph glyph-name="aogonek" unicode="&#x105;" horiz-adv-x="509" 
d="M462 318l1 -294q0 -1 -1 -2q0 -5 -1 -9.5t-4 -9.5t-5.5 -8t-6 -7.5t-4.5 -5.5q-37 -45 -37 -77q-1 -28 30 -27q22 2 22 -17v-43q0 -17 -12 -21q-31 -11 -68 -11q-43 0 -69.5 22.5t-26.5 65.5q0 54 67 129q-11 6 -11 21v19q-46 -57 -135 -57q-71 0 -120 41.5t-49 116.5
t49 116t120 41q85 0 135 -44v53q0 84 -77 84q-28 0 -48 -11.5t-26 -31.5q-8 -21 -25 -21h-80q-25 0 -24 25q10 74 66.5 116.5t136.5 42.5q88 0 145.5 -51.5t57.5 -144.5zM245 81q42 0 67 17.5t25 45.5q0 29 -25 45.5t-67 16.5q-41 0 -62 -17t-21 -45t21 -45.5t62 -17.5z" />
    <glyph glyph-name="Cacute" unicode="&#x106;" horiz-adv-x="752" 
d="M333 798q-7 -12 -2 -20t18 -8h75q18 0 28 13l78 96q9 11 4.5 20t-18.5 9h-100q-19 0 -28 -16zM397 -14q-104 0 -187.5 48.5t-130.5 131.5t-47 184t47 184t130.5 131.5t187.5 48.5q117 0 209 -66t124 -171q2 -8 0 -14t-7 -9.5t-13 -3.5h-98q-18 0 -27 19
q-15 33 -43.5 58.5t-65.5 39t-79 13.5q-102 0 -164.5 -64t-62.5 -166t62.5 -166t164.5 -64q63 0 114 30t74 81q9 19 27 19h98q12 0 17.5 -7t2.5 -18q-31 -106 -123 -172.5t-210 -66.5z" />
    <glyph glyph-name="cacute" unicode="&#x107;" horiz-adv-x="566" 
d="M232 590q-7 -12 -2.5 -20t18.5 -8h74q18 0 29 14l77 95q9 11 5 20t-19 9h-100q-18 0 -28 -16zM520 182q12 0 18 -7t2 -19q-25 -76 -91.5 -123t-151.5 -47q-75 0 -135.5 35t-95 95.5t-34.5 133.5q0 112 76 188t189 76q85 0 151.5 -47t91.5 -123q4 -12 -2 -19t-18 -7h-90
q-17 0 -28 16q-34 52 -105 52q-58 0 -96.5 -38.5t-38.5 -97.5t38.5 -97.5t96.5 -38.5q22 0 42.5 6t36 17.5t26.5 27.5q10 17 28 17h90z" />
    <glyph glyph-name="Cdotaccent" unicode="&#x10a;" horiz-adv-x="752" 
d="M349 765q-19 0 -19 19v96q0 20 19 20h96q20 0 20 -20v-96q0 -19 -20 -19h-96zM397 -14q-104 0 -187.5 48.5t-130.5 131.5t-47 184t47 184t130.5 131.5t187.5 48.5q117 0 209 -66t124 -171q2 -8 0 -14t-7 -9.5t-13 -3.5h-98q-18 0 -27 19q-15 33 -43.5 58.5t-65.5 39
t-79 13.5q-102 0 -164.5 -64t-62.5 -166t62.5 -166t164.5 -64q63 0 114 30t74 81q9 19 27 19h98q12 0 17.5 -7t2.5 -18q-31 -106 -123 -172.5t-210 -66.5z" />
    <glyph glyph-name="cdotaccent" unicode="&#x10b;" horiz-adv-x="566" 
d="M248 558q-20 0 -20 19v96q0 19 20 19h96q19 0 19 -19v-96q0 -19 -19 -19h-96zM520 182q12 0 18 -7t2 -19q-25 -76 -91.5 -123t-151.5 -47q-75 0 -135.5 35t-95 95.5t-34.5 133.5q0 112 76 188t189 76q85 0 151.5 -47t91.5 -123q4 -12 -2 -19t-18 -7h-90q-17 0 -28 16
q-34 52 -105 52q-58 0 -96.5 -38.5t-38.5 -97.5t38.5 -97.5t96.5 -38.5q22 0 42.5 6t36 17.5t26.5 27.5q10 17 28 17h90z" />
    <glyph glyph-name="Ccaron" unicode="&#x10c;" horiz-adv-x="752" 
d="M319 775l-79 109q-7 10 -3.5 17t15.5 7h82q16 0 24 -13l36 -53l35 53q8 13 24 13h82q12 0 15.5 -7t-2.5 -17l-80 -109q-9 -13 -24 -13h-76h-25q-15 0 -24 13zM710 250q12 0 17.5 -7t2.5 -18q-31 -106 -123 -172.5t-210 -66.5q-104 0 -187.5 48.5t-130.5 131.5t-47 184
t47 184t130.5 131.5t187.5 48.5q117 0 209 -66t124 -171q2 -8 0 -14t-7 -9.5t-13 -3.5h-98q-18 0 -27 19q-15 33 -43.5 58.5t-65.5 39t-79 13.5q-102 0 -164.5 -64t-62.5 -166t62.5 -166t164.5 -64q63 0 114 30t74 81q9 19 27 19h98z" />
    <glyph glyph-name="ccaron" unicode="&#x10d;" horiz-adv-x="566" 
d="M218 567l-80 109q-7 10 -3.5 17t15.5 7h83q15 0 23 -12l36 -53l36 53q8 12 23 12h83q12 0 15.5 -7t-3.5 -17l-80 -109q-9 -12 -23 -12h-76h-26q-14 0 -23 12zM520 182q12 0 18 -7t2 -19q-25 -76 -91.5 -123t-151.5 -47q-75 0 -135.5 35t-95 95.5t-34.5 133.5
q0 112 76 188t189 76q85 0 151.5 -47t91.5 -123q4 -12 -2 -19t-18 -7h-90q-17 0 -28 16q-34 52 -105 52q-58 0 -96.5 -38.5t-38.5 -97.5t38.5 -97.5t96.5 -38.5q22 0 42.5 6t36 17.5t26.5 27.5q10 17 28 17h90z" />
    <glyph glyph-name="Dcaron" unicode="&#x10e;" horiz-adv-x="733" 
d="M257 767l-80 109q-7 10 -3 17t16 7h82q16 0 24 -12l35 -53l36 53q8 12 23 12h83q12 0 15.5 -7t-3.5 -17l-79 -109q-10 -12 -24 -12h-76h-26q-14 0 -23 12zM362 700q145 0 241.5 -101t96.5 -249t-96.5 -249t-241.5 -101h-252h-21q-24 0 -24 24v652q0 24 24 24h113h160z
M362 132q92 0 149 60.5t57 157.5t-57 157.5t-149 60.5h-160v-436h160z" />
    <glyph glyph-name="dcaron" unicode="&#x10f;" horiz-adv-x="735" 
d="M544 700q24 0 24 -24v-652q0 -24 -24 -24h-82q-24 0 -24 24v35q-57 -73 -162 -73q-101 0 -172.5 76.5t-71.5 187.5t71.5 187.5t172.5 76.5q105 0 162 -73v235q0 24 24 24h82zM719 700q25 0 22 -26l-23 -152q-3 -22 -25 -22h-55q-11 0 -17.5 6.5t-6.5 18.5l8 152
q2 23 24 23h73zM300 109q60 0 99 39.5t39 101.5t-39 101.5t-99 39.5t-99 -39.5t-39 -101.5t39 -101.5t99 -39.5z" />
    <glyph glyph-name="Dcroat" unicode="&#x110;" horiz-adv-x="768" 
d="M398 700q144 0 240.5 -101t96.5 -249t-96.5 -249t-240.5 -101h-253h-21q-24 0 -24 24v256h-54q-24 0 -24 24v77q0 23 24 23h54v272q0 24 24 24h114h160zM398 132q91 0 147.5 60.5t56.5 157.5t-56.5 157.5t-147.5 60.5h-160v-164h136q24 0 24 -23v-77q0 -24 -24 -24h-136
v-148h160z" />
    <glyph glyph-name="dcroat" unicode="&#x111;" horiz-adv-x="633" 
d="M606 638q24 0 24 -24v-37q0 -23 -24 -23h-38v-530q0 -24 -24 -24h-82q-24 0 -24 24v35q-57 -73 -162 -73q-101 0 -172.5 76.5t-71.5 187.5t71.5 187.5t172.5 76.5q105 0 162 -73v113h-127q-23 0 -23 23v37q0 24 23 24h127v38q0 24 24 24h82q24 0 24 -24v-38h38zM300 109
q60 0 99 39.5t39 101.5t-39 101.5t-99 39.5t-99 -39.5t-39 -101.5t39 -101.5t99 -39.5z" />
    <glyph glyph-name="Emacron" unicode="&#x112;" horiz-adv-x="513" 
d="M145 764q-19 0 -19 20v65q0 20 19 20h251q20 0 20 -20v-65q0 -20 -20 -20h-251zM456 132q24 0 24 -24v-84q0 -24 -24 -24h-346h-21q-24 0 -24 24v652q0 24 24 24h113h249q24 0 24 -24v-84q0 -24 -24 -24h-249v-150h224q24 0 24 -24v-81q0 -24 -24 -24h-224v-157h254z" />
    <glyph glyph-name="emacron" unicode="&#x113;" horiz-adv-x="576" 
d="M173 568q-19 0 -19 20v65q0 19 19 19h251q20 0 20 -19v-65q0 -20 -20 -20h-251zM298 514q43 0 82 -13.5t69.5 -37.5t52.5 -56.5t33.5 -73t11.5 -83.5q0 -11 -1 -31q-3 -22 -26 -22h-103h-250q12 -52 48.5 -78t86.5 -26q58 0 92 37q14 13 29 13l80 1q13 0 19 -7.5t0 -18.5
q-18 -42 -51 -71.5t-76.5 -45t-94.5 -15.5q-79 0 -140.5 35t-94.5 94.5t-33 134.5q0 113 74.5 188.5t191.5 75.5zM166 298h252q-10 51 -43.5 75.5t-77.5 24.5q-51 0 -85 -26.5t-46 -73.5z" />
    <glyph glyph-name="Edotaccent" unicode="&#x116;" horiz-adv-x="513" 
d="M222 758q-19 0 -19 19v96q0 19 19 19h96q20 0 20 -19v-96q0 -19 -20 -19h-96zM456 132q24 0 24 -24v-84q0 -24 -24 -24h-346h-21q-24 0 -24 24v652q0 24 24 24h113h249q24 0 24 -24v-84q0 -24 -24 -24h-249v-150h224q24 0 24 -24v-81q0 -24 -24 -24h-224v-157h254z" />
    <glyph glyph-name="edotaccent" unicode="&#x117;" horiz-adv-x="576" 
d="M251 561q-20 0 -20 20v96q0 19 20 19h96q19 0 19 -19v-96q0 -20 -19 -20h-96zM298 514q43 0 82 -13.5t69.5 -37.5t52.5 -56.5t33.5 -73t11.5 -83.5q0 -11 -1 -31q-3 -22 -26 -22h-103h-250q12 -52 48.5 -78t86.5 -26q58 0 92 37q14 13 29 13l80 1q13 0 19 -7.5t0 -18.5
q-18 -42 -51 -71.5t-76.5 -45t-94.5 -15.5q-79 0 -140.5 35t-94.5 94.5t-33 134.5q0 113 74.5 188.5t191.5 75.5zM166 298h252q-10 51 -43.5 75.5t-77.5 24.5q-51 0 -85 -26.5t-46 -73.5z" />
    <glyph glyph-name="Eogonek" unicode="&#x118;" horiz-adv-x="513" 
d="M399 -214q-43 0 -69 23t-26 65q0 58 66 126h-281q-24 0 -24 24v652q0 24 24 24h362q24 0 24 -24v-84q0 -24 -24 -24h-249v-150h224q24 0 24 -24v-81q0 -24 -24 -24h-224v-157h254q24 0 24 -24v-91q0 -15 -12 -30q-41 -48 -41 -82q-1 -28 30 -27q23 2 23 -17v-42
q0 -18 -14 -22q-31 -11 -67 -11z" />
    <glyph glyph-name="eogonek" unicode="&#x119;" horiz-adv-x="576" 
d="M298 514q109 0 179 -76t70 -188q0 -11 -1 -31q-3 -22 -26 -22h-103h-250q12 -52 48.5 -78t86.5 -26q58 0 92 37q14 13 29 13l80 1q13 0 19 -7.5t0 -18.5q-18 -41 -50 -71q-82 -88 -82 -142q-1 -28 30 -27q13 1 18 -3.5t5 -17.5v-35q0 -20 -16 -26q-30 -10 -65 -10
q-42 0 -68.5 23t-26.5 65q0 58 64 114q-15 -2 -31 -2q-79 0 -140.5 35t-94.5 94.5t-33 134.5q0 113 74.5 188.5t191.5 75.5zM166 298h252q-7 34 -26 57.5t-43 33t-52 9.5q-51 0 -85 -26.5t-46 -73.5z" />
    <glyph glyph-name="Ecaron" unicode="&#x11a;" horiz-adv-x="513" 
d="M192 767l-79 109q-7 10 -3.5 17t15.5 7h83q15 0 23 -12l36 -53l35 53q8 12 24 12h82q12 0 16 -7t-3 -17l-80 -109q-9 -12 -23 -12h-76h-26q-14 0 -24 12zM456 132q24 0 24 -24v-84q0 -24 -24 -24h-346h-21q-24 0 -24 24v652q0 24 24 24h113h249q24 0 24 -24v-84
q0 -24 -24 -24h-249v-150h224q24 0 24 -24v-81q0 -24 -24 -24h-224v-157h254z" />
    <glyph glyph-name="ecaron" unicode="&#x11b;" horiz-adv-x="576" 
d="M221 571l-80 109q-7 10 -3.5 17t15.5 7h83q15 0 23 -13l36 -53l36 53q8 13 23 13h83q12 0 15.5 -7t-3.5 -17l-80 -109q-9 -12 -23 -12h-76h-26q-14 0 -23 12zM298 514q43 0 82 -13.5t69.5 -37.5t52.5 -56.5t33.5 -73t11.5 -83.5q0 -11 -1 -31q-3 -22 -26 -22h-103h-250
q12 -52 48.5 -78t86.5 -26q58 0 92 37q14 13 29 13l80 1q13 0 19 -7.5t0 -18.5q-18 -42 -51 -71.5t-76.5 -45t-94.5 -15.5q-79 0 -140.5 35t-94.5 94.5t-33 134.5q0 113 74.5 188.5t191.5 75.5zM166 298h252q-10 51 -43.5 75.5t-77.5 24.5q-51 0 -85 -26.5t-46 -73.5z" />
    <glyph glyph-name="Gbreve" unicode="&#x11e;" horiz-adv-x="785" 
d="M394 754q-74 0 -116.5 32.5t-49.5 92.5q-1 21 20 21h76q16 0 21 -19q8 -34 48.5 -34t48.5 34q5 19 21 19h77q20 0 19 -18q-6 -61 -48.5 -94.5t-116.5 -33.5zM712 376q23 0 23 -24v-98v-230q0 -24 -23 -24h-83q-24 0 -24 24v65q-74 -103 -224 -103q-98 0 -178 48
t-125.5 131.5t-45.5 184.5t46.5 184t130.5 131.5t187 48.5q115 0 207 -63t124 -159q5 -12 -1 -19.5t-18 -7.5h-98q-18 0 -28 17q-24 43 -74.5 70.5t-111.5 27.5q-67 0 -118.5 -29.5t-79.5 -81.5t-28 -119q0 -106 63.5 -171.5t162.5 -65.5q74 0 130 35.5t72 105.5h-172
q-23 0 -23 24v74q0 24 23 24h286z" />
    <glyph glyph-name="gbreve" unicode="&#x11f;" horiz-adv-x="626" 
d="M297 554q-74 0 -116.5 32.5t-48.5 92.5q-2 21 19 21h76q16 0 21 -19q8 -34 49 -34t49 34q4 19 20 19h77q21 0 19 -18q-5 -61 -48 -94.5t-117 -33.5zM544 500q24 0 24 -24v-452q0 -40 -10.5 -74.5t-28.5 -60t-42.5 -45.5t-53 -32.5t-59 -19t-62.5 -6.5q-95 0 -166.5 47
t-81.5 129q-2 24 23 24h83q18 0 25 -21q9 -27 39.5 -45t77.5 -18q61 0 95.5 31.5t34.5 90.5v53q-58 -75 -166 -75q-100 0 -172 75t-72 180.5t72 181t172 75.5q108 0 166 -76v38q0 24 23 24h79zM301.5 121q60.5 0 100.5 38.5t40 98t-40 98t-100 38.5q-41 0 -72.5 -17.5
t-49.5 -48.5t-18 -70q0 -60 39.5 -98.5t100 -38.5z" />
    <glyph glyph-name="Gdotaccent" unicode="&#x120;" horiz-adv-x="785" 
d="M346 765q-20 0 -20 19v96q0 20 20 20h96q19 0 19 -20v-96q0 -19 -19 -19h-96zM712 376q23 0 23 -24v-98v-230q0 -24 -23 -24h-83q-24 0 -24 24v65q-74 -103 -224 -103q-98 0 -178 48t-125.5 131.5t-45.5 184.5t46.5 184t130.5 131.5t187 48.5q115 0 207 -63t124 -159
q5 -12 -1 -19.5t-18 -7.5h-98q-18 0 -28 17q-24 43 -74.5 70.5t-111.5 27.5q-67 0 -118.5 -29.5t-79.5 -81.5t-28 -119q0 -106 63.5 -171.5t162.5 -65.5q74 0 130 35.5t72 105.5h-172q-23 0 -23 24v74q0 24 23 24h286z" />
    <glyph glyph-name="gdotaccent" unicode="&#x121;" horiz-adv-x="626" 
d="M249 565q-20 0 -20 19v96q0 20 20 20h96q19 0 19 -20v-96q0 -19 -19 -19h-96zM544 500q24 0 24 -24v-452q0 -40 -10.5 -74.5t-28.5 -60t-42.5 -45.5t-53 -32.5t-59 -19t-62.5 -6.5q-95 0 -166.5 47t-81.5 129q-2 24 23 24h83q18 0 25 -21q9 -27 39.5 -45t77.5 -18
q61 0 95.5 31.5t34.5 90.5v53q-58 -75 -166 -75q-100 0 -172 75t-72 180.5t72 181t172 75.5q108 0 166 -76v38q0 24 23 24h79zM301.5 121q60.5 0 100.5 38.5t40 98t-40 98t-100 38.5q-41 0 -72.5 -17.5t-49.5 -48.5t-18 -70q0 -60 39.5 -98.5t100 -38.5z" />
    <glyph glyph-name="Gcommaaccent" unicode="&#x122;" horiz-adv-x="785" 
d="M712 376q23 0 23 -24v-98v-230q0 -24 -23 -24h-83q-24 0 -24 24v65q-74 -103 -224 -103q-98 0 -178 48t-125.5 131.5t-45.5 184.5t46.5 184t130.5 131.5t187 48.5q115 0 207 -63t124 -159q5 -12 -1 -19.5t-18 -7.5h-98q-18 0 -28 17q-24 43 -74.5 70.5t-111.5 27.5
q-67 0 -118.5 -29.5t-79.5 -81.5t-28 -119q0 -106 63.5 -171.5t162.5 -65.5q74 0 130 35.5t72 105.5h-172q-23 0 -23 24v74q0 24 23 24h286zM448 -62q9 0 14.5 -5.5t3.5 -15.5l-24 -162q-3 -17 -21 -17h-63q-21 0 -19 19l8 161q1 20 20 20h81z" />
    <glyph glyph-name="gcommaaccent" unicode="&#x123;" horiz-adv-x="626" 
d="M251 582q-10 0 -15 5.5t-4 15.5l24 162q3 17 22 17h63q20 0 19 -19l-8 -161q-2 -20 -20 -20h-81zM544 500q24 0 24 -24v-452q0 -40 -10.5 -74.5t-28.5 -60t-42.5 -45.5t-53 -32.5t-59 -19t-62.5 -6.5q-95 0 -166.5 47t-81.5 129q-2 24 23 24h83q18 0 25 -21
q9 -27 39.5 -45t77.5 -18q61 0 95.5 31.5t34.5 90.5v53q-58 -75 -166 -75q-100 0 -172 75t-72 180.5t72 181t172 75.5q108 0 166 -76v38q0 24 23 24h79zM301.5 121q60.5 0 100.5 38.5t40 98t-40 98t-100 38.5q-41 0 -72.5 -17.5t-49.5 -48.5t-18 -70q0 -60 39.5 -98.5
t100 -38.5z" />
    <glyph glyph-name="Hbar" unicode="&#x126;" horiz-adv-x="680" 
d="M631 602q24 0 24 -24v-54q0 -23 -24 -23h-37v-477q0 -24 -24 -24h-90q-24 0 -24 24v248h-232v-248q0 -24 -24 -24h-90q-24 0 -24 24v477h-37q-24 0 -24 23v54q0 24 24 24h37v74q0 24 24 24h90q24 0 24 -24v-74h232v74q0 24 24 24h90q24 0 24 -24v-74h37zM456 404v97h-232
v-97h232z" />
    <glyph glyph-name="hbar" unicode="&#x127;" horiz-adv-x="539" 
d="M330 514q72 0 117 -52.5t45 -141.5v-296q0 -24 -23 -24h-82q-24 0 -24 24v286q0 41 -21.5 62.5t-57.5 21.5q-41 0 -65.5 -25.5t-24.5 -78.5v-266q0 -24 -24 -24h-81q-24 0 -24 24v530h-39q-24 0 -24 23v37q0 24 24 24h39v38q0 24 24 24h81q24 0 24 -24v-38h117
q24 0 24 -24v-37q0 -23 -24 -23h-117v-105q43 65 136 65z" />
    <glyph glyph-name="Imacron" unicode="&#x12a;" horiz-adv-x="268" 
d="M8 764q-19 0 -19 20v65q0 20 19 20h251q20 0 20 -20v-65q0 -20 -20 -20h-251zM65 676q0 24 24 24h90q23 0 23 -24v-652q0 -24 -23 -24h-90q-24 0 -24 24v652z" />
    <glyph glyph-name="imacron" unicode="&#x12b;" horiz-adv-x="247" 
d="M32 564q-24 0 -24 24v64q0 24 24 24h182q24 0 24 -24v-64q0 -24 -24 -24h-182zM82 0q-23 0 -23 24v452q0 24 23 24h82q24 0 24 -24v-452q0 -24 -24 -24h-82z" />
    <glyph glyph-name="Iogonek" unicode="&#x12e;" horiz-adv-x="268" 
d="M199 -122q9 1 14 -1t7 -6.5t2 -13.5v-35q0 -20 -17 -26q-30 -10 -64 -10q-43 0 -69.5 23t-26.5 65q0 55 46 126h-2q-24 0 -24 24v652q0 24 24 24h90q23 0 23 -24v-652v0q0 -20 -14 -53q-19 -44 -19 -66q0 -28 30 -27z" />
    <glyph glyph-name="iogonek" unicode="&#x12f;" horiz-adv-x="247" 
d="M82 570q-23 0 -23 24v82q0 24 23 24h82q24 0 24 -24v-82q0 -24 -24 -24h-82zM184 -122q13 1 17.5 -3.5t4.5 -17.5v-35q0 -20 -16 -26q-31 -10 -64 -10q-43 0 -69.5 22.5t-26.5 65.5q0 55 46 127q-17 3 -17 23v452q0 24 23 24h82q24 0 24 -24v-452v0q0 -9 -2 -18t-4 -13
t-7 -15.5t-6 -13.5q-15 -34 -15 -59q0 -28 30 -27z" />
    <glyph glyph-name="Idotaccent" unicode="&#x130;" horiz-adv-x="268" 
d="M86 758q-20 0 -20 19v96q0 19 20 19h96q19 0 19 -19v-96q0 -19 -19 -19h-96zM65 676q0 24 24 24h90q23 0 23 -24v-652q0 -24 -23 -24h-90q-24 0 -24 24v652z" />
    <glyph glyph-name="dotlessi" unicode="&#x131;" horiz-adv-x="247" 
d="M82 0q-23 0 -23 24v452q0 24 23 24h82q24 0 24 -24v-452q0 -24 -24 -24h-82z" />
    <glyph glyph-name="Kcommaaccent" unicode="&#x136;" horiz-adv-x="615" 
d="M590 29q9 -12 4.5 -20.5t-18.5 -8.5h-106q-18 0 -28 14l-240 315v-305q0 -24 -23 -24h-90q-24 0 -24 24v652q0 24 24 24h90q23 0 23 -24v-285l230 295q11 14 28 14h106q14 0 18.5 -8.5t-4.5 -20.5l-237 -312zM352 -62q10 0 15 -5.5t4 -15.5l-24 -162q-3 -17 -21 -17h-64
q-20 0 -18 19l8 161q1 20 20 20h80z" />
    <glyph glyph-name="kcommaaccent" unicode="&#x137;" horiz-adv-x="517" 
d="M489 29q9 -12 5 -20.5t-18 -8.5h-96q-18 0 -28 14l-164 212v-202q0 -24 -24 -24h-82q-23 0 -23 24v652q0 24 23 24h82q24 0 24 -24v-396l154 206q10 14 28 14h96q15 0 19 -8.5t-5 -20.5l-168 -219zM326 -62q9 0 14 -5.5t4 -15.5l-24 -162q-3 -17 -22 -17h-63
q-20 0 -19 19l8 161q2 20 21 20h81z" />
    <glyph glyph-name="Lacute" unicode="&#x139;" horiz-adv-x="475" 
d="M99 762q-14 0 -18.5 8t2.5 20l55 94q9 16 28 16h99q15 0 19 -9t-5 -20l-77 -95q-10 -14 -29 -14h-74zM439 132q23 0 23 -24v-84q0 -24 -23 -24h-304h-46q-24 0 -24 24v652q0 24 24 24h90q23 0 23 -24v-544h237z" />
    <glyph glyph-name="lacute" unicode="&#x13a;" horiz-adv-x="247" 
d="M72 790q-6 -12 -1.5 -20t17.5 -8h75q18 0 29 14l77 95q9 11 4.5 20t-18.5 9h-100q-19 0 -28 -16zM82 0q-23 0 -23 24v672q0 24 23 24h82q24 0 24 -24v-672q0 -24 -24 -24h-82z" />
    <glyph glyph-name="Lcommaaccent" unicode="&#x13b;" horiz-adv-x="475" 
d="M439 132q23 0 23 -24v-84q0 -24 -23 -24h-304h-46q-24 0 -24 24v652q0 24 24 24h90q23 0 23 -24v-544h237zM319 -62q10 0 15 -5.5t4 -15.5l-24 -162q-3 -17 -22 -17h-63q-20 0 -19 19l8 161q2 20 20 20h81z" />
    <glyph glyph-name="lcommaaccent" unicode="&#x13c;" horiz-adv-x="247" 
d="M82 0q-23 0 -23 24v672q0 24 23 24h82q24 0 24 -24v-672q0 -24 -24 -24h-82zM138 -262q19 0 22 17l24 162q1 10 -4 15.5t-15 5.5h-81q-18 0 -20 -20l-8 -161q-1 -19 19 -19h63z" />
    <glyph glyph-name="Lcaron" unicode="&#x13d;" horiz-adv-x="475" 
d="M439 132q23 0 23 -24v-84q0 -24 -23 -24h-304h-46q-24 0 -24 24v652q0 24 24 24h90q23 0 23 -24v-544h237zM292 515q-12 0 -18 6.5t-6 18.5l8 137q2 23 24 23h80q13 0 18.5 -7t3.5 -19l-22 -137q-3 -22 -26 -22h-62z" />
    <glyph glyph-name="lcaron" unicode="&#x13e;" horiz-adv-x="354" 
d="M82 0q-23 0 -23 24v672q0 24 23 24h82q24 0 24 -24v-672q0 -24 -24 -24h-82zM312 520q22 0 25 22l23 152q3 26 -22 26h-73q-22 0 -24 -23l-8 -152q0 -8 2.5 -13.5t8 -8.5t13.5 -3h55z" />
    <glyph glyph-name="Lslash" unicode="&#x141;" horiz-adv-x="495" 
d="M459 132q23 0 23 -24v-84q0 -24 -23 -24h-304h-46q-24 0 -24 24v185l-24 -15q-12 -8 -20.5 -4t-8.5 19v85q0 19 16 29l37 24v329q0 24 24 24h90q23 0 23 -24v-239l112 73q12 8 20 3.5t8 -18.5v-86q0 -18 -15 -29l-125 -81v-167h237z" />
    <glyph glyph-name="lslash" unicode="&#x142;" horiz-adv-x="263" 
d="M222 470q12 8 20 3.5t8 -18.5v-70q0 -19 -15 -29l-39 -26v-306q0 -24 -24 -24h-82q-23 0 -23 24v218l-26 -18q-12 -8 -20.5 -3.5t-8.5 19.5v70q0 18 16 28l39 27v331q0 24 23 24h82q24 0 24 -24v-244z" />
    <glyph glyph-name="Nacute" unicode="&#x143;" horiz-adv-x="645" 
d="M258 790q-6 -12 -1.5 -20t17.5 -8h75q18 0 29 14l77 95q9 11 4.5 20t-18.5 9h-100q-19 0 -28 -16zM442 676q0 24 24 24h90q24 0 24 -24v-652q0 -24 -24 -24h-62q-20 0 -29 15l-263 417v-408q0 -24 -23 -24h-90q-24 0 -24 24v652q0 24 24 24h62q20 0 29 -15l262 -417v408z
" />
    <glyph glyph-name="nacute" unicode="&#x144;" 
d="M221 570q-13 0 -17.5 8t2.5 20l54 94q9 16 28 16h100q14 0 18.5 -9t-4.5 -20l-78 -96q-10 -13 -28 -13h-75zM324 514q71 0 116.5 -52.5t45.5 -141.5v-296q0 -24 -24 -24h-81q-24 0 -24 24v286q0 41 -21.5 62.5t-57.5 21.5q-41 0 -65.5 -25.5t-24.5 -78.5v-266
q0 -24 -24 -24h-82q-23 0 -23 24v452q0 24 23 24h82q24 0 24 -24v-27q43 65 136 65z" />
    <glyph glyph-name="Ncommaaccent" unicode="&#x145;" horiz-adv-x="645" 
d="M442 676q0 24 24 24h90q24 0 24 -24v-652q0 -24 -24 -24h-62q-20 0 -29 15l-263 417v-408q0 -24 -23 -24h-90q-24 0 -24 24v652q0 24 24 24h62q20 0 29 -15l262 -417v408zM341 -262q19 0 21 17l24 162q2 10 -3 15.5t-15 5.5h-81q-18 0 -20 -20l-8 -161q-1 -19 19 -19h63z
" />
    <glyph glyph-name="ncommaaccent" unicode="&#x146;" 
d="M324 514q71 0 116.5 -52.5t45.5 -141.5v-296q0 -24 -24 -24h-81q-24 0 -24 24v286q0 41 -21.5 62.5t-57.5 21.5q-41 0 -65.5 -25.5t-24.5 -78.5v-266q0 -24 -24 -24h-82q-23 0 -23 24v452q0 24 23 24h82q24 0 24 -24v-27q43 65 136 65zM321 -62q10 0 15 -5.5t3 -15.5
l-24 -162q-2 -17 -21 -17h-63q-20 0 -19 19l8 161q2 20 20 20h81z" />
    <glyph glyph-name="Ncaron" unicode="&#x147;" horiz-adv-x="645" 
d="M244 767l-79 109q-7 10 -3.5 17t15.5 7h83q15 0 23 -12l36 -53l35 53q8 12 24 12h82q12 0 16 -7t-3 -17l-80 -109q-9 -12 -23 -12h-76h-26q-14 0 -24 12zM556 700q24 0 24 -24v-652q0 -24 -24 -24h-62q-20 0 -29 15l-263 417v-408q0 -24 -23 -24h-90q-24 0 -24 24v652
q0 24 24 24h62q20 0 29 -15l262 -417v408q0 24 24 24h90z" />
    <glyph glyph-name="ncaron" unicode="&#x148;" 
d="M192 575l-80 109q-7 10 -3.5 17t15.5 7h82q16 0 24 -13l36 -53l36 53q7 13 23 13h83q11 0 15 -7t-3 -17l-80 -109q-9 -13 -24 -13h-75h-26q-14 0 -23 13zM324 514q71 0 116.5 -52.5t45.5 -141.5v-296q0 -24 -24 -24h-81q-24 0 -24 24v286q0 41 -21.5 62.5t-57.5 21.5
q-41 0 -65.5 -25.5t-24.5 -78.5v-266q0 -24 -24 -24h-82q-23 0 -23 24v452q0 24 23 24h82q24 0 24 -24v-27q43 65 136 65z" />
    <glyph glyph-name="Eng" unicode="&#x14a;" horiz-adv-x="645" 
d="M556 700q24 0 24 -24v-652v-24q0 -189 -208 -199q-24 -2 -24 23v75q0 21 23 25q71 8 71 76v51l-240 381v-408q0 -24 -23 -24h-90q-24 0 -24 24v652q0 24 24 24h62q20 0 29 -15l262 -417v408q0 24 24 24h90z" />
    <glyph glyph-name="eng" unicode="&#x14b;" 
d="M324 514q71 0 116.5 -52.5t45.5 -141.5v-330q0 -64 -20 -109.5t-62 -70t-104 -24.5q-24 0 -24 24v76q0 22 24 24q57 5 57 80v320q0 41 -21.5 62.5t-57.5 21.5q-41 0 -65.5 -25.5t-24.5 -78.5v-266q0 -24 -24 -24h-82q-23 0 -23 24v452q0 24 23 24h82q24 0 24 -24v-27
q43 65 136 65z" />
    <glyph glyph-name="Omacron" unicode="&#x14c;" horiz-adv-x="792" 
d="M270 772q-19 0 -19 19v66q0 19 19 19h252q19 0 19 -19v-66q0 -19 -19 -19h-252zM396 -14q-99 0 -183 48t-132.5 132t-48.5 184t48.5 184t132.5 132t183 48t183 -48t132.5 -132t48.5 -184t-48.5 -184t-132.5 -132t-183 -48zM396 120q38 0 72.5 11t62 31.5t48.5 48.5
t32 63.5t11 75.5q0 100 -65 165t-161 65t-161 -65t-65 -165t65 -165t161 -65z" />
    <glyph glyph-name="omacron" unicode="&#x14d;" horiz-adv-x="594" 
d="M172 572q-20 0 -20 19v66q0 19 20 19h250q20 0 20 -19v-66q0 -19 -20 -19h-250zM297 -14q-111 0 -188 76.5t-77 187.5t77 187.5t188 76.5t188 -76.5t77 -187.5t-77 -187.5t-188 -76.5zM297 112q58 0 96.5 39t38.5 99t-38.5 99t-96.5 39t-96.5 -39t-38.5 -99t38.5 -99
t96.5 -39z" />
    <glyph glyph-name="Ohungarumlaut" unicode="&#x150;" horiz-adv-x="792" 
d="M247 790q-7 -12 -2.5 -20t17.5 -8h78q18 0 28 16l57 94q7 12 3 20t-18 8h-83q-18 0 -28 -16zM422 790q-8 -11 -3.5 -19.5t18.5 -8.5h77q19 0 28 16l64 94q8 12 3.5 20t-18.5 8h-82q-18 0 -27 -15zM396 -14q-99 0 -183 48t-132.5 132t-48.5 184t48.5 184t132.5 132t183 48
t183 -48t132.5 -132t48.5 -184t-48.5 -184t-132.5 -132t-183 -48zM396 120q38 0 72.5 11t62 31.5t48.5 48.5t32 63.5t11 75.5q0 100 -65 165t-161 65t-161 -65t-65 -165t65 -165t161 -65z" />
    <glyph glyph-name="ohungarumlaut" unicode="&#x151;" horiz-adv-x="594" 
d="M148 590q-7 -12 -2.5 -20t18.5 -8h78q17 0 27 16l57 94q7 12 3 20t-18 8h-83q-18 0 -28 -16zM322 590q-7 -11 -2.5 -19.5t18.5 -8.5h77q19 0 28 16l64 94q8 12 3.5 20t-18.5 8h-82q-18 0 -28 -15zM297 -14q-111 0 -188 76.5t-77 187.5t77 187.5t188 76.5t188 -76.5
t77 -187.5t-77 -187.5t-188 -76.5zM297 112q58 0 96.5 39t38.5 99t-38.5 99t-96.5 39t-96.5 -39t-38.5 -99t38.5 -99t96.5 -39z" />
    <glyph glyph-name="OE" unicode="&#x152;" horiz-adv-x="916" 
d="M860 132q23 0 23 -24v-84q0 -24 -23 -24h-329h-45q-48 -14 -100 -14q-99 0 -180.5 48t-127.5 131.5t-46 184.5t46 184.5t127.5 131.5t180.5 48q52 0 100 -14h137h231q24 0 24 -24v-84q0 -24 -24 -24h-231v-150h209q24 0 24 -24v-81q0 -24 -24 -24h-209v-157h237zM486 136
v428q-42 16 -100 16q-47 0 -87 -17.5t-68.5 -47.5t-44.5 -72.5t-16 -92.5q0 -66 27.5 -118.5t76.5 -82t112 -29.5q58 0 100 16z" />
    <glyph glyph-name="oe" unicode="&#x153;" horiz-adv-x="976" 
d="M701 514q54 0 100.5 -21t78 -56.5t49.5 -84t18 -102.5q0 -11 -1 -31q-3 -22 -26 -22h-103h-250q12 -52 48.5 -78t86.5 -26q58 0 92 37q14 13 29 13l80 1q13 0 19 -7.5t0 -18.5q-28 -63 -85 -97.5t-133 -34.5q-145 0 -209 110q-32 -51 -84 -80.5t-118 -29.5
q-111 0 -185.5 76t-74.5 188t74.5 188t185.5 76q66 0 118.5 -29.5t84.5 -81.5q30 52 82.5 81.5t122.5 29.5zM566 298h252q-10 51 -43.5 75.5t-77.5 24.5q-51 0 -85 -26.5t-46 -73.5zM297 112q58 0 97 39t39 99t-39 99t-97 39q-59 0 -97 -39t-38 -99t38 -99t97 -39z" />
    <glyph glyph-name="Racute" unicode="&#x154;" horiz-adv-x="630" 
d="M232 762q-14 0 -18.5 8t2.5 20l55 94q9 16 27 16h100q15 0 19 -9t-5 -20l-77 -95q-10 -14 -29 -14h-74zM624 30q9 -12 5 -21t-19 -9h-106q-19 0 -29 14l-187 229h-85v-219q0 -24 -24 -24h-90q-24 0 -24 24v652q0 24 24 24h114h127q97 0 165 -68t68 -164q0 -65 -36 -119.5
t-95 -82.5zM203 571v-207h127q39 0 67 30t28 73.5t-28 73.5t-67 30h-127z" />
    <glyph glyph-name="racute" unicode="&#x155;" horiz-adv-x="337" 
d="M312 700q14 0 18.5 -9t-4.5 -20l-78 -95q-10 -14 -28 -14h-75q-13 0 -18 8t2 20l55 94q9 16 28 16h100zM300 508q12 2 18.5 -4.5t6.5 -18.5v-95q0 -22 -19 -22q-50 0 -84 -29.5t-34 -92.5v-222q0 -24 -24 -24h-82q-23 0 -23 24v452q0 24 23 24h82q24 0 24 -24v-52
q31 73 112 84z" />
    <glyph glyph-name="Rcommaaccent" unicode="&#x156;" horiz-adv-x="630" 
d="M624 30q9 -12 5 -21t-19 -9h-106q-19 0 -29 14l-187 229h-85v-219q0 -24 -24 -24h-90q-24 0 -24 24v652q0 24 24 24h114h127q97 0 165 -68t68 -164q0 -65 -36 -119.5t-95 -82.5zM203 571v-207h127q39 0 67 30t28 73.5t-28 73.5t-67 30h-127zM396 -62q9 0 14 -5.5t4 -15.5
l-24 -162q-3 -17 -21 -17h-64q-20 0 -18 19l8 161q1 20 20 20h81z" />
    <glyph glyph-name="rcommaaccent" unicode="&#x157;" horiz-adv-x="337" 
d="M300 508q12 2 18.5 -4.5t6.5 -18.5v-95q0 -22 -19 -22q-50 0 -84 -29.5t-34 -92.5v-222q0 -24 -24 -24h-82q-23 0 -23 24v452q0 24 23 24h82q24 0 24 -24v-52q31 73 112 84zM166 -62q9 0 14.5 -5.5t3.5 -15.5l-24 -162q-3 -17 -21 -17h-63q-21 0 -19 19l8 161q1 20 20 20
h81z" />
    <glyph glyph-name="Rcaron" unicode="&#x158;" horiz-adv-x="630" 
d="M202 767l-80 109q-7 10 -3 17t15 7h83q16 0 23 -12l36 -53l36 53q8 12 24 12h82q12 0 15.5 -7t-3.5 -17l-80 -109q-9 -12 -23 -12h-76h-25q-15 0 -24 12zM624 30q9 -12 5 -21t-19 -9h-106q-19 0 -29 14l-187 229h-85v-219q0 -24 -24 -24h-90q-24 0 -24 24v652q0 24 24 24
h114h127q97 0 165 -68t68 -164q0 -65 -36 -119.5t-95 -82.5zM203 571v-207h127q39 0 67 30t28 73.5t-28 73.5t-67 30h-127z" />
    <glyph glyph-name="rcaron" unicode="&#x159;" horiz-adv-x="337" 
d="M331 700q12 0 15.5 -7t-2.5 -17l-80 -109q-9 -12 -24 -12h-76h-25q-15 0 -24 12l-79 109q-7 10 -3.5 17t15.5 7h82q16 0 24 -12l36 -53l35 53q8 12 24 12h82zM300 508q12 2 18.5 -4.5t6.5 -18.5v-95q0 -22 -19 -22q-50 0 -84 -29.5t-34 -92.5v-222q0 -24 -24 -24h-82
q-23 0 -23 24v452q0 24 23 24h82q24 0 24 -24v-52q31 73 112 84z" />
    <glyph glyph-name="Sacute" unicode="&#x15a;" horiz-adv-x="546" 
d="M207 798q-7 -12 -2.5 -20t18.5 -8h74q19 0 29 13l77 96q9 11 5 20t-19 9h-99q-19 0 -28 -16zM280 -14q-103 0 -174.5 52.5t-79.5 152.5q-2 25 24 25h90q20 0 24 -23q13 -73 116 -73q51 0 77.5 19.5t26.5 51.5q0 11 -3.5 20t-9 16.5t-15 14.5t-18.5 12.5t-23.5 11.5
t-25.5 10t-28 10q-2 1 -7 3q-28 10 -43.5 15.5t-42 17.5t-41.5 22.5t-34.5 28t-30 36.5t-17.5 45t-7 56q0 49 19 88.5t51 64t72.5 38t84.5 13.5q93 0 160 -51.5t75 -149.5q2 -25 -23 -25h-91q-20 0 -24 23q-12 69 -97 69q-28 0 -48.5 -9t-31 -25t-10.5 -36q0 -35 28 -56
t85 -42q6 -2 19 -7q29 -10 43.5 -15.5t41 -17.5t41.5 -22t34 -27t29.5 -35t17.5 -43t7 -54q0 -96 -69 -150.5t-172 -54.5z" />
    <glyph glyph-name="sacute" unicode="&#x15b;" horiz-adv-x="480" 
d="M189 570q-13 0 -17.5 8t2.5 20l54 94q9 16 28 16h100q14 0 18.5 -9t-4.5 -20l-78 -96q-10 -13 -28 -13h-75zM173 355q0 -20 20 -32.5t49.5 -17.5t64.5 -15t65 -23.5t50 -44.5t20 -77q0 -76 -57.5 -117.5t-144.5 -41.5q-81 0 -136.5 38t-64.5 110q-2 25 23 25h80
q16 0 26 -20q12 -39 72 -39q73 0 73 45q0 17 -15 28.5t-38.5 17.5t-52.5 12t-57.5 16t-52.5 25t-38.5 43.5t-14.5 67.5q0 75 56.5 117t139.5 42q74 0 128 -38.5t62 -109.5q3 -25 -23 -25h-80q-10 0 -15 5t-10 16q-11 38 -62 38q-31 0 -49 -12t-18 -33z" />
    <glyph glyph-name="Scedilla" unicode="&#x15e;" horiz-adv-x="546" 
d="M521 191q0 -82 -51.5 -134t-133.5 -66v-37q29 -6 49.5 -26t20.5 -52q0 -101 -199 -93q-21 1 -21 20v52q0 19 22 19q86 -4 86 21q0 17 -44 23q-19 3 -19 21v51q-85 11 -141.5 62t-63.5 139q-2 25 24 25h90q20 0 24 -23q13 -73 116 -73q51 0 77.5 19.5t26.5 51.5
q0 11 -3.5 20t-9 16.5t-15 14.5t-18.5 12.5t-23.5 11.5t-25.5 10t-28 10q-2 1 -7 3q-28 10 -43.5 15.5t-42 17.5t-41.5 22.5t-34.5 28t-30 36.5t-17.5 45t-7 56q0 49 19 88.5t51 64t72.5 38t84.5 13.5q93 0 160 -51.5t75 -149.5q2 -25 -23 -25h-91q-20 0 -24 23
q-12 69 -97 69q-28 0 -48.5 -9t-31 -25t-10.5 -36q0 -35 28 -56t85 -42q6 -2 19 -7q29 -10 43.5 -15.5t41 -17.5t41.5 -22t34 -27t29.5 -35t17.5 -43t7 -54z" />
    <glyph glyph-name="scedilla" unicode="&#x15f;" horiz-adv-x="480" 
d="M442 145q0 -41 -18.5 -73.5t-49 -51.5t-72.5 -27v-39q30 -6 50.5 -26t20.5 -52q0 -101 -200 -93q-20 2 -20 21v51q0 20 21 20q87 -5 87 20q0 17 -44 24q-19 2 -19 20v50q-66 9 -109 46t-50 99q-2 25 23 25h80q16 0 26 -20q12 -39 72 -39q73 0 73 45q0 17 -15 28.5
t-38.5 17.5t-52.5 12t-57.5 16t-52.5 25t-38.5 43.5t-14.5 67.5q0 75 56.5 117t139.5 42q74 0 128 -38.5t62 -109.5q3 -25 -23 -25h-80q-10 0 -15 5t-10 16q-11 38 -62 38q-31 0 -49 -12t-18 -33q0 -20 20 -32.5t49.5 -17.5t64.5 -15t65 -23.5t50 -44.5t20 -77z" />
    <glyph glyph-name="Scaron" unicode="&#x160;" horiz-adv-x="546" 
d="M193 775l-80 109q-7 10 -3 17t16 7h82q16 0 24 -13l35 -53l36 53q8 13 23 13h83q12 0 15.5 -7t-3.5 -17l-79 -109q-10 -13 -24 -13h-76h-26q-14 0 -23 13zM288 412q6 -2 19 -7q29 -10 43.5 -15.5t41 -17.5t41.5 -22t34 -27t29.5 -35t17.5 -43t7 -54q0 -96 -69 -150.5
t-172 -54.5t-174.5 52.5t-79.5 152.5q-2 25 24 25h90q20 0 24 -23q13 -73 116 -73q51 0 77.5 19.5t26.5 51.5q0 11 -3.5 20t-9 16.5t-15 14.5t-18.5 12.5t-23.5 11.5t-25.5 10t-28 10q-2 1 -7 3q-28 10 -43.5 15.5t-42 17.5t-41.5 22.5t-34.5 28t-30 36.5t-17.5 45t-7 56
q0 49 19 88.5t51 64t72.5 38t84.5 13.5q93 0 160 -51.5t75 -149.5q2 -25 -23 -25h-91q-20 0 -24 23q-12 69 -97 69q-28 0 -48.5 -9t-31 -25t-10.5 -36q0 -35 28 -56t85 -42z" />
    <glyph glyph-name="scaron" unicode="&#x161;" horiz-adv-x="480" 
d="M160 575l-80 109q-7 10 -3.5 17t15.5 7h82q16 0 24 -13l36 -53l36 53q7 13 23 13h83q11 0 15 -7t-3 -17l-80 -109q-9 -13 -24 -13h-75h-26q-14 0 -23 13zM173 355q0 -20 20 -32.5t49.5 -17.5t64.5 -15t65 -23.5t50 -44.5t20 -77q0 -76 -57.5 -117.5t-144.5 -41.5
q-81 0 -136.5 38t-64.5 110q-2 25 23 25h80q16 0 26 -20q12 -39 72 -39q73 0 73 45q0 17 -15 28.5t-38.5 17.5t-52.5 12t-57.5 16t-52.5 25t-38.5 43.5t-14.5 67.5q0 75 56.5 117t139.5 42q74 0 128 -38.5t62 -109.5q3 -25 -23 -25h-80q-10 0 -15 5t-10 16q-11 38 -62 38
q-31 0 -49 -12t-18 -33z" />
    <glyph glyph-name="uni0162" unicode="&#x162;" horiz-adv-x="500" 
d="M464 700q24 0 24 -24v-84q0 -24 -24 -24h-145v-544q0 -24 -24 -24h-90q-24 0 -24 24v544h-145q-24 0 -24 24v84q0 24 24 24h283h145zM296 -62q9 0 14 -5.5t4 -15.5l-24 -162q-3 -17 -22 -17h-63q-20 0 -19 19l8 161q2 20 21 20h81z" />
    <glyph glyph-name="uni0163" unicode="&#x163;" horiz-adv-x="334" 
d="M294 500q24 0 24 -24v-76q0 -24 -24 -24h-62v-352q0 -24 -24 -24h-82q-24 0 -24 24v352h-62q-24 0 -24 24v76q0 24 24 24h62v136q0 24 24 24h82q24 0 24 -24v-136h62zM210 -62q10 0 15 -5.5t4 -15.5l-24 -162q-3 -17 -22 -17h-63q-20 0 -19 19l8 161q2 20 21 20h80z" />
    <glyph glyph-name="Tcaron" unicode="&#x164;" horiz-adv-x="500" 
d="M172 767l-80 109q-7 10 -3 17t15 7h83q16 0 23 -12l36 -53l36 53q8 12 24 12h82q12 0 15.5 -7t-3.5 -17l-80 -109q-9 -12 -23 -12h-76h-25q-15 0 -24 12zM464 700q24 0 24 -24v-84q0 -24 -24 -24h-145v-544q0 -24 -24 -24h-90q-24 0 -24 24v544h-145q-24 0 -24 24v84
q0 24 24 24h283h145z" />
    <glyph glyph-name="tcaron" unicode="&#x165;" horiz-adv-x="393" 
d="M382 735q12 0 18 -7t4 -19l-23 -135q-3 -22 -25 -22h-55q-12 0 -18.5 7t-5.5 18l8 135q2 23 24 23h73zM294 500q24 0 24 -24v-76q0 -24 -24 -24h-62v-352q0 -24 -24 -24h-82q-24 0 -24 24v352h-62q-24 0 -24 24v76q0 24 24 24h62v136q0 24 24 24h82q24 0 24 -24v-136h62z
" />
    <glyph glyph-name="Tbar" unicode="&#x166;" horiz-adv-x="500" 
d="M464 700q24 0 24 -24v-84q0 -24 -24 -24h-145v-164h95q24 0 24 -23v-77q0 -24 -24 -24h-95v-256q0 -24 -24 -24h-90q-24 0 -24 24v256h-95q-24 0 -24 24v77q0 23 24 23h95v164h-145q-24 0 -24 24v84q0 24 24 24h283h145z" />
    <glyph glyph-name="tbar" unicode="&#x167;" horiz-adv-x="334" 
d="M294 500q24 0 24 -24v-76q0 -24 -24 -24h-62v-58h44q24 0 24 -24v-56q0 -24 -24 -24h-44v-190q0 -24 -24 -24h-82q-24 0 -24 24v190h-44q-24 0 -24 24v56q0 24 24 24h44v58h-62q-24 0 -24 24v76q0 24 24 24h62v136q0 24 24 24h82q24 0 24 -24v-136h62z" />
    <glyph glyph-name="Umacron" unicode="&#x16a;" horiz-adv-x="620" 
d="M184 764q-19 0 -19 20v65q0 20 19 20h252q19 0 19 -20v-65q0 -20 -19 -20h-252zM310 -14q-111 0 -183 60.5t-72 167.5v462q0 24 24 24h90q23 0 23 -24v-452q0 -104 118 -104t118 104v452q0 24 23 24h90q24 0 24 -24v-462q0 -107 -72 -167.5t-183 -60.5z" />
    <glyph glyph-name="umacron" unicode="&#x16b;" 
d="M142 564q-20 0 -20 20v65q0 20 20 20h250q20 0 20 -20v-65q0 -20 -20 -20h-250zM450 500q24 0 24 -24v-452q0 -24 -24 -24h-82q-23 0 -23 24v27q-43 -65 -137 -65q-71 0 -116.5 52.5t-45.5 141.5v296q0 24 24 24h81q24 0 24 -24v-286q0 -28 10.5 -47t28 -28t40.5 -9
q41 0 65.5 25.5t24.5 78.5v266q0 24 24 24h82z" />
    <glyph glyph-name="Uring" unicode="&#x16e;" horiz-adv-x="620" 
d="M310 739q-55 0 -90.5 33.5t-35.5 85t35.5 85t90.5 33.5q56 0 91 -33.5t35 -84.5q0 -34 -15.5 -61t-44.5 -42.5t-66 -15.5zM310 820q13 0 22 5t13.5 13.5t4.5 19.5q0 8 -2.5 14.5t-7.5 11.5t-12.5 8t-17.5 3q-19 0 -29 -10.5t-10 -27t10 -27t29 -10.5zM310 -14
q-111 0 -183 60.5t-72 167.5v462q0 24 24 24h90q23 0 23 -24v-452q0 -104 118 -104t118 104v452q0 24 23 24h90q24 0 24 -24v-462q0 -107 -72 -167.5t-183 -60.5z" />
    <glyph glyph-name="uring" unicode="&#x16f;" 
d="M267 539q-55 0 -90.5 33.5t-35.5 85t35.5 85t90.5 33.5q37 0 66 -15.5t44.5 -42.5t15.5 -60q0 -52 -35 -85.5t-91 -33.5zM267 695q-6 0 -11.5 -1t-10 -3.5t-7.5 -6t-5.5 -7.5t-3.5 -9t-1 -10q0 -17 10 -27.5t29 -10.5q13 0 22 5t13.5 13.5t4.5 19.5q0 8 -2.5 14.5
t-7.5 11.5t-12.5 8t-17.5 3zM450 500q24 0 24 -24v-452q0 -24 -24 -24h-82q-23 0 -23 24v27q-43 -65 -137 -65q-71 0 -116.5 52.5t-45.5 141.5v296q0 24 24 24h81q24 0 24 -24v-286q0 -28 10.5 -47t28 -28t40.5 -9q41 0 65.5 25.5t24.5 78.5v266q0 24 24 24h82z" />
    <glyph glyph-name="Uhungarumlaut" unicode="&#x170;" horiz-adv-x="620" 
d="M161 783q-7 -13 -2.5 -20.5t17.5 -7.5h78q18 0 28 16l57 93q7 12 3 20t-18 8h-83q-18 0 -28 -16zM336 783q-8 -12 -3.5 -20t18.5 -8h77q19 0 28 15l64 94q8 12 3.5 20t-18.5 8h-82q-18 0 -27 -14zM310 -14q-111 0 -183 60.5t-72 167.5v462q0 24 24 24h90q23 0 23 -24
v-452q0 -104 118 -104t118 104v452q0 24 23 24h90q24 0 24 -24v-462q0 -107 -72 -167.5t-183 -60.5z" />
    <glyph glyph-name="uhungarumlaut" unicode="&#x171;" 
d="M134 555q-14 0 -18.5 7.5t2.5 20.5l52 93q10 16 28 16h83q14 0 18 -8t-3 -20l-57 -93q-10 -16 -27 -16h-78zM462 692q14 0 18.5 -8t-3.5 -20l-64 -94q-9 -15 -28 -15h-77q-14 0 -18.5 8t2.5 20l60 95q10 14 28 14h82zM450 500q24 0 24 -24v-452q0 -24 -24 -24h-82
q-23 0 -23 24v27q-43 -65 -137 -65q-71 0 -116.5 52.5t-45.5 141.5v296q0 24 24 24h81q24 0 24 -24v-286q0 -28 10.5 -47t28 -28t40.5 -9q41 0 65.5 25.5t24.5 78.5v266q0 24 24 24h82z" />
    <glyph glyph-name="Uogonek" unicode="&#x172;" horiz-adv-x="620" 
d="M541 700q24 0 24 -24v-462q0 -105 -72 -167q-57 -51 -78.5 -81.5t-21.5 -60.5q-1 -28 30 -27q22 2 22 -21v-35q0 -20 -16 -26q-29 -10 -64 -10q-43 0 -69.5 23t-26.5 65q0 51 54 113q-7 -1 -13 -1q-111 0 -183 60.5t-72 167.5v462q0 24 24 24h90q23 0 23 -24v-452
q0 -104 118 -104t118 104v452q0 24 23 24h90z" />
    <glyph glyph-name="uogonek" unicode="&#x173;" 
d="M474 476v-452v-2q0 -5 -1.5 -9.5t-4.5 -9.5t-5.5 -8t-6 -7.5t-4.5 -5.5q-37 -45 -37 -77q-1 -28 30 -27q23 2 23 -16v-44q0 -17 -13 -21q-31 -11 -68 -11q-43 0 -69.5 23t-26.5 65q0 54 66 128q-12 5 -12 22v27q-43 -65 -137 -65q-71 0 -116.5 52.5t-45.5 141.5v296
q0 24 24 24h81q24 0 24 -24v-286q0 -28 10.5 -47t28 -28t40.5 -9q41 0 65.5 25.5t24.5 78.5v266q0 24 24 24h82q24 0 24 -24z" />
    <glyph glyph-name="Wcircumflex" unicode="&#x174;" horiz-adv-x="890" 
d="M300 755q-12 0 -16 7t3 16l80 110q9 12 23 12h76h26q14 0 24 -12l79 -110q7 -9 3.5 -16t-15.5 -7h-83q-15 0 -23 13l-36 52l-35 -52q-8 -13 -24 -13h-82zM860 700q27 0 20 -27l-186 -653q-5 -20 -26 -20h-111q-21 0 -27 20l-85 300l-85 -300q-6 -20 -27 -20h-111
q-21 0 -26 20l-186 653q-7 27 20 27h95q21 0 25 -21l135 -504l100 357l-40 141q-8 27 20 27h79q21 0 26 -21l135 -504l135 504q4 21 25 21h95z" />
    <glyph glyph-name="wcircumflex" unicode="&#x175;" horiz-adv-x="725" 
d="M217 555q-12 0 -15.5 7t3.5 16l79 110q10 12 24 12h76h26q14 0 23 -12l80 -110q7 -9 3 -16t-16 -7h-82q-16 0 -24 13l-35 52l-36 -52q-8 -13 -23 -13h-83zM686 500q9 0 14.5 -3.5t7 -9.5t-1.5 -14l-148 -453q-6 -20 -27 -20h-69h-13q-21 0 -27 20l-59 181l-60 -181
q-6 -20 -27 -20h-53h-29q-21 0 -27 20l-148 453q-4 12 1.5 19.5t17.5 7.5h89q21 0 26 -20l92 -322l65 204l-36 111q-4 12 1.5 19.5t18.5 7.5h65q21 0 27 -20l98 -310l88 310q5 20 26 20h88z" />
    <glyph glyph-name="Ycircumflex" unicode="&#x176;" horiz-adv-x="601" 
d="M154 755q-12 0 -15.5 7t3.5 16l80 110q9 12 23 12h76h26q14 0 23 -12l80 -110q7 -9 3.5 -16t-15.5 -7h-83q-15 0 -23 13l-36 52l-36 -52q-8 -13 -23 -13h-83zM566 700q14 0 18.5 -8t-2.5 -20l-213 -361v-287q0 -24 -24 -24h-90q-23 0 -23 24v287l-213 361q-7 12 -2.5 20
t18.5 8h105q19 0 27 -17l134 -240l133 240q9 17 28 17h104z" />
    <glyph glyph-name="ycircumflex" unicode="&#x177;" horiz-adv-x="500" 
d="M104 555q-11 0 -15 7t3 16l80 110q9 12 24 12h75h26q14 0 23 -12l80 -110q7 -9 3.5 -16t-15.5 -7h-82q-16 0 -24 13l-36 52l-36 -52q-7 -13 -23 -13h-83zM469 500q13 0 18.5 -7t1.5 -20l-221 -654q-6 -19 -28 -19h-88q-13 0 -18.5 7t-1.5 20l62 180l-181 465
q-4 13 1 20.5t18 7.5h88q20 0 27 -19l111 -296l96 295q6 20 27 20h88z" />
    <glyph glyph-name="Ydieresis" unicode="&#x178;" horiz-adv-x="601" 
d="M168 761q-20 0 -20 20v78q0 20 20 20h78q20 0 20 -20v-78q0 -20 -20 -20h-78zM353 761q-19 0 -19 20v78q0 20 19 20h79q19 0 19 -20v-78q0 -20 -19 -20h-79zM566 700q14 0 18.5 -8t-2.5 -20l-213 -361v-287q0 -24 -24 -24h-90q-23 0 -23 24v287l-213 361q-7 12 -2.5 20
t18.5 8h105q19 0 27 -17l134 -240l133 240q9 17 28 17h104z" />
    <glyph glyph-name="Zacute" unicode="&#x179;" horiz-adv-x="535" 
d="M208 790q-6 -12 -1.5 -20t17.5 -8h75q18 0 29 14l77 95q9 11 4.5 20t-18.5 9h-100q-19 0 -28 -16zM211 132h274q24 0 24 -24v-84q0 -24 -24 -24h-425q-24 0 -24 24v70q0 14 9 29l283 445h-262q-24 0 -24 24v84q0 24 24 24h413q23 0 23 -24v-70q0 -14 -8 -29z" />
    <glyph glyph-name="zacute" unicode="&#x17a;" horiz-adv-x="454" 
d="M166 590q-6 -12 -1.5 -20t17.5 -8h75q18 0 29 14l77 95q9 11 4.5 20t-18.5 9h-100q-19 0 -28 -16zM206 121h198q24 0 24 -24v-73q0 -24 -24 -24h-348q-24 0 -24 24v46q0 15 10 29l202 280h-178q-24 0 -24 24v73q0 24 24 24h328q24 0 24 -24v-46q0 -15 -10 -29z" />
    <glyph glyph-name="Zdotaccent" unicode="&#x17b;" horiz-adv-x="535" 
d="M224 758q-19 0 -19 19v96q0 19 19 19h96q20 0 20 -19v-96q0 -19 -20 -19h-96zM211 132h274q24 0 24 -24v-84q0 -24 -24 -24h-425q-24 0 -24 24v70q0 14 9 29l283 445h-262q-24 0 -24 24v84q0 24 24 24h413q23 0 23 -24v-70q0 -14 -8 -29z" />
    <glyph glyph-name="zdotaccent" unicode="&#x17c;" horiz-adv-x="454" 
d="M182 558q-19 0 -19 19v96q0 19 19 19h96q20 0 20 -19v-96q0 -19 -20 -19h-96zM206 121h198q24 0 24 -24v-73q0 -24 -24 -24h-348q-24 0 -24 24v46q0 15 10 29l202 280h-178q-24 0 -24 24v73q0 24 24 24h328q24 0 24 -24v-46q0 -15 -10 -29z" />
    <glyph glyph-name="Zcaron" unicode="&#x17d;" horiz-adv-x="535" 
d="M194 767l-79 109q-7 10 -3.5 17t15.5 7h83q15 0 23 -12l36 -53l35 53q8 12 24 12h82q12 0 16 -7t-3 -17l-80 -109q-9 -12 -23 -12h-76h-26q-14 0 -24 12zM485 132q24 0 24 -24v-84q0 -24 -24 -24h-425q-24 0 -24 24v70q0 14 9 29l283 445h-262q-24 0 -24 24v84
q0 24 24 24h413q23 0 23 -24v-70q0 -14 -8 -29l-283 -445h274z" />
    <glyph glyph-name="zcaron" unicode="&#x17e;" horiz-adv-x="454" 
d="M152 567l-79 109q-7 10 -3.5 17t15.5 7h83q15 0 23 -12l36 -53l35 53q8 12 24 12h82q12 0 16 -7t-3 -17l-80 -109q-9 -12 -23 -12h-76h-26q-14 0 -24 12zM404 121q24 0 24 -24v-73q0 -24 -24 -24h-348q-24 0 -24 24v46q0 15 10 29l202 280h-178q-24 0 -24 24v73
q0 24 24 24h328q24 0 24 -24v-46q0 -15 -10 -29l-202 -280h198z" />
    <glyph glyph-name="florin" unicode="&#x192;" horiz-adv-x="441" 
d="M420 710q21 -5 21 -27v-80q0 -23 -25 -19q-14 2 -27.5 -1t-25 -10.5t-19.5 -21t-11 -31.5l-18 -106h67q24 0 24 -24v-76q0 -24 -24 -24h-88l-56 -331q-17 -100 -75.5 -140t-141.5 -25q-21 4 -21 27v80q0 22 25 19q20 -3 37 2.5t29.5 21t16.5 40.5l52 306h-61
q-23 0 -23 24v76q0 24 23 24h82l23 131q16 99 74.5 139.5t141.5 25.5z" />
    <glyph glyph-name="Scommaaccent" unicode="&#x218;" horiz-adv-x="546" 
d="M280 -14q-103 0 -174.5 52.5t-79.5 152.5q-2 25 24 25h90q20 0 24 -23q13 -73 116 -73q51 0 77.5 19.5t26.5 51.5q0 11 -3.5 20t-9 16.5t-15 14.5t-18.5 12.5t-23.5 11.5t-25.5 10t-28 10q-2 1 -7 3q-28 10 -43.5 15.5t-42 17.5t-41.5 22.5t-34.5 28t-30 36.5t-17.5 45
t-7 56q0 49 19 88.5t51 64t72.5 38t84.5 13.5q93 0 160 -51.5t75 -149.5q2 -25 -23 -25h-91q-20 0 -24 23q-12 69 -97 69q-28 0 -48.5 -9t-31 -25t-10.5 -36q0 -35 28 -56t85 -42q6 -2 19 -7q29 -10 43.5 -15.5t41 -17.5t41.5 -22t34 -27t29.5 -35t17.5 -43t7 -54
q0 -96 -69 -150.5t-172 -54.5zM301 -262q19 0 22 17l24 162q1 10 -4 15.5t-15 5.5h-80q-19 0 -21 -20l-8 -161q-1 -19 19 -19h63z" />
    <glyph glyph-name="scommaaccent" unicode="&#x219;" horiz-adv-x="480" 
d="M173 355q0 -20 20 -32.5t49.5 -17.5t64.5 -15t65 -23.5t50 -44.5t20 -77q0 -76 -57.5 -117.5t-144.5 -41.5q-81 0 -136.5 38t-64.5 110q-2 25 23 25h80q16 0 26 -20q12 -39 72 -39q73 0 73 45q0 17 -15 28.5t-38.5 17.5t-52.5 12t-57.5 16t-52.5 25t-38.5 43.5
t-14.5 67.5q0 75 56.5 117t139.5 42q74 0 128 -38.5t62 -109.5q3 -25 -23 -25h-80q-10 0 -15 5t-10 16q-11 38 -62 38q-31 0 -49 -12t-18 -33zM295 -62q9 0 14.5 -5.5t3.5 -15.5l-24 -162q-3 -17 -21 -17h-64q-20 0 -18 19l8 161q1 20 20 20h81z" />
    <glyph glyph-name="uni021A" unicode="&#x21a;" horiz-adv-x="500" 
d="M464 700q24 0 24 -24v-84q0 -24 -24 -24h-145v-544q0 -24 -24 -24h-90q-24 0 -24 24v544h-145q-24 0 -24 24v84q0 24 24 24h283h145zM296 -62q9 0 14 -5.5t4 -15.5l-24 -162q-3 -17 -22 -17h-63q-20 0 -19 19l8 161q2 20 21 20h81z" />
    <glyph glyph-name="uni021B" unicode="&#x21b;" horiz-adv-x="334" 
d="M294 500q24 0 24 -24v-76q0 -24 -24 -24h-62v-352q0 -24 -24 -24h-82q-24 0 -24 24v352h-62q-24 0 -24 24v76q0 24 24 24h62v136q0 24 24 24h82q24 0 24 -24v-136h62zM210 -62q10 0 15 -5.5t4 -15.5l-24 -162q-3 -17 -22 -17h-63q-20 0 -19 19l8 161q2 20 21 20h80z" />
    <glyph glyph-name="circumflex" unicode="&#x2c6;" horiz-adv-x="383" 
d="M345 578q7 -9 3.5 -16t-15.5 -7h-83q-15 0 -23 13l-36 52l-35 -52q-8 -13 -24 -13h-82q-12 0 -16 7t3 16l80 110q9 12 23 12h76h26q14 0 24 -12z" />
    <glyph glyph-name="caron" unicode="&#x2c7;" horiz-adv-x="383" 
d="M333 700q12 0 15.5 -7t-3.5 -17l-79 -109q-10 -12 -24 -12h-76h-26q-14 0 -23 12l-80 109q-7 10 -3 17t16 7h82q16 0 24 -12l35 -53l36 53q8 12 23 12h83z" />
    <glyph glyph-name="breve" unicode="&#x2d8;" horiz-adv-x="373" 
d="M186 547q-73 0 -115.5 32.5t-49.5 92.5q-2 20 19 20h76q17 0 22 -19q7 -33 48 -33t49 33q5 19 21 19h76q21 0 20 -18q-6 -61 -48.5 -94t-117.5 -33z" />
    <glyph glyph-name="dotaccent" unicode="&#x2d9;" horiz-adv-x="175" 
d="M40 558q-20 0 -20 19v96q0 19 20 19h96q19 0 19 -19v-96q0 -19 -19 -19h-96z" />
    <glyph glyph-name="ring" unicode="&#x2da;" horiz-adv-x="293" 
d="M146 539q-55 0 -90.5 33.5t-35.5 85t35.5 85t90.5 33.5q38 0 66.5 -15.5t44 -42.5t15.5 -60q0 -52 -34.5 -85.5t-91.5 -33.5zM146 620q19 0 29.5 10.5t10.5 27.5q0 8 -2.5 14.5t-7.5 11.5t-12.5 8t-17.5 3q-6 0 -11.5 -1t-9.5 -3.5t-7.5 -6t-5.5 -7.5t-3.5 -9t-1.5 -10
q0 -17 10.5 -27.5t28.5 -10.5z" />
    <glyph glyph-name="ogonek" unicode="&#x2db;" horiz-adv-x="216" 
d="M116 -214q-43 0 -69.5 23t-26.5 65q0 58 66 126h110q-52 -55 -52 -95q-2 -28 30 -27q22 2 22 -16v-44q0 -17 -12 -21q-31 -11 -68 -11z" />
    <glyph glyph-name="tilde" unicode="&#x2dc;" horiz-adv-x="379" 
d="M40 560q-21 0 -19 20q4 67 32.5 99.5t67.5 31t81 -29.5q26 -17 37.5 -17t14.5 21q2 20 20 20h66q20 0 18 -21q-3 -66 -31.5 -98.5t-67.5 -31t-82 29.5q-17 11 -27 15t-16.5 -0.5t-7.5 -18.5q-3 -20 -20 -20h-66z" />
    <glyph glyph-name="hungarumlaut" unicode="&#x2dd;" horiz-adv-x="435" 
d="M36 583q-7 -13 -2.5 -20.5t18.5 -7.5h78q17 0 27 16l57 93q7 12 3 20t-18 8h-83q-18 0 -28 -16zM210 583q-7 -12 -2.5 -20t18.5 -8h77q19 0 28 15l64 94q8 12 3.5 20t-18.5 8h-82q-18 0 -28 -14z" />
    <glyph glyph-name="gravecomb" unicode="&#x300;" horiz-adv-x="0" 
d="M-47 562q11 0 15 7t-2 17l-58 100q-7 14 -24 14h-108q-13 0 -16.5 -7t4.5 -17l82 -102q9 -12 25 -12h82z" />
    <glyph glyph-name="acutecomb" unicode="&#x301;" horiz-adv-x="0" 
d="M-239 590q-7 -12 -2.5 -20t18.5 -8h74q19 0 29 14l77 95q9 11 5 20t-19 9h-99q-19 0 -28 -16z" />
    <glyph glyph-name="uni0302" unicode="&#x302;" horiz-adv-x="0" 
d="M-37 578q7 -9 3 -16t-16 -7h-82q-16 0 -24 13l-35 52l-36 -52q-8 -13 -23 -13h-83q-12 0 -15.5 7t3.5 16l79 110q10 12 24 12h76h26q14 0 23 -12z" />
    <glyph glyph-name="tildecomb" unicode="&#x303;" horiz-adv-x="0" 
d="M-332 560q-20 0 -19 20q4 67 32.5 99.5t67.5 31t81 -29.5q26 -17 37.5 -17t14.5 21q3 20 20 20h66q20 0 18 -21q-3 -66 -31.5 -98.5t-67.5 -31t-81 29.5q-26 17 -37.5 17t-14.5 -21q-3 -20 -20 -20h-66z" />
    <glyph glyph-name="uni0304" unicode="&#x304;" horiz-adv-x="0" 
d="M-290 564q-20 0 -20 20v65q0 20 20 20h250q20 0 20 -20v-65q0 -20 -20 -20h-250z" />
    <glyph glyph-name="uni0306" unicode="&#x306;" horiz-adv-x="0" 
d="M-186 547q-74 0 -116.5 32.5t-49.5 92.5q-1 20 20 20h76q16 0 21 -19q8 -33 49 -33t48 33q5 19 22 19h76q20 0 19 -18q-5 -61 -48 -94t-117 -33z" />
    <glyph glyph-name="uni0307" unicode="&#x307;" horiz-adv-x="0" 
d="M-137 558q-19 0 -19 19v96q0 19 19 19h96q20 0 20 -19v-96q0 -19 -20 -19h-96z" />
    <glyph glyph-name="uni0308" unicode="&#x308;" horiz-adv-x="0" 
d="M-303 561q-19 0 -19 20v78q0 20 19 20h79q19 0 19 -20v-78q0 -20 -19 -20h-79zM-118 561q-20 0 -20 20v78q0 20 20 20h78q20 0 20 -20v-78q0 -20 -20 -20h-78z" />
    <glyph glyph-name="uni030A" unicode="&#x30a;" horiz-adv-x="0" 
d="M-150 539q-55 0 -90.5 33.5t-35.5 85t35.5 85t90.5 33.5q37 0 66 -15.5t44.5 -42.5t15.5 -60q0 -52 -35 -85.5t-91 -33.5zM-150 620q19 0 29.5 10.5t10.5 27.5q0 8 -2.5 14.5t-7.5 11.5t-12.5 8t-17.5 3q-6 0 -11.5 -1t-10 -3.5t-7.5 -6t-5.5 -7.5t-3.5 -9t-1 -10
q0 -17 10 -27.5t29 -10.5z" />
    <glyph glyph-name="uni030B" unicode="&#x30b;" horiz-adv-x="0" 
d="M-399 583q-7 -13 -2 -20.5t18 -7.5h78q18 0 28 16l57 93q7 12 2.5 20t-18.5 8h-82q-19 0 -28 -16zM-224 583q-7 -12 -2.5 -20t18.5 -8h77q18 0 28 15l64 94q7 12 3 20t-18 8h-82q-19 0 -28 -14z" />
    <glyph glyph-name="uni030C" unicode="&#x30c;" horiz-adv-x="0" 
d="M-50 700q12 0 16 -7t-3 -17l-80 -109q-9 -12 -23 -12h-76h-26q-14 0 -24 12l-79 109q-7 10 -3.5 17t15.5 7h83q15 0 23 -12l36 -53l35 53q8 12 24 12h82z" />
    <glyph glyph-name="uni0312" unicode="&#x312;" horiz-adv-x="0" 
d="M-103 975q-19 0 -21 -17l-24 -162q-2 -10 3 -15.5t15 -5.5h81q18 0 20 19l8 161q1 20 -19 20h-63z" />
    <glyph glyph-name="uni0326" unicode="&#x326;" horiz-adv-x="0" 
d="M-68 -262q18 0 21 17l24 162q1 10 -4 15.5t-15 5.5h-80q-19 0 -20 -20l-8 -161q-2 -19 18 -19h64z" />
    <glyph glyph-name="uni0327" unicode="&#x327;" horiz-adv-x="0" 
d="M-90 -46q29 -6 49.5 -26t20.5 -52q0 -101 -200 -93q-20 1 -20 21v51q0 19 22 19q86 -4 86 21q0 17 -44 23q-19 3 -19 21v61h105v-46z" />
    <glyph glyph-name="uni0328" unicode="&#x328;" horiz-adv-x="0" 
d="M-108 -214q-43 0 -69.5 23t-26.5 65q0 58 66 126h110q-52 -55 -52 -95q-1 -28 30 -27q22 2 22 -16v-44q0 -17 -12 -21q-31 -11 -68 -11z" />
    <glyph glyph-name="uni0394" unicode="&#x394;" horiz-adv-x="653" 
d="M641 27q4 -13 -1.5 -20t-18.5 -7h-121h-375h-94q-13 0 -18.5 7t-0.5 20l222 653q6 20 28 20h129q21 0 27 -20zM193 129h266l-133 418z" />
    <glyph glyph-name="uni03A9" unicode="&#x3a9;" horiz-adv-x="777" 
d="M752 365q0 -70 -28.5 -130t-79.5 -103h71q23 0 23 -24v-84q0 -24 -23 -24h-229q-24 0 -24 24v88q0 19 18 27q40 17 70.5 47t47 72.5t16.5 91.5q0 100 -64.5 165t-161 65t-161.5 -65t-65 -165q0 -74 36.5 -130t98.5 -81q18 -8 18 -27v-88q0 -24 -23 -24h-230q-24 0 -24 24
v84q0 24 24 24h71q-25 21 -45 46.5t-34 55t-21.5 63t-7.5 68.5q0 97 48.5 177t132 126t183 46t183 -46t132 -126t48.5 -177z" />
    <glyph glyph-name="pi" unicode="&#x3c0;" horiz-adv-x="635" 
d="M589 500q23 0 23 -24v-73q0 -24 -23 -24h-56v-355q0 -24 -23 -24h-82q-24 0 -24 24v355h-169v-355q0 -24 -24 -24h-81q-24 0 -24 24v355h-60q-24 0 -24 24v73q0 24 24 24h189h298h56z" />
    <glyph glyph-name="uni0401" unicode="&#x401;" horiz-adv-x="513" 
d="M139 761q-20 0 -20 20v78q0 20 20 20h78q20 0 20 -20v-78q0 -20 -20 -20h-78zM324 761q-20 0 -20 20v78q0 20 20 20h78q20 0 20 -20v-78q0 -20 -20 -20h-78zM456 132q24 0 24 -24v-84q0 -24 -24 -24h-346h-21q-24 0 -24 24v652q0 24 24 24h113h249q24 0 24 -24v-84
q0 -24 -24 -24h-249v-150h224q24 0 24 -24v-81q0 -24 -24 -24h-224v-157h254z" />
    <glyph glyph-name="uni0402" unicode="&#x402;" horiz-adv-x="663" 
d="M435 458q87 0 137.5 -50t50.5 -145v-69q0 -104 -47.5 -154.5t-145.5 -49.5q-24 0 -24 24v80q0 21 26 25q29 2 41.5 20t12.5 55v56q0 85 -81 85q-42 0 -89 -20v-291q0 -24 -23 -24h-90q-24 0 -24 24v544h-143q-23 0 -23 24v84q0 24 23 24h280h175q24 0 24 -24v-84
q0 -24 -24 -24h-175v-131q62 21 119 21z" />
    <glyph glyph-name="uni0403" unicode="&#x403;" horiz-adv-x="475" 
d="M220 762q-13 0 -17.5 7.5t1.5 20.5l55 93q9 16 28 16h100q14 0 18.5 -8.5t-4.5 -20.5l-77 -95q-11 -13 -29 -13h-75zM439 700q23 0 23 -24v-84q0 -24 -23 -24h-237v-544q0 -24 -23 -24h-90q-24 0 -24 24v652q0 24 24 24h113h237z" />
    <glyph glyph-name="uni0404" unicode="&#x404;" horiz-adv-x="749" 
d="M703 250q13 0 19 -7t2 -19q-19 -70 -66.5 -123.5t-117 -84t-150.5 -30.5q-104 0 -186 48.5t-127 131t-45 184.5t45 184.5t127 131t186 48.5q122 0 213.5 -65.5t120.5 -172.5q4 -12 -2 -19t-19 -7h-96q-19 0 -28 20q-21 50 -71.5 80t-117.5 30q-84 0 -140 -45t-73 -121
h288q24 0 24 -23v-82q0 -23 -24 -23h-288q17 -76 73 -121t140 -45q67 0 118 30t72 80q7 20 27 20h96z" />
    <glyph glyph-name="uni0405" unicode="&#x405;" horiz-adv-x="546" 
d="M280 -14q-103 0 -174.5 52.5t-79.5 152.5q-2 25 24 25h90q20 0 24 -23q13 -73 116 -73q51 0 77.5 19.5t26.5 51.5q0 11 -3.5 20t-9 16.5t-15 14.5t-18.5 12.5t-23.5 11.5t-25.5 10t-28 10q-2 1 -7 3q-28 10 -43.5 15.5t-42 17.5t-41.5 22.5t-34.5 28t-30 36.5t-17.5 45
t-7 56q0 49 19 88.5t51 64t72.5 38t84.5 13.5q93 0 160 -51.5t75 -149.5q2 -25 -23 -25h-91q-20 0 -24 23q-12 69 -97 69q-28 0 -48.5 -9t-31 -25t-10.5 -36q0 -35 28 -56t85 -42q6 -2 19 -7q29 -10 43.5 -15.5t41 -17.5t41.5 -22t34 -27t29.5 -35t17.5 -43t7 -54
q0 -96 -69 -150.5t-172 -54.5z" />
    <glyph glyph-name="uni0406" unicode="&#x406;" horiz-adv-x="268" 
d="M65 676q0 24 24 24h90q23 0 23 -24v-652q0 -24 -23 -24h-90q-24 0 -24 24v652z" />
    <glyph glyph-name="uni0407" unicode="&#x407;" horiz-adv-x="268" 
d="M2 761q-20 0 -20 20v78q0 20 20 20h78q20 0 20 -20v-78q0 -20 -20 -20h-78zM187 761q-19 0 -19 20v78q0 20 19 20h79q19 0 19 -20v-78q0 -20 -19 -20h-79zM65 676q0 24 24 24h90q23 0 23 -24v-652q0 -24 -23 -24h-90q-24 0 -24 24v652z" />
    <glyph glyph-name="uni0408" unicode="&#x408;" horiz-adv-x="538" 
d="M248 -14q-45 0 -84.5 12.5t-72 37.5t-53.5 67t-24 97q-2 24 22 24h91q21 0 25 -23q9 -81 96 -81q46 0 71.5 22t25.5 65v469q0 24 24 24h90q23 0 23 -24v-469q0 -72 -34 -123.5t-85.5 -74.5t-114.5 -23z" />
    <glyph glyph-name="uni0409" unicode="&#x409;" horiz-adv-x="921" 
d="M660 438q100 0 168 -62t68 -157.5t-67.5 -157t-168.5 -61.5h-196h-22q-23 0 -23 24v544h-147v-278q0 -69 -13 -122t-35 -85t-53.5 -52.5t-64.5 -27.5t-72 -6q-23 0 -23 24v81q0 23 25 22q49 0 74 36.5t25 125.5v390q0 24 23 24h374q24 0 24 -24v-238h104zM660 129
q43 0 71 23.5t28 66t-28 66t-71 23.5h-104v-179h104z" />
    <glyph glyph-name="uni040A" unicode="&#x40a;" horiz-adv-x="918" 
d="M656 438q101 0 168.5 -62t67.5 -157.5t-67.5 -157t-168.5 -61.5h-196h-21q-24 0 -24 24v284h-213v-284q0 -24 -23 -24h-90q-24 0 -24 24v652q0 24 24 24h90q23 0 23 -24v-238h213v238q0 24 24 24h90q23 0 23 -24v-238h104zM656 129q44 0 71.5 23.5t27.5 66t-27.5 66
t-71.5 23.5h-104v-179h104z" />
    <glyph glyph-name="uni040B" unicode="&#x40b;" horiz-adv-x="668" 
d="M435 458q87 0 137.5 -50t50.5 -145v-239q0 -24 -23 -24h-90q-24 0 -24 24v226q0 85 -81 85q-42 0 -89 -20v-291q0 -24 -23 -24h-90q-24 0 -24 24v544h-143q-23 0 -23 24v84q0 24 23 24h280h175q24 0 24 -24v-84q0 -24 -24 -24h-175v-131q62 21 119 21z" />
    <glyph glyph-name="uni040C" unicode="&#x40c;" horiz-adv-x="615" 
d="M260 762q-13 0 -17.5 7.5t1.5 20.5l55 93q9 16 28 16h100q14 0 18.5 -8.5t-4.5 -20.5l-77 -95q-11 -13 -29 -13h-75zM590 29q9 -12 4.5 -20.5t-18.5 -8.5h-106q-18 0 -28 14l-240 315v-305q0 -24 -23 -24h-90q-24 0 -24 24v652q0 24 24 24h90q23 0 23 -24v-285l230 295
q11 14 28 14h106q14 0 18.5 -8.5t-4.5 -20.5l-237 -312z" />
    <glyph glyph-name="uni040E" unicode="&#x40e;" horiz-adv-x="600" 
d="M172 763q-24 0 -24 24v65q0 23 24 23h243q23 0 23 -23v-65q0 -24 -23 -24h-243zM560 700q14 0 19 -7.5t0 -20.5l-199 -479q-27 -66 -64.5 -109t-84 -63.5t-103.5 -20.5q-8 -1 -13.5 2t-8 8.5t-2.5 13.5v80q0 23 25 23q83 2 122 84l-215 461q-6 13 -1.5 20.5t18.5 7.5h88
q19 0 27 -18l146 -320l130 320q7 18 28 18h88z" />
    <glyph glyph-name="uni040F" unicode="&#x40f;" horiz-adv-x="638" 
d="M549 700q23 0 23 -24v-652q0 -24 -23 -24h-114h-47v-120q0 -24 -24 -24h-90q-24 0 -24 24v120h-140h-21q-24 0 -24 24v652q0 24 24 24h90q23 0 23 -24v-544h233v544q0 24 24 24h90z" />
    <glyph glyph-name="uni0410" unicode="&#x410;" horiz-adv-x="653" 
d="M641 27q4 -13 -1.5 -20t-18.5 -7h-100q-21 0 -27 20l-33 106h-269l-34 -106q-5 -20 -26 -20h-101q-13 0 -18.5 7t-0.5 20l222 653q6 20 28 20h129q21 0 27 -20zM233 254h186l-93 293z" />
    <glyph glyph-name="uni0411" unicode="&#x411;" horiz-adv-x="585" 
d="M332 435q103 0 168 -60.5t65 -157t-65 -157t-168 -60.5h-222h-21q-24 0 -24 24v652q0 24 24 24h113h279q24 0 24 -24v-84q0 -24 -24 -24h-279v-133h130zM332 129q42 0 69 23t27 65t-27 65.5t-69 23.5h-130v-177h130z" />
    <glyph glyph-name="uni0412" unicode="&#x412;" horiz-adv-x="685" 
d="M537 426q56 -29 88.5 -83t32.5 -120q0 -95 -63.5 -159t-158.5 -64h-331h-16q-24 0 -24 24v652q0 24 24 24h113h154q90 0 148 -54t58 -135q0 -45 -25 -85zM356 571h-154v-118h202q21 21 21 50.5t-19 48.5t-50 19zM419 129q49 0 75 28.5t26 73t-26 72.5t-74 28h-218v-202
h217z" />
    <glyph glyph-name="uni0413" unicode="&#x413;" horiz-adv-x="475" 
d="M439 700q23 0 23 -24v-84q0 -24 -23 -24h-237v-544q0 -24 -23 -24h-90q-24 0 -24 24v652q0 24 24 24h113h237z" />
    <glyph glyph-name="uni0414" unicode="&#x414;" horiz-adv-x="683" 
d="M631 129q24 0 24 -24v-105v-120q0 -24 -24 -24h-90q-23 0 -23 24v120h-366v-120q0 -24 -23 -24h-90q-24 0 -24 24v156v69q0 24 24 24h42q60 79 60 239v308q0 24 24 24h391q24 0 24 -24v-547h51zM229 129h213v442h-164v-205q0 -154 -49 -237z" />
    <glyph glyph-name="uni0415" unicode="&#x415;" horiz-adv-x="513" 
d="M456 132q24 0 24 -24v-84q0 -24 -24 -24h-346h-21q-24 0 -24 24v652q0 24 24 24h113h249q24 0 24 -24v-84q0 -24 -24 -24h-249v-150h224q24 0 24 -24v-81q0 -24 -24 -24h-224v-157h254z" />
    <glyph glyph-name="uni0416" unicode="&#x416;" horiz-adv-x="904" 
d="M872 29q8 -12 3.5 -20.5t-19.5 -8.5h-99q-18 0 -29 16l-207 304v-296q0 -24 -24 -24h-90q-24 0 -24 24v296l-207 -304q-11 -16 -29 -16h-99q-15 0 -19.5 8.5t3.5 20.5l224 327l-214 315q-8 13 -3.5 21t19.5 8h99q18 0 29 -16l197 -298v290q0 24 24 24h90q24 0 24 -24
v-290l197 298q11 16 29 16h99q15 0 19.5 -8t-3.5 -21l-214 -315z" />
    <glyph glyph-name="uni0417" unicode="&#x417;" horiz-adv-x="545" 
d="M435 411q31 -20 52.5 -49t33.5 -64.5t12 -76.5q0 -68 -31.5 -121.5t-91 -83t-137.5 -29.5q-74 0 -131 28t-90 77t-38 112q-2 25 23 25h90q20 0 26 -22q6 -41 37 -66t83 -25q59 0 90.5 29t31.5 76t-31 76.5t-88 29.5h-30q-23 0 -23 23v81q0 24 23 24h30q16 0 31 -2
q36 23 36 64q0 30 -20.5 48.5t-58.5 18.5q-31 0 -50.5 -12.5t-25.5 -33.5q-8 -21 -25 -21h-91q-26 0 -24 25q9 77 67.5 124.5t148.5 47.5q63 0 112.5 -25t76.5 -68t27 -97q0 -63 -45 -113z" />
    <glyph glyph-name="uni0418" unicode="&#x418;" horiz-adv-x="645" 
d="M442 24v408l-262 -417q-9 -15 -29 -15h-62q-24 0 -24 24v652q0 24 24 24h90q23 0 23 -24v-408l263 417q9 15 29 15h62q24 0 24 -24v-652q0 -24 -24 -24h-90q-24 0 -24 24z" />
    <glyph glyph-name="uni0419" unicode="&#x419;" horiz-adv-x="645" 
d="M211 764q-23 0 -23 24v64q0 24 23 24h243q24 0 24 -24v-64q0 -24 -24 -24h-243zM442 24v408l-262 -417q-9 -15 -29 -15h-62q-24 0 -24 24v652q0 24 24 24h90q23 0 23 -24v-408l263 417q9 15 29 15h62q24 0 24 -24v-652q0 -24 -24 -24h-90q-24 0 -24 24z" />
    <glyph glyph-name="uni041A" unicode="&#x41a;" horiz-adv-x="615" 
d="M590 29q9 -12 4.5 -20.5t-18.5 -8.5h-106q-18 0 -28 14l-240 315v-305q0 -24 -23 -24h-90q-24 0 -24 24v652q0 24 24 24h90q23 0 23 -24v-285l230 295q11 14 28 14h106q14 0 18.5 -8.5t-4.5 -20.5l-237 -312z" />
    <glyph glyph-name="uni041B" unicode="&#x41b;" horiz-adv-x="641" 
d="M34 -3q-23 0 -23 24v81q0 23 25 22q49 0 74 36.5t25 125.5v390q0 24 23 24h394q24 0 24 -24v-652q0 -24 -24 -24h-90q-23 0 -23 24v544h-167v-278q0 -69 -13 -122t-35 -85t-53.5 -52.5t-64.5 -27.5t-72 -6z" />
    <glyph glyph-name="uni041C" unicode="&#x41c;" horiz-adv-x="815" 
d="M726 700q24 0 24 -24v-652q0 -24 -24 -24h-90q-24 0 -24 24v446l-147 -340q-7 -18 -27 -18h-61q-20 0 -27 18l-148 340v-446q0 -24 -23 -24h-90q-24 0 -24 24v652q0 24 24 24h90h23q21 0 28 -18l178 -410l177 410q7 18 28 18h68h45z" />
    <glyph glyph-name="uni041D" unicode="&#x41d;" horiz-adv-x="638" 
d="M549 700q23 0 23 -24v-652q0 -24 -23 -24h-90q-24 0 -24 24v270h-233v-270q0 -24 -23 -24h-90q-24 0 -24 24v652q0 24 24 24h90q23 0 23 -24v-250h233v250q0 24 24 24h90z" />
    <glyph glyph-name="uni041E" unicode="&#x41e;" horiz-adv-x="792" 
d="M396 -14q-99 0 -183 48t-132.5 132t-48.5 184t48.5 184t132.5 132t183 48t183 -48t132.5 -132t48.5 -184t-48.5 -184t-132.5 -132t-183 -48zM396 120q38 0 72.5 11t62 31.5t48.5 48.5t32 63.5t11 75.5q0 100 -65 165t-161 65t-161 -65t-65 -165t65 -165t161 -65z" />
    <glyph glyph-name="uni041F" unicode="&#x41f;" horiz-adv-x="638" 
d="M549 700q23 0 23 -24v-652q0 -24 -23 -24h-90q-24 0 -24 24v544h-233v-544q0 -24 -23 -24h-90q-24 0 -24 24v652q0 24 24 24h113h326h21z" />
    <glyph glyph-name="uni0420" unicode="&#x420;" horiz-adv-x="588" 
d="M326 700q65 0 119.5 -31t85.5 -84.5t31 -116.5q0 -97 -68.5 -165t-167.5 -68h-124v-211q0 -24 -23 -24h-90q-24 0 -24 24v652q0 24 24 24h113h124zM326 364q42 0 70.5 30t28.5 73.5t-28.5 73.5t-70.5 30h-124v-207h124z" />
    <glyph glyph-name="uni0421" unicode="&#x421;" horiz-adv-x="752" 
d="M397 -14q-104 0 -187.5 48.5t-130.5 131.5t-47 184t47 184t130.5 131.5t187.5 48.5q117 0 209 -66t124 -171q2 -8 0 -14t-7 -9.5t-13 -3.5h-98q-18 0 -27 19q-15 33 -43.5 58.5t-65.5 39t-79 13.5q-102 0 -164.5 -64t-62.5 -166t62.5 -166t164.5 -64q63 0 114 30t74 81
q9 19 27 19h98q12 0 17.5 -7t2.5 -18q-31 -106 -123 -172.5t-210 -66.5z" />
    <glyph glyph-name="uni0422" unicode="&#x422;" horiz-adv-x="500" 
d="M464 700q24 0 24 -24v-84q0 -24 -24 -24h-145v-544q0 -24 -24 -24h-90q-24 0 -24 24v544h-145q-24 0 -24 24v84q0 24 24 24h283h145z" />
    <glyph glyph-name="uni0423" unicode="&#x423;" horiz-adv-x="600" 
d="M560 700q14 0 19 -7.5t0 -20.5l-199 -479q-27 -66 -64.5 -109t-84 -63.5t-103.5 -20.5q-8 -1 -13.5 2t-8 8.5t-2.5 13.5v80q0 23 25 23q83 2 122 84l-215 461q-6 13 -1.5 20.5t18.5 7.5h88q19 0 27 -18l146 -320l130 320q7 18 28 18h88z" />
    <glyph glyph-name="uni0424" unicode="&#x424;" horiz-adv-x="819" 
d="M796 350q0 -119 -86.5 -194t-232.5 -90v-57q0 -24 -24 -24h-87q-24 0 -24 24v57q-146 15 -233 90t-87 194q0 80 40 141t112 97t168 46v57q0 24 24 24h87q24 0 24 -24v-57q146 -15 232.5 -90t86.5 -194zM160 350q0 -138 182 -158v316q-182 -20 -182 -158zM477 192
q182 20 182 158t-182 158v-316z" />
    <glyph glyph-name="uni0425" unicode="&#x425;" horiz-adv-x="600" 
d="M571 28q7 -12 2.5 -20t-18.5 -8h-104q-19 0 -29 16l-122 210l-122 -210q-10 -16 -29 -16h-104q-14 0 -18.5 8t2.5 20l193 332l-182 312q-7 12 -2.5 20t18.5 8h104q20 0 29 -16l111 -190l111 190q9 16 29 16h104q14 0 18.5 -8t-2.5 -20l-182 -312z" />
    <glyph glyph-name="uni0426" unicode="&#x426;" horiz-adv-x="675" 
d="M572 132h52q24 0 24 -24v-228q0 -24 -24 -24h-90q-24 0 -24 24v120h-421q-24 0 -24 24v652q0 24 24 24h90q23 0 23 -24v-544h233v544q0 24 24 24h90q23 0 23 -24v-544z" />
    <glyph glyph-name="uni0427" unicode="&#x427;" horiz-adv-x="616" 
d="M528 700q23 0 23 -24v-652q0 -24 -23 -24h-90q-24 0 -24 24v226q-57 -21 -121 -21q-69 0 -124 26t-87 76.5t-32 118.5v226q0 24 24 24h90q24 0 24 -24v-208q0 -51 29 -79t79 -28q64 0 118 22v293q0 24 24 24h90z" />
    <glyph glyph-name="uni0428" unicode="&#x428;" horiz-adv-x="903" 
d="M700 676q0 24 24 24h90q24 0 24 -24v-652q0 -24 -24 -24h-725q-24 0 -24 24v652q0 24 24 24h90q23 0 23 -24v-544h180v544q0 24 24 24h90q24 0 24 -24v-544h180v544z" />
    <glyph glyph-name="uni0429" unicode="&#x429;" horiz-adv-x="940" 
d="M838 132h51q23 0 23 -24v-228q0 -24 -23 -24h-90q-24 0 -24 24v120h-686q-24 0 -24 24v652q0 24 24 24h90q23 0 23 -24v-544h180v544q0 24 24 24h90q24 0 24 -24v-544h180v544q0 24 24 24h90q24 0 24 -24v-544z" />
    <glyph glyph-name="uni042A" unicode="&#x42a;" horiz-adv-x="690" 
d="M191 0q-23 0 -23 24v544h-144q-24 0 -24 24v84q0 24 24 24h257q24 0 24 -24v-211h124q99 0 167.5 -68t68.5 -164.5t-68.5 -164.5t-167.5 -68h-238zM305 129h124q42 0 70.5 30t28.5 73.5t-28.5 73.5t-70.5 30h-124v-207z" />
    <glyph glyph-name="uni042B" unicode="&#x42b;" horiz-adv-x="829" 
d="M89 0q-24 0 -24 24v652q0 24 24 24h90q23 0 23 -24v-211h124q99 0 167.5 -68t68.5 -164.5t-68.5 -164.5t-167.5 -68h-237zM650 0q-24 0 -24 24v652q0 24 24 24h90q24 0 24 -24v-652q0 -24 -24 -24h-90zM202 129h124q42 0 70.5 30t28.5 73.5t-28.5 73.5t-70.5 30h-124
v-207z" />
    <glyph glyph-name="uni042C" unicode="&#x42c;" horiz-adv-x="588" 
d="M326 465q99 0 167.5 -68t68.5 -164.5t-68.5 -164.5t-167.5 -68h-216h-21q-24 0 -24 24v652q0 24 24 24h90q23 0 23 -24v-211h124zM326 129q42 0 70.5 30t28.5 73.5t-28.5 73.5t-70.5 30h-124v-207h124z" />
    <glyph glyph-name="uni042D" unicode="&#x42d;" horiz-adv-x="749" 
d="M359 714q104 0 186 -48.5t126.5 -131t44.5 -184.5t-44.5 -184.5t-126.5 -131t-186 -48.5q-81 0 -150.5 30.5t-117 84t-67.5 123.5q-3 12 3 19t19 7h96q20 0 27 -20q21 -50 72 -80t118 -30q84 0 140 45t73 121h-288q-24 0 -24 23v82q0 23 24 23h288q-17 76 -73 121
t-140 45q-67 0 -117.5 -30t-71.5 -80q-8 -20 -28 -20h-96q-6 0 -11 2t-7.5 5t-3.5 8t0 11q30 107 121.5 172.5t213.5 65.5z" />
    <glyph glyph-name="uni042E" unicode="&#x42e;" horiz-adv-x="1055" 
d="M659 714q99 0 183 -48t132.5 -132t48.5 -184q0 -75 -29 -142.5t-77.5 -116t-116 -77t-141.5 -28.5q-136 0 -236 87.5t-119 220.5h-101v-270q0 -24 -24 -24h-90q-24 0 -24 24v652q0 24 24 24h90q24 0 24 -24v-250h104q12 62 44.5 115t78 91t105 60t124.5 22zM659 120
q38 0 72.5 11t62 31.5t48.5 48.5t32 63.5t11 75.5q0 100 -65 165t-161 65q-97 0 -161.5 -64t-64.5 -166q0 -100 65 -165t161 -65z" />
    <glyph glyph-name="uni042F" unicode="&#x42f;" horiz-adv-x="635" 
d="M546 700q24 0 24 -24v-652q0 -24 -24 -24h-90q-23 0 -23 24v218h-65l-186 -228q-11 -14 -30 -14h-109q-15 0 -19 9t5 21l193 228q-67 26 -108.5 83t-41.5 127q0 96 69 164t168 68h216h21zM313 364h120v207h-120q-28 0 -51.5 -13.5t-37.5 -37.5t-14 -52q0 -44 30 -74
t73 -30z" />
    <glyph glyph-name="uni0430" unicode="&#x430;" horiz-adv-x="509" 
d="M259 514q88 0 145.5 -51.5t57.5 -145.5v-293q0 -24 -23 -24h-79q-24 0 -24 24v19q-46 -57 -135 -57q-71 0 -120 41.5t-49 116.5t49 116t120 41q85 0 135 -44v53q0 84 -77 84q-28 0 -48 -11.5t-26 -31.5q-8 -21 -25 -21h-80q-25 0 -24 25q10 74 66.5 116.5t136.5 42.5z
M245 81q42 0 66.5 17.5t24.5 45.5q0 29 -24.5 45.5t-66.5 16.5q-41 0 -62 -17t-21 -45t21 -45.5t62 -17.5z" />
    <glyph glyph-name="uni0431" unicode="&#x431;" horiz-adv-x="563" 
d="M292 -14q-114 0 -187 72t-73 183q0 55 15.5 102.5t41 81.5t56 63.5t62.5 53.5t59.5 45.5t48.5 44.5t27 46q6 22 26 22h89q26 0 24 -25q-5 -45 -29 -79.5t-58 -58t-69 -42.5t-69.5 -43t-52.5 -50q52 40 126 40q52 0 101 -26t81.5 -78.5t32.5 -117.5q0 -101 -70.5 -167.5
t-181.5 -66.5zM291.5 104q54.5 0 89.5 33t35 83q0 52 -36.5 85t-91.5 33q-49 0 -86.5 -30.5t-37.5 -82.5q0 -53 36.5 -87t91 -34z" />
    <glyph glyph-name="uni0432" unicode="&#x432;" horiz-adv-x="525" 
d="M425 296q21 -9 37.5 -23.5t27 -32t16 -38t5.5 -43.5q0 -69 -46.5 -114t-133.5 -45h-225h-24q-23 0 -23 24v452q0 24 23 24h98h109q72 0 116 -39t44 -96q0 -37 -24 -69zM270 396h-90v-82h139q8 15 8 30q0 24 -15 38t-42 14zM320 107q32 0 48.5 14.5t16.5 41.5q0 54 -65 54
h-140v-110h140z" />
    <glyph glyph-name="uni0433" unicode="&#x433;" horiz-adv-x="383" 
d="M358 500q23 0 23 -24v-76q0 -24 -23 -24h-170v-352q0 -24 -24 -24h-82q-23 0 -23 24v452q0 24 23 24h106h170z" />
    <glyph glyph-name="uni0434" unicode="&#x434;" horiz-adv-x="578" 
d="M531 116q24 0 24 -23v-93v-120q0 -24 -24 -24h-78q-24 0 -24 24v120h-291v-120q0 -24 -23 -24h-79q-24 0 -24 24v156v57q0 23 24 23h35q46 66 46 182v178q0 24 24 24h102h199h23q24 0 24 -24v-360h42zM210 116l153 1v267h-120v-86q0 -108 -33 -182z" />
    <glyph glyph-name="uni0435" unicode="&#x435;" horiz-adv-x="576" 
d="M298 514q43 0 82 -13.5t69.5 -37.5t52.5 -56.5t33.5 -73t11.5 -83.5q0 -11 -1 -31q-3 -22 -26 -22h-103h-250q12 -52 48.5 -78t86.5 -26q58 0 92 37q14 13 29 13l80 1q13 0 19 -7.5t0 -18.5q-18 -42 -51 -71.5t-76.5 -45t-94.5 -15.5q-79 0 -140.5 35t-94.5 94.5
t-33 134.5q0 113 74.5 188.5t191.5 75.5zM166 298h252q-10 51 -43.5 75.5t-77.5 24.5q-51 0 -85 -26.5t-46 -73.5z" />
    <glyph glyph-name="uni0436" unicode="&#x436;" horiz-adv-x="746" 
d="M713 29q9 -12 4.5 -20.5t-19.5 -8.5h-90q-18 0 -29 16l-143 208v-200q0 -24 -24 -24h-78q-24 0 -24 24v200l-143 -208q-11 -16 -29 -16h-90q-15 0 -19.5 8.5t4.5 20.5l160 223l-151 219q-8 13 -3.5 21t19.5 8h90q19 0 29 -16l133 -202v194q0 24 24 24h78q24 0 24 -24
v-194l133 202q10 16 29 16h90q15 0 19.5 -8t-3.5 -21l-151 -219z" />
    <glyph glyph-name="uni0437" unicode="&#x437;" horiz-adv-x="435" 
d="M352 285q67 -43 67 -129q0 -72 -53 -121t-148 -49q-88 0 -140 41.5t-61 108.5q-1 25 24 25h81q17 0 25 -21q12 -38 71 -38q36 0 54.5 15.5t18.5 44.5q0 26 -19.5 42t-53.5 16h-23q-24 0 -24 24v50q0 24 24 24h28q6 0 12 -1q24 17 24 42q0 21 -13.5 32t-36.5 11
q-37 0 -47 -26q-5 -11 -10.5 -16t-14.5 -5h-79q-11 0 -17.5 6.5t-4.5 18.5q7 63 53 98.5t123 35.5q80 0 126 -41t46 -103q0 -50 -32 -85z" />
    <glyph glyph-name="uni0438" unicode="&#x438;" horiz-adv-x="545" 
d="M379 485q11 15 29 15h54q24 0 24 -24v-452q0 -24 -24 -24h-78q-24 0 -24 24v266l-194 -275q-11 -15 -29 -15h-55q-23 0 -23 24v452q0 24 23 24h79q24 0 24 -24v-266z" />
    <glyph glyph-name="uni0439" unicode="&#x439;" horiz-adv-x="545" 
d="M151 564q-23 0 -23 24v64q0 24 23 24h243q24 0 24 -24v-64q0 -24 -24 -24h-243zM379 485q11 15 29 15h54q24 0 24 -24v-452q0 -24 -24 -24h-78q-24 0 -24 24v266l-194 -275q-11 -15 -29 -15h-55q-23 0 -23 24v452q0 24 23 24h79q24 0 24 -24v-266z" />
    <glyph glyph-name="uni043A" unicode="&#x43a;" horiz-adv-x="517" 
d="M489 29q9 -12 5 -20.5t-18 -8.5h-96q-18 0 -28 14l-164 212v-202q0 -24 -24 -24h-82q-23 0 -23 24v452q0 24 23 24h82q24 0 24 -24v-196l154 206q10 14 28 14h96q15 0 19 -8.5t-5 -20.5l-168 -219z" />
    <glyph glyph-name="uni043B" unicode="&#x43b;" horiz-adv-x="519" 
d="M436 500q24 0 24 -24v-452q0 -24 -24 -24h-81q-24 0 -24 24v352h-110v-168q0 -214 -187 -215q-24 0 -24 25v74q0 19 23 22q59 7 59 102v260q0 24 24 24h105h192h23z" />
    <glyph glyph-name="uni043C" unicode="&#x43c;" horiz-adv-x="653" 
d="M570 500q24 0 24 -24v-452q0 -24 -24 -24h-77q-24 0 -24 24v284l-99 -198q-8 -16 -28 -16h-33q-18 0 -27 16l-99 198v-284q0 -24 -23 -24h-78q-23 0 -23 24v452q0 24 23 24h78h16q19 0 28 -17l122 -244l123 244q9 17 28 17h22h71z" />
    <glyph glyph-name="uni043D" unicode="&#x43d;" horiz-adv-x="545" 
d="M462 500q24 0 24 -24v-452q0 -24 -24 -24h-81q-24 0 -24 24v166h-169v-166q0 -24 -24 -24h-82q-23 0 -23 24v452q0 24 23 24h82q24 0 24 -24v-166h169v166q0 24 24 24h81z" />
    <glyph glyph-name="uni043E" unicode="&#x43e;" horiz-adv-x="594" 
d="M297 -14q-111 0 -188 76.5t-77 187.5t77 187.5t188 76.5t188 -76.5t77 -187.5t-77 -187.5t-188 -76.5zM297 112q58 0 96.5 39t38.5 99t-38.5 99t-96.5 39t-96.5 -39t-38.5 -99t38.5 -99t96.5 -39z" />
    <glyph glyph-name="uni043F" unicode="&#x43f;" horiz-adv-x="545" 
d="M462 500q24 0 24 -24v-452q0 -24 -24 -24h-81q-24 0 -24 24v355h-169v-355q0 -24 -24 -24h-82q-23 0 -23 24v452q0 24 23 24h106h251h23z" />
    <glyph glyph-name="uni0440" unicode="&#x440;" horiz-adv-x="626" 
d="M350 514q101 0 172.5 -76.5t71.5 -187.5t-71.5 -187.5t-172.5 -76.5q-105 0 -162 73v-235q0 -24 -24 -24h-82q-23 0 -23 24v652q0 24 23 24h82q24 0 24 -24v-35q57 73 162 73zM326 109q40 0 71.5 17.5t49.5 50t18 73.5q0 62 -39.5 101.5t-99.5 39.5t-99 -39.5t-39 -101.5
t39 -101.5t99 -39.5z" />
    <glyph glyph-name="uni0441" unicode="&#x441;" horiz-adv-x="566" 
d="M520 182q12 0 18 -7t2 -19q-25 -76 -91.5 -123t-151.5 -47q-75 0 -135.5 35t-95 95.5t-34.5 133.5q0 112 76 188t189 76q85 0 151.5 -47t91.5 -123q4 -12 -2 -19t-18 -7h-90q-17 0 -28 16q-34 52 -105 52q-58 0 -96.5 -38.5t-38.5 -97.5t38.5 -97.5t96.5 -38.5
q22 0 42.5 6t36 17.5t26.5 27.5q10 17 28 17h90z" />
    <glyph glyph-name="uni0442" unicode="&#x442;" horiz-adv-x="423" 
d="M389 500q23 0 23 -24v-73q0 -24 -23 -24h-113v-355q0 -24 -23 -24h-82q-23 0 -23 24v355h-114q-24 0 -24 24v73q0 24 24 24h355z" />
    <glyph glyph-name="uni0443" unicode="&#x443;" horiz-adv-x="495" 
d="M464 500q9 0 14 -3t7 -9t-1 -15l-161 -473q-33 -100 -95 -149.5t-145 -50.5q-11 -1 -17.5 5.5t-6.5 18.5v73q0 23 24 24q41 3 65.5 23.5t39.5 63.5l-180 464q-5 13 0.5 20.5t18.5 7.5h88q20 0 27 -19l114 -310l93 309q6 20 27 20h88z" />
    <glyph glyph-name="uni0444" unicode="&#x444;" horiz-adv-x="685" 
d="M652 250q0 -66 -29 -120t-85 -90.5t-132 -47.5v-168q0 -24 -24 -24h-79q-23 0 -23 24v168q-115 17 -181.5 87.5t-66.5 170.5t66.5 170.5t181.5 87.5v168q0 24 23 24h79q24 0 24 -24v-168q114 -17 180 -87.5t66 -170.5zM160 250q0 -51 31 -86.5t89 -48.5v270
q-58 -13 -89 -48.5t-31 -86.5zM406 115q57 13 88 48.5t31 86.5t-31 86.5t-88 48.5v-270z" />
    <glyph glyph-name="uni0445" unicode="&#x445;" horiz-adv-x="473" 
d="M449 28q8 -12 3.5 -20t-19.5 -8h-85q-18 0 -28 16l-84 132l-84 -132q-10 -16 -28 -16h-85q-14 0 -19 8t3 20l145 228l-137 216q-8 12 -3 20t19 8h85q18 0 28 -16l76 -120l76 120q11 16 29 16h85q14 0 18.5 -8t-2.5 -20l-137 -216z" />
    <glyph glyph-name="uni0446" unicode="&#x446;" horiz-adv-x="575" 
d="M469 121h60q23 0 23 -24v-217q0 -24 -23 -24h-79q-24 0 -24 24v120h-344q-23 0 -23 24v452q0 24 23 24h82q24 0 24 -24v-355h152v355q0 24 24 24h81q24 0 24 -24v-355z" />
    <glyph glyph-name="uni0447" unicode="&#x447;" horiz-adv-x="511" 
d="M429 500q23 0 23 -24v-452q0 -24 -23 -24h-82q-24 0 -24 24v135q-53 -19 -108 -19q-81 0 -130.5 44.5t-49.5 126.5v165q0 24 24 24h81q24 0 24 -24v-150q0 -65 74 -65q44 0 86 19v196q0 24 23 24h82z" />
    <glyph glyph-name="uni0448" unicode="&#x448;" horiz-adv-x="773" 
d="M690 500q24 0 24 -24v-452q0 -24 -24 -24h-105h-263h-220h-20q-23 0 -23 24v452q0 24 23 24h82q24 0 24 -24v-355h134v355q0 24 24 24h81q24 0 24 -24v-355h134v355q0 24 23 24h82z" />
    <glyph glyph-name="uni0449" unicode="&#x449;" horiz-adv-x="788" 
d="M741 121q24 0 24 -24v-97v-120q0 -24 -24 -24h-78q-24 0 -24 24v120h-537h-20q-23 0 -23 24v452q0 24 23 24h82q24 0 24 -24v-355h126v355q0 24 24 24h82q23 0 23 -24v-355h127v355q0 24 24 24h81q24 0 24 -24v-355h42z" />
    <glyph glyph-name="uni044A" unicode="&#x44a;" horiz-adv-x="574" 
d="M362 340q86 0 137.5 -47t51.5 -123t-51.5 -123t-137.5 -47h-195h-7q-24 0 -24 24v355h-112q-24 0 -24 24v73q0 24 24 24h156h62q23 0 23 -24v-136h97zM363 114q18 0 32 7t22 19.5t8 29.5q0 25 -17.5 40.5t-44.5 15.5h-98v-112h98z" />
    <glyph glyph-name="uni044B" unicode="&#x44b;" horiz-adv-x="717" 
d="M285 340q85 0 137 -47t52 -123t-52 -123t-137 -47h-195h-8q-23 0 -23 24v452q0 24 23 24h82q24 0 24 -24v-136h97zM634 500q24 0 24 -24v-452q0 -24 -24 -24h-82q-23 0 -23 24v452q0 24 23 24h82zM286 114q18 0 32 7t22 19.5t8 29.5q0 25 -17.5 40.5t-44.5 15.5h-98v-112
h98z" />
    <glyph glyph-name="uni044C" unicode="&#x44c;" horiz-adv-x="496" 
d="M285 340q85 0 137 -47t52 -123t-52 -123t-137 -47h-195h-8q-23 0 -23 24v452q0 24 23 24h82q24 0 24 -24v-136h97zM286 114q18 0 32 7t22 19.5t8 29.5q0 25 -17.5 40.5t-44.5 15.5h-98v-112h98z" />
    <glyph glyph-name="uni044D" unicode="&#x44d;" horiz-adv-x="561" 
d="M266 514q113 0 187.5 -76t74.5 -188t-74.5 -188t-187.5 -76q-86 0 -153 47t-91 123q-4 12 1.5 19t18.5 7h85q18 0 29 -17q16 -27 46.5 -43.5t67.5 -16.5q22 0 41.5 6.5t35.5 17.5t28 27t19 36h-147q-23 0 -23 24v68q0 24 23 24h147q-15 40 -47.5 63.5t-76.5 23.5
q-37 0 -67.5 -16t-46.5 -44q-10 -17 -28 -17h-86q-13 0 -18.5 7t-1.5 19q25 76 91.5 123t152.5 47z" />
    <glyph glyph-name="uni044E" unicode="&#x44e;" horiz-adv-x="811" 
d="M514 514q111 0 188 -76.5t77 -187.5t-77 -187.5t-188 -76.5q-94 0 -164 57t-90 147h-72v-166q0 -24 -24 -24h-82q-23 0 -23 24v452q0 24 23 24h82q24 0 24 -24v-166h72q20 90 90 147t164 57zM514 112q58 0 97 39t39 99t-39 99t-97 39t-96.5 -39t-38.5 -99t38.5 -99
t96.5 -39z" />
    <glyph glyph-name="uni044F" unicode="&#x44f;" horiz-adv-x="519" 
d="M436 500q24 0 24 -24v-452q0 -24 -24 -24h-78q-24 0 -24 24v132h-52l-117 -142q-11 -14 -29 -14h-94q-15 0 -19 8.5t5 20.5l118 143q-47 21 -74 63.5t-27 92.5q0 70 49.5 121t131.5 51h203h7zM236 385q-29 0 -47 -16.5t-18 -44.5q0 -18 8.5 -32t23 -21t33.5 -7h98v121
h-98z" />
    <glyph glyph-name="uni0451" unicode="&#x451;" horiz-adv-x="576" 
d="M167 565q-19 0 -19 19v79q0 19 19 19h79q19 0 19 -19v-79q0 -19 -19 -19h-79zM352 565q-20 0 -20 19v79q0 19 20 19h78q20 0 20 -19v-79q0 -19 -20 -19h-78zM298 514q43 0 82 -13.5t69.5 -37.5t52.5 -56.5t33.5 -73t11.5 -83.5q0 -11 -1 -31q-3 -22 -26 -22h-103h-250
q12 -52 48.5 -78t86.5 -26q58 0 92 37q14 13 29 13l80 1q13 0 19 -7.5t0 -18.5q-18 -42 -51 -71.5t-76.5 -45t-94.5 -15.5q-79 0 -140.5 35t-94.5 94.5t-33 134.5q0 113 74.5 188.5t191.5 75.5zM166 298h252q-10 51 -43.5 75.5t-77.5 24.5q-51 0 -85 -26.5t-46 -73.5z" />
    <glyph glyph-name="uni0452" unicode="&#x452;" horiz-adv-x="533" 
d="M330 514q72 0 117 -52.5t45 -141.5v-330q0 -104 -47.5 -154.5t-145.5 -49.5q-24 0 -24 24v76q0 23 24 25q33 2 48.5 21t15.5 58v320q0 41 -21.5 62.5t-57.5 21.5q-41 0 -65.5 -25.5t-24.5 -78.5v-266q0 -24 -24 -24h-81q-24 0 -24 24v530h-39q-24 0 -24 23v37q0 24 24 24
h39v38q0 24 24 24h81q24 0 24 -24v-38h117q24 0 24 -24v-37q0 -23 -24 -23h-117v-105q43 65 136 65z" />
    <glyph glyph-name="uni0453" unicode="&#x453;" horiz-adv-x="383" 
d="M155 562q-13 0 -17.5 8t2.5 20l54 94q9 16 28 16h100q14 0 18.5 -9t-4.5 -20l-78 -95q-10 -14 -28 -14h-75zM358 500q23 0 23 -24v-76q0 -24 -23 -24h-170v-352q0 -24 -24 -24h-82q-23 0 -23 24v452q0 24 23 24h106h170z" />
    <glyph glyph-name="uni0454" unicode="&#x454;" horiz-adv-x="561" 
d="M519 182q13 0 18.5 -7t1.5 -19q-24 -76 -91 -123t-153 -47q-113 0 -188 76t-75 188t75 188t188 76q86 0 152.5 -47t91.5 -123q4 -12 -1.5 -19t-18.5 -7h-86q-18 0 -28 17q-6 11 -15 20t-20 16.5t-23.5 12.5t-26.5 8t-29 3q-44 0 -76.5 -23.5t-47.5 -63.5h147q24 0 24 -24
v-68q0 -24 -24 -24h-147q15 -40 47.5 -63.5t76.5 -23.5q37 0 67.5 16.5t46.5 43.5q11 17 29 17h85z" />
    <glyph glyph-name="uni0455" unicode="&#x455;" horiz-adv-x="480" 
d="M173 355q0 -20 20 -32.5t49.5 -17.5t64.5 -15t65 -23.5t50 -44.5t20 -77q0 -76 -57.5 -117.5t-144.5 -41.5q-81 0 -136.5 38t-64.5 110q-2 25 23 25h80q16 0 26 -20q12 -39 72 -39q73 0 73 45q0 17 -15 28.5t-38.5 17.5t-52.5 12t-57.5 16t-52.5 25t-38.5 43.5
t-14.5 67.5q0 75 56.5 117t139.5 42q74 0 128 -38.5t62 -109.5q3 -25 -23 -25h-80q-10 0 -15 5t-10 16q-11 38 -62 38q-31 0 -49 -12t-18 -33z" />
    <glyph glyph-name="uni0456" unicode="&#x456;" horiz-adv-x="247" 
d="M82 570q-23 0 -23 24v82q0 24 23 24h82q24 0 24 -24v-82q0 -24 -24 -24h-82zM82 0q-23 0 -23 24v452q0 24 23 24h82q24 0 24 -24v-452q0 -24 -24 -24h-82z" />
    <glyph glyph-name="uni0457" unicode="&#x457;" horiz-adv-x="247" 
d="M-8 561q-20 0 -20 20v78q0 20 20 20h78q20 0 20 -20v-78q0 -20 -20 -20h-78zM176 561q-19 0 -19 20v78q0 20 19 20h79q19 0 19 -20v-78q0 -20 -19 -20h-79zM82 0q-23 0 -23 24v452q0 24 23 24h82q24 0 24 -24v-452q0 -24 -24 -24h-82z" />
    <glyph glyph-name="uni0458" unicode="&#x458;" horiz-adv-x="264" 
d="M181 700q24 0 24 -24v-82q0 -24 -24 -24h-81q-24 0 -24 24v82q0 24 24 24h81zM181 500q24 0 24 -24v-486q0 -104 -47.5 -154.5t-146.5 -49.5q-23 0 -23 24v76q0 23 24 25q33 2 48.5 21t15.5 58v486q0 24 24 24h81z" />
    <glyph glyph-name="uni0459" unicode="&#x459;" horiz-adv-x="741" 
d="M540 328q79 0 128.5 -44.5t49.5 -119.5t-50 -119.5t-128 -44.5h-188h-7q-24 0 -24 24v352h-100v-168q0 -214 -187 -215q-24 0 -24 25v74q0 19 23 22q59 7 59 102v260q0 24 24 24h105h182h23q24 0 24 -24v-148h90zM540 114q22 0 37 13t15 37t-15 37t-37 13h-90v-100h90z
" />
    <glyph glyph-name="uni045A" unicode="&#x45a;" horiz-adv-x="760" 
d="M558 328q80 0 129.5 -44.5t49.5 -119.5t-50 -119.5t-129 -44.5h-187h-7q-24 0 -24 24v182h-160v-182q0 -24 -24 -24h-81q-24 0 -24 24v452q0 24 24 24h81q24 0 24 -24v-148h160v148q0 24 24 24h81q24 0 24 -24v-148h89zM559 114q22 0 37 13t15 37t-15 37t-37 13h-90v-100
h90z" />
    <glyph glyph-name="uni045B" unicode="&#x45b;" horiz-adv-x="539" 
d="M330 514q72 0 117 -52.5t45 -141.5v-296q0 -24 -23 -24h-82q-24 0 -24 24v286q0 41 -21.5 62.5t-57.5 21.5q-41 0 -65.5 -25.5t-24.5 -78.5v-266q0 -24 -24 -24h-81q-24 0 -24 24v530h-39q-24 0 -24 23v37q0 24 24 24h39v38q0 24 24 24h81q24 0 24 -24v-38h117
q24 0 24 -24v-37q0 -23 -24 -23h-117v-105q43 65 136 65z" />
    <glyph glyph-name="uni045C" unicode="&#x45c;" horiz-adv-x="517" 
d="M213 562q-14 0 -18.5 8t2.5 20l55 94q9 16 28 16h99q15 0 19 -9t-5 -20l-77 -95q-10 -14 -29 -14h-74zM489 29q9 -12 5 -20.5t-18 -8.5h-96q-18 0 -28 14l-164 212v-202q0 -24 -24 -24h-82q-23 0 -23 24v452q0 24 23 24h82q24 0 24 -24v-196l154 206q10 14 28 14h96
q15 0 19 -8.5t-5 -20.5l-168 -219z" />
    <glyph glyph-name="uni045E" unicode="&#x45e;" horiz-adv-x="495" 
d="M124 564q-24 0 -24 24v64q0 24 24 24h242q24 0 24 -24v-64q0 -24 -24 -24h-242zM464 500q9 0 14 -3t7 -9t-1 -15l-161 -473q-33 -100 -95 -149.5t-145 -50.5q-11 -1 -17.5 5.5t-6.5 18.5v73q0 23 24 24q41 3 65.5 23.5t39.5 63.5l-180 464q-5 13 0.5 20.5t18.5 7.5h88
q20 0 27 -19l114 -310l93 309q6 20 27 20h88z" />
    <glyph glyph-name="uni045F" unicode="&#x45f;" horiz-adv-x="545" 
d="M462 500q24 0 24 -24v-452q0 -24 -24 -24h-105h-21v-120q0 -24 -24 -24h-79q-23 0 -23 24v120h-108h-20q-23 0 -23 24v452q0 24 23 24h82q24 0 24 -24v-355h169v355q0 24 24 24h81z" />
    <glyph glyph-name="uni0490" unicode="&#x490;" horiz-adv-x="475" 
d="M439 820q23 0 23 -24v-164v-40q0 -24 -23 -24h-237v-544q0 -24 -23 -24h-90q-24 0 -24 24v652q0 24 24 24h113h123v96q0 24 24 24h90z" />
    <glyph glyph-name="uni0491" unicode="&#x491;" horiz-adv-x="383" 
d="M358 601q23 0 23 -24v-126v-51q0 -24 -23 -24h-170v-352q0 -24 -24 -24h-82q-23 0 -23 24v452q0 24 23 24h106h67v77q0 24 24 24h79z" />
    <glyph glyph-name="Wgrave" unicode="&#x1e80;" horiz-adv-x="890" 
d="M389 774l-83 102q-7 10 -3.5 17t15.5 7h109q16 0 23 -14l59 -100q6 -10 2 -17t-16 -7h-82q-16 0 -24 12zM860 700q27 0 20 -27l-186 -653q-5 -20 -26 -20h-111q-21 0 -27 20l-85 300l-85 -300q-6 -20 -27 -20h-111q-21 0 -26 20l-186 653q-7 27 20 27h95q21 0 25 -21
l135 -504l100 357l-40 141q-8 27 20 27h79q21 0 26 -21l135 -504l135 504q4 21 25 21h95z" />
    <glyph glyph-name="wgrave" unicode="&#x1e81;" horiz-adv-x="725" 
d="M306 574l-82 102q-8 10 -4.5 17t16.5 7h108q17 0 24 -14l58 -100q6 -10 2 -17t-15 -7h-82q-16 0 -25 12zM686 500q9 0 14.5 -3.5t7 -9.5t-1.5 -14l-148 -453q-6 -20 -27 -20h-69h-13q-21 0 -27 20l-59 181l-60 -181q-6 -20 -27 -20h-53h-29q-21 0 -27 20l-148 453
q-4 12 1.5 19.5t17.5 7.5h89q21 0 26 -20l92 -322l65 204l-36 111q-4 12 1.5 19.5t18.5 7.5h65q21 0 27 -20l98 -310l88 310q5 20 26 20h88z" />
    <glyph glyph-name="Wacute" unicode="&#x1e82;" horiz-adv-x="890" 
d="M397 762q-14 0 -18.5 8t2.5 20l55 94q9 16 28 16h99q15 0 19 -9t-5 -20l-77 -95q-10 -14 -29 -14h-74zM860 700q27 0 20 -27l-186 -653q-5 -20 -26 -20h-111q-21 0 -27 20l-85 300l-85 -300q-6 -20 -27 -20h-111q-21 0 -26 20l-186 653q-7 27 20 27h95q21 0 25 -21
l135 -504l100 357l-40 141q-8 27 20 27h79q21 0 26 -21l135 -504l135 504q4 21 25 21h95z" />
    <glyph glyph-name="wacute" unicode="&#x1e83;" horiz-adv-x="725" 
d="M314 562q-13 0 -17.5 8t1.5 20l55 94q9 16 28 16h100q14 0 18.5 -9t-4.5 -20l-77 -95q-11 -14 -29 -14h-75zM686 500q9 0 14.5 -3.5t7 -9.5t-1.5 -14l-148 -453q-6 -20 -27 -20h-69h-13q-21 0 -27 20l-59 181l-60 -181q-6 -20 -27 -20h-53h-29q-21 0 -27 20l-148 453
q-4 12 1.5 19.5t17.5 7.5h89q21 0 26 -20l92 -322l65 204l-36 111q-4 12 1.5 19.5t18.5 7.5h65q21 0 27 -20l98 -310l88 310q5 20 26 20h88z" />
    <glyph glyph-name="Wdieresis" unicode="&#x1e84;" horiz-adv-x="890" 
d="M313 761q-19 0 -19 20v78q0 20 19 20h79q19 0 19 -20v-78q0 -20 -19 -20h-79zM498 761q-19 0 -19 20v78q0 20 19 20h79q19 0 19 -20v-78q0 -20 -19 -20h-79zM860 700q27 0 20 -27l-186 -653q-5 -20 -26 -20h-111q-21 0 -27 20l-85 300l-85 -300q-6 -20 -27 -20h-111
q-21 0 -26 20l-186 653q-7 27 20 27h95q21 0 25 -21l135 -504l100 357l-40 141q-8 27 20 27h79q21 0 26 -21l135 -504l135 504q4 21 25 21h95z" />
    <glyph glyph-name="wdieresis" unicode="&#x1e85;" horiz-adv-x="725" 
d="M231 561q-20 0 -20 20v78q0 20 20 20h78q20 0 20 -20v-78q0 -20 -20 -20h-78zM416 561q-20 0 -20 20v78q0 20 20 20h78q20 0 20 -20v-78q0 -20 -20 -20h-78zM686 500q9 0 14.5 -3.5t7 -9.5t-1.5 -14l-148 -453q-6 -20 -27 -20h-69h-13q-21 0 -27 20l-59 181l-60 -181
q-6 -20 -27 -20h-53h-29q-21 0 -27 20l-148 453q-4 12 1.5 19.5t17.5 7.5h89q21 0 26 -20l92 -322l65 204l-36 111q-4 12 1.5 19.5t18.5 7.5h65q21 0 27 -20l98 -310l88 310q5 20 26 20h88z" />
    <glyph glyph-name="Ygrave" unicode="&#x1ef2;" horiz-adv-x="601" 
d="M244 774l-83 102q-8 10 -4 17t16 7h109q16 0 23 -14l59 -100q5 -10 1.5 -17t-15.5 -7h-82q-16 0 -24 12zM566 700q14 0 18.5 -8t-2.5 -20l-213 -361v-287q0 -24 -24 -24h-90q-23 0 -23 24v287l-213 361q-7 12 -2.5 20t18.5 8h105q19 0 27 -17l134 -240l133 240
q9 17 28 17h104z" />
    <glyph glyph-name="ygrave" unicode="&#x1ef3;" horiz-adv-x="500" 
d="M300 562q12 0 16 7t-2 17l-59 100q-7 14 -23 14h-109q-12 0 -15.5 -7t4.5 -17l82 -102q8 -12 24 -12h82zM354 480q6 20 27 20h88q13 0 18.5 -7t1.5 -20l-221 -654q-6 -19 -28 -19h-88q-13 0 -18.5 7t-1.5 20l62 180l-181 465q-4 13 1 20.5t18 7.5h88q20 0 27 -19
l111 -296z" />
    <glyph glyph-name="endash" unicode="&#x2013;" horiz-adv-x="645" 
d="M89 240q-24 0 -24 23v77q0 24 24 24h467q24 0 24 -24v-77q0 -23 -24 -23h-467z" />
    <glyph glyph-name="emdash" unicode="&#x2014;" horiz-adv-x="745" 
d="M89 240q-24 0 -24 23v77q0 24 24 24h567q24 0 24 -24v-77q0 -23 -24 -23h-567z" />
    <glyph glyph-name="quoteleft" unicode="&#x2018;" horiz-adv-x="268" 
d="M188 646q-26 -6 -38 -24t-12 -55h43q24 0 24 -24v-95q0 -24 -24 -24h-95q-24 0 -24 24v119q0 58 32.5 94t91.5 43q19 2 19 -17v-22q0 -15 -17 -19z" />
    <glyph glyph-name="quoteright" unicode="&#x2019;" horiz-adv-x="268" 
d="M181 700q24 0 24 -24v-118q0 -59 -32.5 -95t-90.5 -43q-20 -2 -20 18v21q0 16 18 19q26 6 37.5 24.5t11.5 55.5h-43q-24 0 -24 23v95q0 24 24 24h95z" />
    <glyph glyph-name="quotesinglbase" unicode="&#x201a;" horiz-adv-x="268" 
d="M181 142q24 0 24 -23v-119q0 -58 -32.5 -94.5t-90.5 -43.5q-20 -1 -20 18v22q0 15 18 19q26 5 37.5 23.5t11.5 55.5h-43q-24 0 -24 24v95q0 23 24 23h95z" />
    <glyph glyph-name="quotedblleft" unicode="&#x201c;" horiz-adv-x="453" 
d="M186 704q19 2 19 -17v-22q0 -15 -17 -19q-26 -6 -38 -24t-12 -55h43q24 0 24 -24v-95q0 -24 -24 -24h-95q-24 0 -24 24v119q0 58 32.5 94t91.5 43zM372 646q-25 -6 -37 -24t-12 -55h43q24 0 24 -24v-95q0 -24 -24 -24h-95q-23 0 -23 24v119q0 58 32 94t90 43q20 2 20 -17
v-22q0 -15 -18 -19z" />
    <glyph glyph-name="quotedblright" unicode="&#x201d;" horiz-adv-x="453" 
d="M181 700q24 0 24 -24v-118q0 -59 -32.5 -95t-90.5 -43q-20 -2 -20 18v21q0 16 18 19q26 6 37.5 24.5t11.5 55.5h-43q-24 0 -24 23v95q0 24 24 24h95zM366 700q24 0 24 -24v-118q0 -59 -32.5 -95t-90.5 -43q-19 -2 -19 18v21q0 16 17 19q26 6 37.5 24.5t11.5 55.5h-43
q-23 0 -23 23v95q0 24 23 24h95z" />
    <glyph glyph-name="quotedblbase" unicode="&#x201e;" horiz-adv-x="453" 
d="M181 142q24 0 24 -23v-119q0 -58 -32.5 -94.5t-90.5 -43.5q-20 -1 -20 18v22q0 15 18 19q26 5 37.5 23.5t11.5 55.5h-43q-24 0 -24 24v95q0 23 24 23h95zM366 142q24 0 24 -23v-119q0 -58 -32.5 -94.5t-90.5 -43.5q-19 -1 -19 18v22q0 15 17 19q26 5 37.5 23.5t11.5 55.5
h-43q-23 0 -23 24v95q0 23 23 23h95z" />
    <glyph glyph-name="dagger" unicode="&#x2020;" horiz-adv-x="480" 
d="M411 565q24 0 24 -24v-76q0 -24 -24 -24h-107v-417q0 -24 -23 -24h-82q-23 0 -23 24v417h-107q-24 0 -24 24v76q0 24 24 24h107v111q0 24 23 24h82q23 0 23 -24v-111h107z" />
    <glyph glyph-name="daggerdbl" unicode="&#x2021;" horiz-adv-x="480" 
d="M411 441h-107v-182h107q24 0 24 -24v-76q0 -24 -24 -24h-107v-111q0 -24 -23 -24h-82q-23 0 -23 24v111h-107q-24 0 -24 24v76q0 24 24 24h107v182h-107q-24 0 -24 24v76q0 24 24 24h107v111q0 24 23 24h82q23 0 23 -24v-111h107q24 0 24 -24v-76q0 -24 -24 -24z" />
    <glyph glyph-name="bullet" unicode="&#x2022;" horiz-adv-x="360" 
d="M182 212q-58 0 -99 41t-41 99q0 56 41 96t99 40q56 0 96 -40t40 -96q0 -58 -40 -99t-96 -41z" />
    <glyph glyph-name="ellipsis" unicode="&#x2026;" horiz-adv-x="723" 
d="M86 0q-24 0 -24 24v95q0 23 24 23h95q24 0 24 -23v-95q0 -24 -24 -24h-95zM314 0q-24 0 -24 24v95q0 23 24 23h95q23 0 23 -23v-95q0 -24 -23 -24h-95zM541 0q-23 0 -23 24v95q0 23 23 23h95q24 0 24 -23v-95q0 -24 -24 -24h-95z" />
    <glyph glyph-name="perthousand" unicode="&#x2030;" horiz-adv-x="1160" 
d="M214 384q-72 0 -120.5 47.5t-48.5 117t48.5 117.5t120.5 48q35 0 66.5 -13.5t53.5 -35.5t35 -52.5t13 -64.5q0 -69 -48 -116.5t-120 -47.5zM127 0q-15 0 -19.5 8t4.5 20l460 657q10 15 28 15h70q15 0 19.5 -8t-3.5 -20l-462 -657q-11 -15 -28 -15h-69zM213 485
q27 0 45 18.5t18 44.5q0 28 -17.5 46t-45.5 18q-27 0 -44.5 -18t-17.5 -45.5t17.5 -45.5t44.5 -18zM585 -12q-72 0 -120.5 48t-48.5 117q0 45 21.5 83t60.5 60t87 22q71 0 119.5 -48t48.5 -117t-48.5 -117t-119.5 -48zM960 -12q-72 0 -120.5 48t-48.5 117q0 45 21.5 83
t60.5 60t87 22q71 0 119.5 -48t48.5 -117t-48.5 -117t-119.5 -48zM584 89q14 0 25.5 5.5t20 14t13 20t4.5 24.5q0 18 -8 32.5t-22.5 23t-32.5 8.5q-27 0 -44.5 -18.5t-17.5 -45.5t17.5 -45.5t44.5 -18.5zM959 89q14 0 25.5 5.5t20 14t13 20t4.5 24.5q0 18 -8 32.5t-22.5 23
t-32.5 8.5q-27 0 -44.5 -18.5t-17.5 -45.5t17.5 -45.5t44.5 -18.5z" />
    <glyph glyph-name="guilsinglleft" unicode="&#x2039;" horiz-adv-x="355" 
d="M259 496q14 0 19 -7.5t-2 -20.5l-94 -159l94 -159q7 -13 2 -20.5t-19 -7.5h-67q-20 0 -29 16l-91 155q-10 16 0 32l91 155q9 16 29 16h67z" />
    <glyph glyph-name="guilsinglright" unicode="&#x203a;" horiz-adv-x="355" 
d="M96 496h67q19 0 29 -16l90 -155q10 -16 0 -32l-90 -155q-10 -16 -29 -16h-67q-15 0 -19.5 7.5t2.5 20.5l93 159l-93 159q-7 13 -2.5 20.5t19.5 7.5z" />
    <glyph glyph-name="fraction" unicode="&#x2044;" horiz-adv-x="190" 
d="M-118 0q-13 0 -18 8t2 20l374 656q10 16 29 16h39q13 0 18 -8t-2 -20l-374 -656q-10 -16 -29 -16h-39z" />
    <glyph glyph-name="Euro" unicode="&#x20ac;" horiz-adv-x="645" 
d="M596 249q13 0 19 -7t4 -19q-19 -110 -87 -173.5t-172 -63.5q-112 0 -183 72.5t-90 198.5h-49q-20 0 -20 20v37q0 20 20 20h42v16v24h-42q-20 0 -20 20v37q0 20 20 20h50q21 122 91.5 192.5t180.5 70.5q68 0 121.5 -28t87.5 -79.5t47 -121.5q2 -12 -3.5 -19t-17.5 -7h-92
q-20 0 -26 22q-5 24 -15.5 42.5t-25.5 31t-34 19t-42 6.5q-104 0 -133 -129h186q20 0 20 -20v-37q0 -20 -20 -20h-195v-24v-16h195q20 0 20 -20v-37q0 -20 -20 -20h-187q26 -137 134 -137q47 0 78.5 27.5t41.5 79.5q4 22 25 22h91z" />
    <glyph glyph-name="uni20BD" unicode="&#x20bd;" horiz-adv-x="601" 
d="M349 242h-124v-54h201q22 0 22 -21v-45q0 -22 -22 -22h-201v-76q0 -24 -24 -24h-90q-23 0 -23 24v76h-54q-22 0 -22 22v45q0 21 22 21h54v54h-52q-24 0 -24 24v74q0 24 24 24h52v312q0 24 23 24h114h124q65 0 119.5 -31t85.5 -84.5t31 -116.5q0 -96 -68 -161t-168 -65z
M225 571v-207h124q42 0 70.5 30t28.5 73.5t-28.5 73.5t-70.5 30h-124z" />
    <glyph glyph-name="uni2116" unicode="&#x2116;" horiz-adv-x="1004" 
d="M803 384q-72 0 -120 48t-48 116q0 70 48 118t120 48t120 -48t48 -118q0 -45 -21 -82.5t-60 -59.5t-87 -22zM442 676q0 24 24 24h90q24 0 24 -24v-652q0 -24 -24 -24h-62q-20 0 -29 15l-263 417v-408q0 -24 -23 -24h-90q-24 0 -24 24v652q0 24 24 24h62q20 0 29 -15
l262 -417v408zM803 488q18 0 31.5 8t20.5 21.5t7 30.5q0 18 -7.5 31.5t-21 21t-30.5 7.5q-26 0 -42.5 -17t-16.5 -43q0 -10 2.5 -19t8 -16.5t12.5 -13t16.5 -8.5t19.5 -3zM672 208q-24 0 -24 23v74q0 23 24 23h265q23 0 23 -23v-74q0 -23 -23 -23h-265z" />
    <glyph glyph-name="trademark" unicode="&#x2122;" horiz-adv-x="466" 
d="M185 700q11 0 11 -12v-32q0 -12 -11 -12h-40v-132q0 -12 -12 -12h-37q-12 0 -12 12v132h-40q-12 0 -12 12v32q0 12 12 12h101h40zM422 700q11 0 11 -12v-176q0 -12 -11 -12h-38q-11 0 -11 12v91l-29 -54q-3 -8 -12 -8h-14q-9 0 -12 8l-31 58v-95q0 -12 -12 -12h-35
q-11 0 -11 12v176q0 12 11 12h35h9q9 0 13 -8l40 -81l40 81q4 8 13 8h31h13z" />
    <glyph glyph-name="estimated" unicode="&#x212e;" horiz-adv-x="790" 
d="M395 710q163 0 266.5 -104t103.5 -256q0 -15 -15 -15h-560q-15 0 -15 -15v-192q0 -11 7 -19q84 -89 233 -89q145 0 231 97q8 9 18 9h37q10 0 13 -6t-4 -13q-109 -117 -295 -117q-176 0 -283 103.5t-107 256.5q0 152 103.5 256t266.5 104zM615 572q0 11 -7 19
q-84 89 -213 89t-213 -89q-7 -8 -7 -19v-192q0 -15 15 -15h410q15 0 15 15v192z" />
    <glyph glyph-name="oneeighth" unicode="&#x215b;" horiz-adv-x="807" 
d="M196 300h-62q-22 0 -22 23v269l-72 -38q-12 -7 -20 -2t-8 18v58q0 18 17 27l69 38q13 7 28 7h70q22 0 22 -23v-354q0 -23 -22 -23zM575 700q14 0 18.5 -8t-2.5 -20l-374 -656q-9 -16 -29 -16h-38q-14 0 -18.5 8t2.5 20l374 656q9 16 28 16h39zM727 210q59 -34 59 -101
q0 -37 -18.5 -64.5t-53 -43t-82.5 -15.5q-72 0 -113 33.5t-41 89.5q0 67 59 101q-45 31 -45 83q0 37 18.5 64.5t50 41.5t71.5 14q61 0 100.5 -32t39.5 -88q0 -52 -45 -83zM632 323q-23 0 -35.5 -10t-12.5 -29q0 -12 5.5 -20.5t16.5 -13t26 -4.5q21 0 34.5 10t13.5 28
q0 19 -13.5 29t-34.5 10zM632 78q25 0 38.5 12.5t13.5 33.5q0 13 -6 23.5t-18 15.5t-28 5q-17 0 -28.5 -5t-18 -15.5t-6.5 -23.5q0 -21 14 -33.5t39 -12.5z" />
    <glyph glyph-name="threeeighths" unicode="&#x215c;" horiz-adv-x="887" 
d="M324 421q0 -65 -41.5 -100t-113.5 -35q-43 0 -76 13t-52.5 37.5t-24.5 60.5q-2 11 4 17.5t18 6.5h64q6 0 10.5 -3t6.5 -6t7 -10q10 -22 43 -22q47 0 47 41q0 9 -3 16.5t-9 12.5t-15 7.5t-20 2.5h-37q-23 0 -23 24v22q0 17 10 28l57 68h-123q-23 0 -23 24v51q0 23 23 23
h229q23 0 23 -23v-40q0 -16 -10 -29l-60 -73q42 -13 65.5 -42.5t23.5 -71.5zM655 700q14 0 18.5 -8t-2.5 -20l-374 -656q-9 -16 -29 -16h-38q-14 0 -18.5 8t2.5 20l374 656q9 16 28 16h39zM807 210q59 -34 59 -101q0 -37 -18 -64.5t-53 -43t-83 -15.5q-72 0 -113 33.5
t-41 89.5q0 67 59 101q-45 31 -45 83q0 28 11 51t29.5 38t44.5 23t55 8q61 0 100.5 -32t39.5 -88q0 -52 -45 -83zM712 323q-22 0 -35 -10t-13 -29q0 -12 6 -20.5t16.5 -13t25.5 -4.5q21 0 34.5 10t13.5 28q0 19 -13.5 29t-34.5 10zM712 78q25 0 39 12.5t14 33.5
q0 13 -6.5 23.5t-18.5 15.5t-28 5t-28 -5t-18 -15.5t-6 -23.5q0 -21 13.5 -33.5t38.5 -12.5z" />
    <glyph glyph-name="fiveeighths" unicode="&#x215d;" horiz-adv-x="874" 
d="M310 417q0 -63 -40.5 -97t-105.5 -34q-39 0 -69.5 12t-51 37t-25.5 61q-2 11 4.5 17t17.5 6h55q5 0 8.5 -1t6.5 -4.5t4.5 -5.5t5.5 -8q10 -22 44 -22q23 0 35.5 11.5t12.5 29.5q0 13 -6 22.5t-16.5 15t-25.5 5.5h-110q-23 0 -22 24l13 192q2 22 24 22h199q23 0 23 -23
v-51q0 -23 -23 -23h-126l-4 -54h30q43 0 74 -13.5t49.5 -44t18.5 -74.5zM642 700q14 0 18.5 -8t-2.5 -20l-374 -656q-9 -16 -29 -16h-38q-14 0 -18.5 8t1.5 20l375 656q9 16 28 16h39zM794 210q58 -34 58 -101q0 -37 -18 -64.5t-52.5 -43t-82.5 -15.5q-72 0 -113 33.5
t-41 89.5q0 67 59 101q-45 31 -45 83q0 28 10.5 51t29.5 38t44.5 23t55.5 8q61 0 100.5 -32t39.5 -88q0 -52 -45 -83zM699 323q-23 0 -35.5 -10t-12.5 -29q0 -12 5.5 -20.5t16.5 -13t26 -4.5q21 0 34.5 10t13.5 28q0 19 -13.5 29t-34.5 10zM699 78q25 0 39 12.5t14 33.5
q0 13 -6.5 23.5t-18.5 15.5t-28 5q-17 0 -28.5 -5t-18 -15.5t-6.5 -23.5q0 -21 14 -33.5t39 -12.5z" />
    <glyph glyph-name="seveneighths" unicode="&#x215e;" horiz-adv-x="835" 
d="M274 604l-114 -286q-7 -18 -26 -18h-64q-12 0 -17.5 7.5t-0.5 19.5l111 275h-137q-24 0 -24 24v51q0 23 24 23h230q23 0 23 -23v-45q0 -14 -5 -28zM603 700q14 0 18.5 -8t-2.5 -20l-374 -656q-9 -16 -29 -16h-38q-14 0 -18.5 8t2.5 20l374 656q9 16 28 16h39zM755 210
q59 -34 59 -101q0 -37 -18.5 -64.5t-53 -43t-82.5 -15.5q-72 0 -113 33.5t-41 89.5q0 67 59 101q-45 31 -45 83q0 28 10.5 51t29.5 38t44.5 23t55.5 8q61 0 100.5 -32t39.5 -88q0 -52 -45 -83zM660 323q-23 0 -35.5 -10t-12.5 -29q0 -12 5.5 -20.5t16.5 -13t26 -4.5
q21 0 34.5 10t13.5 28q0 19 -13.5 29t-34.5 10zM660 78q25 0 38.5 12.5t13.5 33.5q0 13 -6 23.5t-18 15.5t-28 5q-17 0 -28.5 -5t-18 -15.5t-6.5 -23.5q0 -21 14 -33.5t39 -12.5z" />
    <glyph glyph-name="arrowleft" unicode="&#x2190;" horiz-adv-x="798" 
d="M729 412q23 0 23 -24v-76q0 -24 -23 -24h-451l208 -208q12 -12 8 -21t-20 -9h-112q-17 0 -29 12l-271 271q-17 17 0 34l271 271q12 12 29 12h112q16 0 20 -9t-8 -21l-208 -208h451z" />
    <glyph glyph-name="arrowup" unicode="&#x2191;" horiz-adv-x="690" 
d="M633 412q12 -12 12 -29v-112q0 -16 -9 -20t-20 7l-206 206v-440q0 -24 -24 -24h-82q-24 0 -24 24v440l-206 -206q-11 -11 -20 -7t-9 20v112q0 17 12 29l271 271q17 17 34 0z" />
    <glyph glyph-name="arrowright" unicode="&#x2192;" horiz-adv-x="798" 
d="M736 367q16 -17 0 -34l-271 -271q-13 -12 -29 -12h-113q-16 0 -19.5 9t7.5 21l209 208h-451q-24 0 -24 24v76q0 24 24 24h451l-209 208q-11 12 -7.5 21t19.5 9h113q16 0 29 -12z" />
    <glyph glyph-name="arrowdown" unicode="&#x2193;" horiz-adv-x="690" 
d="M616 442q11 11 20 7t9 -20v-112q0 -17 -12 -29l-271 -271q-17 -17 -34 0l-271 271q-12 12 -12 29v112q0 16 9 20t20 -7l206 -206v440q0 24 24 24h82q24 0 24 -24v-440z" />
    <glyph glyph-name="arrowboth" unicode="&#x2194;" horiz-adv-x="1085" 
d="M1023 367q17 -17 0 -34l-243 -243q-12 -12 -29 -12h-109q-16 0 -20 9t7 20l181 181h-535l181 -181q11 -11 7 -20t-20 -9h-109q-17 0 -29 12l-243 243q-17 17 0 34l243 243q12 12 29 12h109q16 0 20 -9t-7 -20l-181 -181h535l-181 181q-11 11 -7 20t20 9h109q17 0 29 -12z
" />
    <glyph glyph-name="arrowupdn" unicode="&#x2195;" horiz-adv-x="635" 
d="M560 437l-178 178v-530l178 178q12 11 21 7.5t9 -19.5v-109q0 -17 -12 -29l-244 -243q-16 -17 -34 0l-243 243q-12 12 -12 29v109q0 16 9 19.5t20 -7.5l179 -178v530l-179 -178q-11 -11 -20 -7.5t-9 19.5v109q0 17 12 30l243 242q18 18 34 0l244 -242q12 -13 12 -30v-109
q0 -16 -9 -19.5t-21 7.5z" />
    <glyph glyph-name="uni2196" unicode="&#x2196;" horiz-adv-x="643" 
d="M581 164q17 -16 0 -34l-53 -53q-17 -17 -34 0l-328 327v-294q0 -16 -9 -19.5t-21 7.5l-79 79q-12 12 -12 29v384q0 23 24 23h383q17 0 29 -12l79 -79q11 -11 7.5 -20.5t-19.5 -9.5h-294z" />
    <glyph glyph-name="uni2197" unicode="&#x2197;" horiz-adv-x="643" 
d="M574 613q24 0 24 -23v-384q0 -17 -12 -29l-79 -79q-11 -11 -20 -7.5t-9 19.5v294l-328 -327q-18 -17 -34 0l-54 53q-17 18 0 34l327 328h-294q-16 0 -19.5 9.5t7.5 20.5l79 79q12 12 29 12h383z" />
    <glyph glyph-name="uni2198" unicode="&#x2198;" horiz-adv-x="643" 
d="M586 509q12 -13 12 -29v-384q0 -24 -24 -24h-383q-17 0 -29 13l-79 79q-11 11 -7.5 20t19.5 9h294l-327 328q-17 17 0 34l54 54q16 17 34 0l328 -328v295q0 15 9 19t20 -7z" />
    <glyph glyph-name="uni2199" unicode="&#x2199;" horiz-adv-x="643" 
d="M581 555q17 -17 0 -34l-327 -328h294q16 0 19.5 -9t-7.5 -20l-79 -79q-12 -13 -29 -13h-383q-24 0 -24 24v384q0 16 12 29l79 79q12 11 21 7t9 -19v-295l328 328q17 17 34 0z" />
    <glyph glyph-name="partialdiff" unicode="&#x2202;" horiz-adv-x="584" 
d="M240 714q58 0 112.5 -26.5t95.5 -72.5t65.5 -115t24.5 -150q0 -174 -78.5 -269t-199.5 -95q-68 0 -118 29t-75 77t-25 108q0 103 61.5 168.5t165.5 65.5q75 0 138 -40q-7 61 -29.5 104.5t-61.5 68.5t-92 25q-45 1 -90 -19q-12 -5 -19 -0.5t-7 17.5v70q0 18 16 26
q50 28 116 28zM264 108q60 0 96 46.5t46 128.5q-50 37 -120 37q-50 0 -82.5 -30.5t-32.5 -85.5q0 -44 25.5 -70t67.5 -26z" />
    <glyph glyph-name="emptyset" unicode="&#x2205;" horiz-adv-x="804" 
d="M660 604q49 -50 76.5 -115.5t27.5 -138.5q0 -150 -106 -256t-256 -106q-104 0 -192 55l-40 -51q-10 -12 -26 -12h-60q-12 0 -16 7.5t4 17.5l72 91q-49 50 -76.5 115.5t-27.5 138.5q0 98 48.5 181.5t132 132t181.5 48.5q104 0 192 -55l40 51q10 12 26 12h60q12 0 16 -8
t-4 -17zM130 350q0 -107 70 -185l338 423q-62 36 -136 36q-114 0 -193 -80t-79 -194zM402 76q114 0 193 80t79 194q0 107 -70 185l-338 -423q62 -36 136 -36z" />
    <glyph glyph-name="product" unicode="&#x220f;" horiz-adv-x="640" 
d="M89 -200q-24 0 -24 24v852q0 24 24 24h462q24 0 24 -24v-852q0 -24 -24 -24h-81q-24 0 -24 24v752h-252v-752q0 -24 -24 -24h-81z" />
    <glyph glyph-name="summation" unicode="&#x2211;" horiz-adv-x="563" 
d="M59 -200q-24 0 -24 24v70q0 15 9 29l204 337l-190 316q-8 15 -8 29v71q0 24 24 24h412q24 0 24 -24v-76q0 -24 -24 -24h-284l181 -300q10 -16 0 -32l-195 -320h313q24 0 24 -24v-76q0 -24 -24 -24h-442z" />
    <glyph glyph-name="minus" unicode="&#x2212;" horiz-adv-x="555" 
d="M76 290q-24 0 -24 23v74q0 23 24 23h403q23 0 23 -23v-74q0 -23 -23 -23h-403z" />
    <glyph glyph-name="radical" unicode="&#x221a;" horiz-adv-x="676" 
d="M288 0q-19 0 -29 16l-113 182h-77q-24 0 -24 24v77q0 23 24 23h133q19 0 28 -16l90 -156l212 631q8 19 28 19h82q13 0 18 -7.5t1 -20.5l-261 -753q-7 -19 -26 -19h-86z" />
    <glyph glyph-name="infinity" unicode="&#x221e;" horiz-adv-x="808" 
d="M575 525q78 0 129.5 -48.5t51.5 -126.5q0 -39 -13.5 -72t-38 -55.5t-58 -35t-71.5 -12.5q-86 0 -171 87q-86 -87 -172 -87q-78 0 -129.5 48.5t-51.5 126.5t51.5 126.5t129.5 48.5q86 0 172 -87q85 87 171 87zM239 291q43 0 89 59q-46 59 -89 59q-26 0 -42.5 -17
t-16.5 -42t16.5 -42t42.5 -17zM569 291q26 0 42.5 17t16.5 42t-16.5 42t-42.5 17q-44 0 -89 -59q45 -59 89 -59z" />
    <glyph glyph-name="integral" unicode="&#x222b;" horiz-adv-x="441" 
d="M21 -208q-21 4 -21 26v80q0 23 25 19q20 -3 36.5 3t28.5 21.5t16 39.5l96 561q17 100 75 140t143 25q21 -4 21 -27v-80q0 -22 -25 -19q-32 5 -55 -11t-29 -52l-96 -562q-17 -99 -74.5 -139.5t-140.5 -24.5z" />
    <glyph glyph-name="approxequal" unicode="&#x2248;" horiz-adv-x="569" 
d="M110 383l-43 15q-22 8 -15 30q57 168 228 91q29 -14 49 -20.5t36 -7t27 6.5t18 22q11 22 30 12l64 -30q21 -10 14 -32q-25 -82 -86.5 -106t-142.5 15q-42 20 -71 26t-45.5 1.5t-31.5 -18.5q-16 -11 -31 -5zM128 168l-64 30q-20 9 -14 31q26 82 87.5 106.5t142.5 -14.5
q42 -20 71 -26t45 -1.5t31 18.5q16 11 31 5l43 -15q23 -8 16 -30q-58 -168 -228 -91q-29 14 -49 20.5t-36.5 7t-27 -6.5t-18.5 -22q-10 -22 -30 -12z" />
    <glyph glyph-name="notequal" unicode="&#x2260;" horiz-adv-x="525" 
d="M456 393h-134l-39 -86h173q24 0 24 -24v-73q0 -24 -24 -24h-227l-53 -117q-5 -14 -22 -14h-40q-10 0 -14 5.5t0 15.5l49 110h-80q-24 0 -24 24v73q0 24 24 24h134l39 86h-173q-24 0 -24 24v73q0 24 24 24h227l52 117q6 14 23 14h40q10 0 14 -5.5t0 -15.5l-49 -110h80
q24 0 24 -24v-73q0 -24 -24 -24z" />
    <glyph glyph-name="lessequal" unicode="&#x2264;" horiz-adv-x="528" 
d="M455 216l-391 149q-19 8 -19 27v74q0 19 19 27l391 149q12 5 19.5 -0.5t7.5 -18.5v-84q0 -21 -19 -27l-270 -83l270 -83q19 -6 19 -27v-84q0 -9 -3.5 -14.5t-9.5 -6.5t-14 2zM459 55h-390q-24 0 -24 24v73q0 24 24 24h390q23 0 23 -24v-73q0 -24 -23 -24z" />
    <glyph glyph-name="greaterequal" unicode="&#x2265;" horiz-adv-x="528" 
d="M72 216q-8 -3 -14 -2t-9.5 6.5t-3.5 14.5v84q0 21 20 27l269 83l-269 83q-20 6 -20 27v84q0 13 7.5 18.5t19.5 0.5l392 -149q18 -8 18 -27v-74q0 -19 -18 -27zM69 55q-24 0 -24 24v73q0 24 24 24h390q23 0 23 -24v-73q0 -24 -23 -24h-390z" />
    <glyph glyph-name="lozenge" unicode="&#x25ca;" horiz-adv-x="555" 
d="M248 0q-20 0 -28 17l-169 317q-8 16 0 32l169 317q8 17 28 17h60q19 0 27 -17l169 -317q8 -16 0 -32l-169 -317q-8 -17 -27 -17h-60zM278 170l95 180l-95 180l-96 -180z" />
    <glyph glyph-name="i.loclTRK" horiz-adv-x="247" 
d="M75 558q-19 0 -19 19v96q0 19 19 19h96q20 0 20 -19v-96q0 -19 -20 -19h-96zM82 0q-23 0 -23 24v452q0 24 23 24h82q24 0 24 -24v-452q0 -24 -24 -24h-82z" />
    <glyph glyph-name="a.ss01" horiz-adv-x="626" 
d="M544 500q24 0 24 -24v-452q0 -24 -24 -24h-82q-24 0 -24 24v35q-57 -73 -162 -73q-101 0 -172.5 76.5t-71.5 187.5t71.5 187.5t172.5 76.5q105 0 162 -73v35q0 24 24 24h82zM300 109q60 0 99 39.5t39 101.5t-39 101.5t-99 39.5t-99 -39.5t-39 -101.5t39 -101.5t99 -39.5z
" />
    <glyph glyph-name="aacute.ss01" horiz-adv-x="626" 
d="M259 562q-13 0 -17.5 8t2.5 20l54 94q9 16 28 16h100q14 0 18.5 -9t-4.5 -20l-78 -95q-10 -14 -28 -14h-75zM544 500q24 0 24 -24v-452q0 -24 -24 -24h-82q-24 0 -24 24v35q-57 -73 -162 -73q-101 0 -172.5 76.5t-71.5 187.5t71.5 187.5t172.5 76.5q105 0 162 -73v35
q0 24 24 24h82zM300 109q60 0 99 39.5t39 101.5t-39 101.5t-99 39.5t-99 -39.5t-39 -101.5t39 -101.5t99 -39.5z" />
    <glyph glyph-name="abreve.ss01" horiz-adv-x="626" 
d="M308 547q-74 0 -116.5 32.5t-49.5 92.5q-1 20 20 20h76q16 0 21 -19q8 -33 48.5 -33t48.5 33q5 19 21 19h77q20 0 19 -18q-6 -61 -48.5 -94t-116.5 -33zM544 500q24 0 24 -24v-452q0 -24 -24 -24h-82q-24 0 -24 24v35q-57 -73 -162 -73q-101 0 -172.5 76.5t-71.5 187.5
t71.5 187.5t172.5 76.5q105 0 162 -73v35q0 24 24 24h82zM300 109q60 0 99 39.5t39 101.5t-39 101.5t-99 39.5t-99 -39.5t-39 -101.5t39 -101.5t99 -39.5z" />
    <glyph glyph-name="acircumflex.ss01" horiz-adv-x="626" 
d="M162 555q-12 0 -15.5 7t3.5 16l80 110q9 12 23 12h76h25q15 0 24 -12l80 -110q7 -9 3 -16t-15 -7h-83q-16 0 -23 13l-36 52l-36 -52q-8 -13 -24 -13h-82zM544 500q24 0 24 -24v-452q0 -24 -24 -24h-82q-24 0 -24 24v35q-57 -73 -162 -73q-101 0 -172.5 76.5t-71.5 187.5
t71.5 187.5t172.5 76.5q105 0 162 -73v35q0 24 24 24h82zM300 109q60 0 99 39.5t39 101.5t-39 101.5t-99 39.5t-99 -39.5t-39 -101.5t39 -101.5t99 -39.5z" />
    <glyph glyph-name="adieresis.ss01" horiz-adv-x="626" 
d="M176 561q-20 0 -20 20v78q0 20 20 20h78q20 0 20 -20v-78q0 -20 -20 -20h-78zM361 561q-20 0 -20 20v78q0 20 20 20h78q20 0 20 -20v-78q0 -20 -20 -20h-78zM544 500q24 0 24 -24v-452q0 -24 -24 -24h-82q-24 0 -24 24v35q-57 -73 -162 -73q-101 0 -172.5 76.5
t-71.5 187.5t71.5 187.5t172.5 76.5q105 0 162 -73v35q0 24 24 24h82zM300 109q60 0 99 39.5t39 101.5t-39 101.5t-99 39.5t-99 -39.5t-39 -101.5t39 -101.5t99 -39.5z" />
    <glyph glyph-name="agrave.ss01" horiz-adv-x="626" 
d="M252 574l-83 102q-8 10 -4.5 17t16.5 7h109q16 0 23 -14l58 -100q6 -10 2 -17t-15 -7h-82q-16 0 -24 12zM544 500q24 0 24 -24v-452q0 -24 -24 -24h-82q-24 0 -24 24v35q-57 -73 -162 -73q-101 0 -172.5 76.5t-71.5 187.5t71.5 187.5t172.5 76.5q105 0 162 -73v35
q0 24 24 24h82zM300 109q60 0 99 39.5t39 101.5t-39 101.5t-99 39.5t-99 -39.5t-39 -101.5t39 -101.5t99 -39.5z" />
    <glyph glyph-name="amacron.ss01" horiz-adv-x="626" 
d="M182 564q-20 0 -20 20v65q0 20 20 20h251q19 0 19 -20v-65q0 -20 -19 -20h-251zM544 500q24 0 24 -24v-452q0 -24 -24 -24h-82q-24 0 -24 24v35q-57 -73 -162 -73q-101 0 -172.5 76.5t-71.5 187.5t71.5 187.5t172.5 76.5q105 0 162 -73v35q0 24 24 24h82zM300 109
q60 0 99 39.5t39 101.5t-39 101.5t-99 39.5t-99 -39.5t-39 -101.5t39 -101.5t99 -39.5z" />
    <glyph glyph-name="aogonek.ss01" horiz-adv-x="626" 
d="M568 476v-452v-2q0 -5 -1.5 -10t-4.5 -9.5t-5.5 -7.5t-6 -7t-4.5 -6q-37 -45 -37 -77q-1 -28 30 -27q23 2 23 -16v-44q0 -17 -13 -21q-31 -11 -68 -11q-43 0 -69.5 23t-26.5 65q0 54 66 128q-13 5 -13 22v35q-57 -73 -162 -73q-101 0 -172.5 76.5t-71.5 187.5t71.5 187.5
t172.5 76.5q105 0 162 -73v35q0 24 24 24h82q24 0 24 -24zM300 109q60 0 99.5 39.5t39.5 101.5t-39.5 101.5t-99.5 39.5t-99 -39.5t-39 -101.5t39 -101.5t99 -39.5z" />
    <glyph glyph-name="aring.ss01" horiz-adv-x="626" 
d="M308 539q-56 0 -91.5 33.5t-35.5 85t35.5 85t91.5 33.5q37 0 66 -15.5t44.5 -42.5t15.5 -60q0 -52 -35 -85.5t-91 -33.5zM308 695q-13 0 -22 -5t-13.5 -13.5t-4.5 -18.5q0 -17 10.5 -27.5t29.5 -10.5q12 0 21.5 5t14 13.5t4.5 19.5q0 8 -3 14.5t-7.5 11.5t-12.5 8t-17 3z
M544 500q24 0 24 -24v-452q0 -24 -24 -24h-82q-24 0 -24 24v35q-57 -73 -162 -73q-101 0 -172.5 76.5t-71.5 187.5t71.5 187.5t172.5 76.5q105 0 162 -73v35q0 24 24 24h82zM300 109q60 0 99 39.5t39 101.5t-39 101.5t-99 39.5t-99 -39.5t-39 -101.5t39 -101.5t99 -39.5z
" />
    <glyph glyph-name="atilde.ss01" horiz-adv-x="626" 
d="M157 560q-20 0 -19 20q4 67 32.5 99.5t67.5 31t82 -29.5q25 -17 36.5 -17t14.5 21q3 20 20 20h66q20 0 19 -21q-3 -50 -20 -81.5t-43 -41t-56.5 -4t-61.5 26.5q-26 17 -37.5 17t-14.5 -21q-3 -20 -20 -20h-66zM544 500q24 0 24 -24v-452q0 -24 -24 -24h-82q-24 0 -24 24
v35q-57 -73 -162 -73q-101 0 -172.5 76.5t-71.5 187.5t71.5 187.5t172.5 76.5q105 0 162 -73v35q0 24 24 24h82zM300 109q60 0 99 39.5t39 101.5t-39 101.5t-99 39.5t-99 -39.5t-39 -101.5t39 -101.5t99 -39.5z" />
    <glyph glyph-name="ae.ss01" horiz-adv-x="983" 
d="M724 514q108 0 169.5 -75t61.5 -189q0 -18 -2 -32q-3 -21 -25 -21h-104h-250q13 -52 49.5 -78t86.5 -26q57 0 91 37q14 13 29 13l81 1q13 0 18.5 -7.5t1.5 -18.5q-54 -132 -202 -132q-107 0 -169 75v-38q0 -23 -23 -23h-75q-24 0 -24 23v36q-57 -73 -162 -73
q-101 0 -172.5 76.5t-71.5 187.5t71.5 187.5t172.5 76.5q105 0 162 -73v36q0 23 24 23h75q23 0 23 -23v-39q62 76 164 76zM574 298h252q-7 34 -26 57.5t-43 33t-53 9.5q-51 0 -85 -26.5t-45 -73.5zM300 109q39 0 71 17.5t50 50t18 73.5q0 62 -39.5 101.5t-99.5 39.5
t-99 -39.5t-39 -101.5t39 -101.5t99 -39.5z" />
    <glyph glyph-name="y.ss01" 
d="M450 500q24 0 24 -24v-494q0 -97 -58.5 -146.5t-148.5 -49.5q-80 0 -136.5 38t-65.5 106q-2 12 4.5 18.5t18.5 6.5h80q15 0 27 -20q13 -37 71 -37q79 0 79 84v69q-43 -65 -137 -65q-71 0 -116.5 52.5t-45.5 141.5v296q0 24 24 24h81q24 0 24 -24v-286q0 -28 10.5 -47
t28 -28t40.5 -9q41 0 65.5 25.5t24.5 78.5v266q0 24 24 24h82z" />
    <glyph glyph-name="yacute.ss01" 
d="M212 562q-14 0 -18.5 8t2.5 20l54 94q10 16 28 16h100q15 0 19 -9t-5 -20l-77 -95q-11 -14 -29 -14h-74zM450 500q24 0 24 -24v-494q0 -97 -58.5 -146.5t-148.5 -49.5q-80 0 -136.5 38t-65.5 106q-2 12 4.5 18.5t18.5 6.5h80q15 0 27 -20q13 -37 71 -37q79 0 79 84v69
q-43 -65 -137 -65q-71 0 -116.5 52.5t-45.5 141.5v296q0 24 24 24h81q24 0 24 -24v-286q0 -28 10.5 -47t28 -28t40.5 -9q41 0 65.5 25.5t24.5 78.5v266q0 24 24 24h82z" />
    <glyph glyph-name="ycircumflex.ss01" 
d="M114 555q-12 0 -15.5 7t3.5 16l80 110q9 12 23 12h76h26q14 0 23 -12l80 -110q7 -9 3.5 -16t-15.5 -7h-83q-15 0 -23 13l-36 52l-36 -52q-8 -13 -23 -13h-83zM450 500q24 0 24 -24v-494q0 -97 -58.5 -146.5t-148.5 -49.5q-80 0 -136.5 38t-65.5 106q-2 12 4.5 18.5
t18.5 6.5h80q15 0 27 -20q13 -37 71 -37q79 0 79 84v69q-43 -65 -137 -65q-71 0 -116.5 52.5t-45.5 141.5v296q0 24 24 24h81q24 0 24 -24v-286q0 -28 10.5 -47t28 -28t40.5 -9q41 0 65.5 25.5t24.5 78.5v266q0 24 24 24h82z" />
    <glyph glyph-name="ydieresis.ss01" 
d="M128 561q-20 0 -20 20v78q0 20 20 20h78q20 0 20 -20v-78q0 -20 -20 -20h-78zM313 561q-19 0 -19 20v78q0 20 19 20h79q19 0 19 -20v-78q0 -20 -19 -20h-79zM450 500q24 0 24 -24v-494q0 -97 -58.5 -146.5t-148.5 -49.5q-80 0 -136.5 38t-65.5 106q-2 12 4.5 18.5
t18.5 6.5h80q15 0 27 -20q13 -37 71 -37q79 0 79 84v69q-43 -65 -137 -65q-71 0 -116.5 52.5t-45.5 141.5v296q0 24 24 24h81q24 0 24 -24v-286q0 -28 10.5 -47t28 -28t40.5 -9q41 0 65.5 25.5t24.5 78.5v266q0 24 24 24h82z" />
    <glyph glyph-name="ygrave.ss01" 
d="M204 574l-83 102q-8 10 -4 17t16 7h109q16 0 23 -14l59 -100q5 -10 1.5 -17t-15.5 -7h-82q-16 0 -24 12zM450 500q24 0 24 -24v-494q0 -97 -58.5 -146.5t-148.5 -49.5q-80 0 -136.5 38t-65.5 106q-2 12 4.5 18.5t18.5 6.5h80q15 0 27 -20q13 -37 71 -37q79 0 79 84v69
q-43 -65 -137 -65q-71 0 -116.5 52.5t-45.5 141.5v296q0 24 24 24h81q24 0 24 -24v-286q0 -28 10.5 -47t28 -28t40.5 -9q41 0 65.5 25.5t24.5 78.5v266q0 24 24 24h82z" />
    <glyph glyph-name="f_f_j" horiz-adv-x="818" 
d="M735 500q24 0 24 -24v-486q0 -104 -47.5 -154.5t-146.5 -49.5q-23 0 -23 24v76q0 23 24 25q22 1 36 10t21 26t7 43v386h-147v-352q0 -24 -24 -24h-81q-24 0 -24 24v352h-72h-76v-352q0 -24 -24 -24h-82q-24 0 -24 24v352h-47q-24 0 -24 24v76q0 24 24 24h47v5
q0 100 53.5 155t158.5 54q23 0 23 -24v-77q0 -21 -25 -23q-80 -3 -80 -85v-5h105h43v15q0 209 235 209q48 0 97 -10q20 -3 20 -26v-72q0 -11 -6.5 -17t-17.5 -5q-51 6 -93 6q-54 0 -80 -18.5t-26 -66.5v-15h203h49z" />
    <glyph glyph-name="f_j" horiz-adv-x="540" 
d="M458 500q24 0 24 -24v-486q0 -104 -48 -154.5t-146 -49.5q-24 0 -24 24v76q0 23 24 25q33 2 48.5 21t15.5 58v386h-146v-352q0 -24 -24 -24h-82q-24 0 -24 24v352h-47q-24 0 -24 24v76q0 24 24 24h47v5q0 209 235 209q48 0 97 -10q21 -3 21 -26v-72q0 -11 -6.5 -17
t-18.5 -5q-50 6 -93 6q-53 0 -79 -18.5t-26 -66.5v-5h203h49z" />
    <glyph glyph-name="uni0414.loclBGR" horiz-adv-x="730" 
d="M689 129q23 0 23 -24v-105v-120q0 -24 -23 -24h-90q-24 0 -24 24v120h-374h-46v-120q0 -24 -24 -24h-90q-23 0 -23 24v156v69q0 24 23 24h55l178 551q5 20 26 20h130q21 0 26 -20l178 -551h55zM240 129h250l-125 415z" />
    <glyph glyph-name="uni041B.loclBGR" horiz-adv-x="632" 
d="M251 700h130q20 0 27 -20l213 -653q3 -12 -2 -19.5t-18 -7.5h-101q-21 0 -26 20l-158 520l-158 -520q-5 -20 -26 -20h-101q-13 0 -18 7.5t-2 19.5l213 653q7 20 27 20z" />
    <glyph glyph-name="uni0424.loclBGR" horiz-adv-x="859" 
d="M826 350q0 -99 -40.5 -176t-115.5 -124t-176 -58v-68q0 -24 -23 -24h-83q-24 0 -24 24v68q-152 18 -242 113.5t-90 244.5t90 244.5t242 113.5v68q0 24 24 24h83q23 0 23 -24v-68q153 -18 242.5 -113.5t89.5 -244.5zM170 350q0 -98 49 -157.5t145 -74.5v464
q-96 -15 -145 -74.5t-49 -157.5zM494 118q97 15 146 74.5t49 157.5q0 65 -21.5 113t-65 78.5t-108.5 40.5v-464z" />
    <glyph glyph-name="uni0414.ss01" horiz-adv-x="683" 
d="M631 129q24 0 24 -24v-81q0 -24 -24 -24h-189h-403q-24 0 -24 24v81q0 24 24 24h42q60 79 60 239v308q0 24 24 24h391q24 0 24 -24v-547h51zM229 129h213v442h-164v-205q0 -154 -49 -237z" />
    <glyph glyph-name="uni0426.ss01" horiz-adv-x="675" 
d="M572 132h52q24 0 24 -24v-84q0 -24 -24 -24h-535q-24 0 -24 24v652q0 24 24 24h90q23 0 23 -24v-544h233v544q0 24 24 24h90q23 0 23 -24v-544z" />
    <glyph glyph-name="uni0429.ss01" horiz-adv-x="940" 
d="M838 132h51q23 0 23 -24v-84q0 -24 -23 -24h-800q-24 0 -24 24v652q0 24 24 24h90q23 0 23 -24v-544h180v544q0 24 24 24h90q24 0 24 -24v-544h180v544q0 24 24 24h90q24 0 24 -24v-544z" />
    <glyph glyph-name="uni0414.loclBGR.ss01" horiz-adv-x="730" 
d="M689 129q23 0 23 -24v-81q0 -24 -23 -24h-160h-475h-13q-23 0 -23 24v81q0 24 23 24h55l178 551q5 20 26 20h130q21 0 26 -20l178 -551h55zM240 129h250l-125 415z" />
    <glyph glyph-name="uni0432.loclBGR" horiz-adv-x="566" 
d="M419 409q55 -23 85 -73t30 -123q0 -107 -63 -167t-175 -60q-108 0 -172.5 66t-64.5 176v238q0 112 62 179.5t165 67.5q87 0 141 -47t54 -127q0 -66 -62 -130zM286 592q-45 0 -71.5 -34t-26.5 -92v-57l47 9q32 7 61 9q59 47 59 97q0 31 -18.5 49.5t-50.5 18.5zM296 110
q52 0 80.5 27.5t28.5 75.5q0 59 -46 82t-124 7l-47 -10v-64q0 -54 29.5 -86t78.5 -32z" />
    <glyph glyph-name="uni0433.loclBGR" horiz-adv-x="455" 
d="M299 138q5 11 10.5 16t15.5 5h80q25 0 23 -25q-9 -72 -64 -110t-135 -38q-90 0 -147 39.5t-57 116.5q0 46 20 77.5t49.5 45t64.5 24.5t64.5 16t49 18t19.5 32q0 45 -64 45q-23 0 -41 -10t-24 -28q-5 -12 -10 -17t-15 -5h-80q-26 0 -23 25q8 72 62.5 110.5t130.5 38.5
q81 0 137 -41.5t56 -117.5q0 -45 -19.5 -76t-49.5 -45t-64.5 -24.5t-64.5 -16t-49.5 -18.5t-19.5 -33q0 -42 74 -42q59 0 71 38z" />
    <glyph glyph-name="uni0434.loclBGR" horiz-adv-x="626" 
d="M544 500q24 0 24 -24v-452q0 -40 -10.5 -74.5t-28.5 -60t-42.5 -45.5t-53 -32.5t-59 -19t-62.5 -6.5q-95 0 -166.5 47t-81.5 129q-2 24 23 24h83q18 0 25 -21q9 -27 39.5 -45t77.5 -18q61 0 95.5 31.5t34.5 90.5v53q-58 -75 -166 -75q-100 0 -172 75t-72 180.5t72 181
t172 75.5q108 0 166 -76v38q0 24 23 24h79zM301.5 121q60.5 0 100.5 38.5t40 98t-40 98t-100 38.5q-41 0 -72.5 -17.5t-49.5 -48.5t-18 -70q0 -60 39.5 -98.5t100 -38.5z" />
    <glyph glyph-name="uni0436.loclBGR" horiz-adv-x="746" 
d="M713 29q9 -12 4.5 -20.5t-19.5 -8.5h-90q-18 0 -29 16l-143 207v-199q0 -24 -24 -24h-78q-24 0 -24 24v199l-143 -207q-11 -16 -29 -16h-90q-15 0 -19.5 8.5t4.5 20.5l160 223l-151 219q-8 13 -3.5 21t19.5 8h90q19 0 29 -16l133 -200v392q0 24 24 24h78q24 0 24 -24
v-392l133 200q10 16 29 16h90q15 0 19.5 -8t-3.5 -21l-151 -219z" />
    <glyph glyph-name="uni0438.loclBGR" 
d="M450 500q24 0 24 -24v-452q0 -24 -24 -24h-82q-23 0 -23 24v27q-43 -65 -137 -65q-71 0 -116.5 52.5t-45.5 141.5v296q0 24 24 24h81q24 0 24 -24v-286q0 -28 10.5 -47t28 -28t40.5 -9q41 0 65.5 25.5t24.5 78.5v266q0 24 24 24h82z" />
    <glyph glyph-name="uni0439.loclBGR" 
d="M149 564q-24 0 -24 24v64q0 24 24 24h242q24 0 24 -24v-64q0 -24 -24 -24h-242zM450 500q24 0 24 -24v-452q0 -24 -24 -24h-82q-23 0 -23 24v27q-43 -65 -137 -65q-71 0 -116.5 52.5t-45.5 141.5v296q0 24 24 24h81q24 0 24 -24v-286q0 -28 10.5 -47t28 -28t40.5 -9
q41 0 65.5 25.5t24.5 78.5v266q0 24 24 24h82z" />
    <glyph glyph-name="uni043A.loclBGR" horiz-adv-x="517" 
d="M489 29q9 -12 5 -20.5t-18 -8.5h-96q-18 0 -28 14l-164 212v-202q0 -24 -24 -24h-82q-23 0 -23 24v652q0 24 23 24h82q24 0 24 -24v-396l154 206q10 14 28 14h96q15 0 19 -8.5t-5 -20.5l-168 -219z" />
    <glyph glyph-name="uni043B.loclBGR" horiz-adv-x="500" 
d="M488 28q3 -9 1.5 -15t-7 -9.5t-13.5 -3.5h-88q-21 0 -27 20l-104 321l-104 -321q-6 -20 -27 -20h-87q-13 0 -18.5 7.5t-1.5 20.5l165 453q7 19 27 19h69h23q20 0 27 -19z" />
    <glyph glyph-name="uni043F.loclBGR" 
d="M324 514q71 0 116.5 -52.5t45.5 -141.5v-296q0 -24 -24 -24h-81q-24 0 -24 24v286q0 41 -21.5 62.5t-57.5 21.5q-41 0 -65.5 -25.5t-24.5 -78.5v-266q0 -24 -24 -24h-82q-23 0 -23 24v452q0 24 23 24h82q24 0 24 -24v-27q43 65 136 65z" />
    <glyph glyph-name="uni0442.loclBGR" horiz-adv-x="767" 
d="M566 514q72 0 113.5 -46t41.5 -131v-313q0 -24 -24 -24h-81q-24 0 -24 24v303q0 35 -17.5 51t-46.5 16q-14 0 -26 -4t-23.5 -13.5t-18 -26.5t-6.5 -40v-286q0 -24 -23 -24h-82q-24 0 -24 24v303q0 24 -9 39.5t-22.5 21.5t-31.5 6q-20 0 -35.5 -7t-27 -27t-11.5 -50v-286
q0 -24 -24 -24h-82q-23 0 -23 24v452q0 24 23 24h82q24 0 24 -24v-25q41 63 120 63q81 0 120 -66q52 66 138 66z" />
    <glyph glyph-name="uni0446.loclBGR" horiz-adv-x="571" 
d="M525 121q24 0 24 -24v-97v-120q0 -24 -24 -24h-78q-24 0 -24 24v130q-36 13 -56 43q-50 -67 -147 -67q-51 0 -90 23t-61.5 67.5t-22.5 103.5v296q0 24 24 24h81q24 0 24 -24v-286q0 -28 10.5 -47t28 -28t40.5 -9q41 0 65.5 25.5t24.5 78.5v266q0 24 24 24h82q24 0 24 -24
v-324q0 -14 8 -22.5t23 -8.5h20z" />
    <glyph glyph-name="uni0448.loclBGR" horiz-adv-x="767" 
d="M685 500q24 0 24 -24v-452q0 -24 -24 -24h-82q-23 0 -23 24v25q-42 -63 -120 -63q-82 0 -121 66q-52 -66 -137 -66q-72 0 -114 46t-42 131v313q0 24 24 24h81q24 0 24 -24v-303q0 -35 17.5 -51t46.5 -16q31 0 52.5 20t21.5 64v286q0 24 23 24h82q24 0 24 -24v-303
q0 -18 5 -31.5t14 -21t20 -11t25 -3.5q30 0 52 20t22 64v286q0 24 23 24h82z" />
    <glyph glyph-name="uni0449.loclBGR" horiz-adv-x="806" 
d="M760 121q24 0 24 -24v-97v-120q0 -24 -24 -24h-79q-23 0 -23 24v130q-36 13 -56 44q-50 -68 -142 -68q-82 0 -121 66q-52 -66 -137 -66q-72 0 -114 46t-42 131v313q0 24 24 24h81q24 0 24 -24v-303q0 -35 17.5 -51t46.5 -16q31 0 52.5 20t21.5 64v286q0 24 23 24h82
q24 0 24 -24v-303q0 -18 5 -31.5t14 -21t20 -11t25 -3.5q30 0 52 20t22 64v286q0 24 23 24h82q23 0 23 -24v-324q0 -14 8.5 -22.5t23.5 -8.5h20z" />
    <glyph glyph-name="uni044C.loclBGR" horiz-adv-x="489" 
d="M264 360q98 0 150 -47.5t52 -134.5q0 -82 -58.5 -137t-151.5 -55q-98 0 -154 54.5t-56 145.5v290q0 24 24 24h78q24 0 24 -24v-116h92zM256 108q36 0 60 22t24 50q0 30 -20 48.5t-56 18.5h-92v-61q0 -34 23 -56t61 -22z" />
    <glyph glyph-name="uni044A.loclBGR" horiz-adv-x="579" 
d="M354 360q98 0 150 -47.5t52 -134.5q0 -82 -58.5 -137t-151.5 -55q-98 0 -154 54.5t-56 145.5v193h-112q-24 0 -24 24v73q0 24 24 24h156h58q24 0 24 -24v-116h92zM346 108q36 0 60 22t24 50q0 15 -5 27t-14.5 21t-24 14t-32.5 5h-92v-61q0 -34 23 -56t61 -22z" />
    <glyph glyph-name="uni044E.loclBGR" horiz-adv-x="811" 
d="M514 514q111 0 188 -76.5t77 -187.5t-77 -187.5t-188 -76.5q-94 0 -164 57t-90 147h-72v-166q0 -24 -24 -24h-82q-23 0 -23 24v652q0 24 23 24h82q24 0 24 -24v-366h72q20 90 90 147t164 57zM514 112q58 0 97 39t39 99t-39 99t-97 39t-96.5 -39t-38.5 -99t38.5 -99
t96.5 -39z" />
    <glyph glyph-name="uni0430.ss01" horiz-adv-x="626" 
d="M544 500q24 0 24 -24v-452q0 -24 -24 -24h-82q-24 0 -24 24v35q-57 -73 -162 -73q-101 0 -172.5 76.5t-71.5 187.5t71.5 187.5t172.5 76.5q105 0 162 -73v35q0 24 24 24h82zM300 109q60 0 99 39.5t39 101.5t-39 101.5t-99 39.5t-99 -39.5t-39 -101.5t39 -101.5t99 -39.5z
" />
    <glyph glyph-name="uni0443.ss01" 
d="M450 500q24 0 24 -24v-494q0 -97 -58.5 -146.5t-148.5 -49.5q-80 0 -136.5 38t-65.5 106q-2 12 4.5 18.5t18.5 6.5h80q15 0 27 -20q13 -37 71 -37q79 0 79 84v69q-43 -65 -137 -65q-71 0 -116.5 52.5t-45.5 141.5v296q0 24 24 24h81q24 0 24 -24v-286q0 -28 10.5 -47
t28 -28t40.5 -9q41 0 65.5 25.5t24.5 78.5v266q0 24 24 24h82z" />
    <glyph glyph-name="zero.sinf" horiz-adv-x="409" 
d="M204.5 -174q-83.5 0 -133 58t-49.5 156t49.5 156t133 58t132.5 -58t49 -156t-49 -156t-132.5 -58zM204 -67q34 0 53 27.5t19 79.5t-19 79.5t-53 27.5q-22 0 -38 -12.5t-25 -36.5t-9 -58q0 -52 19 -79.5t53 -27.5z" />
    <glyph glyph-name="one.sinf" horiz-adv-x="267" 
d="M98 233q13 7 28 7h70q22 0 22 -23v-354q0 -23 -22 -23h-62q-22 0 -22 23v269l-72 -38q-12 -7 -20 -2t-8 18v58q0 18 17 27z" />
    <glyph glyph-name="two.sinf" horiz-adv-x="356" 
d="M53 -160q-23 0 -23 23v31q0 16 12 28l139 137q34 34 34 62q0 16 -10 25.5t-28 9.5q-31 0 -39 -23q-6 -12 -10.5 -16.5t-13.5 -4.5h-64q-11 0 -17.5 6.5t-4.5 17.5q7 57 48.5 87.5t100.5 30.5q42 0 74.5 -14.5t52 -44.5t19.5 -72q0 -58 -68 -124l-65 -61h116q24 0 24 -24
v-51q0 -23 -24 -23h-253z" />
    <glyph glyph-name="three.sinf" horiz-adv-x="348" 
d="M235 75q42 -13 65.5 -42.5t23.5 -71.5q0 -65 -41.5 -100t-113.5 -35q-65 0 -105.5 29t-47.5 82q-2 11 4 17.5t18 6.5h64q6 0 10.5 -3t6.5 -6t7 -10q10 -22 43 -22q47 0 47 41q0 19 -12.5 29t-34.5 10h-37q-23 0 -23 24v22q0 17 10 28l57 68h-123q-23 0 -23 24v51
q0 23 23 23h229q23 0 23 -23v-40q0 -16 -10 -29z" />
    <glyph glyph-name="four.sinf" horiz-adv-x="357" 
d="M318 2q23 0 23 -24v-50q0 -24 -23 -24h-18v-41q0 -23 -23 -23h-56q-23 0 -23 23v41h-164q-23 0 -23 24v59q0 14 7 28l114 209q8 16 26 16h66q13 0 17.5 -7.5t-1.5 -20.5l-110 -210h68v46q0 23 23 23h56q23 0 23 -23v-46h18z" />
    <glyph glyph-name="five.sinf" horiz-adv-x="334" 
d="M169 89q43 0 74.5 -13.5t50 -44t18.5 -74.5q0 -42 -19.5 -72t-52 -44.5t-75.5 -14.5q-59 0 -98.5 28t-47.5 82q-2 11 4.5 17t17.5 6h55q7 0 11.5 -2.5t6.5 -5.5t7 -11q11 -22 44 -22q23 0 35.5 11.5t12.5 29.5q0 19 -13 31t-35 12h-109q-24 0 -22 24l12 192q2 22 24 22
h199q23 0 23 -23v-51q0 -23 -23 -23h-126l-4 -54h30z" />
    <glyph glyph-name="six.sinf" horiz-adv-x="340" 
d="M185 110q63 -4 101 -43.5t38 -97.5q0 -63 -42.5 -102.5t-111.5 -39.5t-111.5 39.5t-42.5 102.5q0 40 19 73l115 182q11 16 28 16h59q14 0 18.5 -8t-3.5 -20zM170 -83q25 0 39.5 13.5t14.5 38t-14.5 38t-39.5 13.5t-39.5 -13.5t-14.5 -38t14.5 -38t39.5 -13.5z" />
    <glyph glyph-name="seven.sinf" horiz-adv-x="295" 
d="M2 217q0 23 24 23h230q23 0 23 -23v-45q0 -14 -5 -28l-114 -286q-7 -18 -26 -18h-64q-12 0 -17.5 7.5t-0.5 19.5l111 275h-137q-24 0 -24 24v51z" />
    <glyph glyph-name="eight.sinf" horiz-adv-x="349" 
d="M270 50q58 -34 58 -101q0 -56 -40.5 -89.5t-112.5 -33.5t-113 33.5t-41 89.5q0 32 15 58t44 43q-45 31 -45 83q0 56 39.5 88t100.5 32t100 -32t39 -88q0 -52 -44 -83zM175 163q-23 0 -35.5 -10t-12.5 -29q0 -18 12.5 -28t35.5 -10q21 0 34 10t13 28q0 19 -13 29t-34 10z
M175 -82q12 0 22 3t16.5 9t10 14.5t3.5 19.5q0 20 -14 32t-38 12q-25 0 -39 -11.5t-14 -32.5t14 -33.5t39 -12.5z" />
    <glyph glyph-name="nine.sinf" horiz-adv-x="340" 
d="M324 111q0 -40 -19 -73l-115 -183q-10 -15 -28 -15h-58q-14 0 -19 8t3 20l67 102q-41 3 -73 21.5t-49 50t-17 69.5q0 63 42.5 103t111.5 40q46 0 81 -18.5t54 -51t19 -73.5zM116 111q0 -16 6.5 -27.5t19 -17.5t28.5 -6q25 0 40 13.5t15 38t-15 38t-40 13.5t-39.5 -13.5
t-14.5 -38.5z" />
    <glyph glyph-name="zero.tf" horiz-adv-x="578" 
d="M288.5 -14q-131.5 0 -205.5 99.5t-74 264.5t74 264.5t205.5 99.5t206 -99.5t74.5 -264.5t-74.5 -264.5t-206 -99.5zM289 120q70 0 106 59t36 171t-36 171t-106 59t-106.5 -59t-36.5 -171q0 -74 16 -125t48 -78t79 -27z" />
    <glyph glyph-name="one.tf" horiz-adv-x="578" 
d="M52 0q-23 0 -23 24v84q0 24 23 24h187v430l-141 -79q-12 -7 -20.5 -2t-8.5 18v84q0 19 16 28l140 81q13 8 30 8h97q24 0 24 -24v-544h159q24 0 24 -24v-84q0 -24 -24 -24h-483z" />
    <glyph glyph-name="two.tf" horiz-adv-x="578" 
d="M61 0q-23 0 -23 24v62q0 15 13 28l242 220q47 42 73 76.5t26 69.5q0 45 -28 72.5t-76 27.5q-44 0 -74 -21t-36 -59q-5 -23 -26 -23h-90q-25 0 -24 25q5 51 28.5 92.5t58.5 67t76 39t84 13.5q46 0 89 -15.5t78 -43.5t56.5 -73.5t21.5 -101.5q0 -105 -144 -232l-132 -116
h264q23 0 23 -23v-85q0 -24 -23 -24h-457z" />
    <glyph glyph-name="three.tf" horiz-adv-x="578" 
d="M382 424q77 -21 123 -73.5t46 -130.5q0 -109 -76.5 -171.5t-189.5 -62.5q-107 0 -181.5 55.5t-83.5 153.5q-2 25 23 25h91q20 0 25 -22q7 -37 39.5 -57.5t86.5 -20.5q62 0 95.5 26.5t33.5 73.5q0 30 -14.5 52t-43.5 34t-71 12h-51q-24 0 -24 24v50q0 16 12 30l124 149
h-276q-24 0 -24 24v81q0 24 24 24h425q24 0 24 -24v-73q0 -17 -11 -29z" />
    <glyph glyph-name="four.tf" horiz-adv-x="578" 
d="M538 246q23 0 23 -23v-80q0 -24 -23 -24h-52v-95q0 -24 -24 -24h-91q-24 0 -24 24v95h-315q-23 0 -23 24v88q0 15 7 30l216 422q9 17 28 17h98q13 0 18 -8t-2 -20l-217 -426h190v138q0 24 24 24h91q24 0 24 -24v-138h52z" />
    <glyph glyph-name="five.tf" horiz-adv-x="578" 
d="M296 445q111 0 182 -60t71 -169t-74 -169.5t-186 -60.5q-105 0 -177.5 54t-81.5 151q-2 25 23 25h91q20 0 25 -22q7 -35 37.5 -54.5t82.5 -19.5q60 0 91 26t31 70t-31 69.5t-91 25.5h-203q-25 0 -24 25l25 341q2 23 25 23h380q24 0 24 -24v-81q0 -24 -24 -24h-275
l-9 -126h88z" />
    <glyph glyph-name="six.tf" horiz-adv-x="578" 
d="M291 480q80 -1 140.5 -32t92.5 -86.5t32 -128.5q0 -111 -73 -179t-197 -68t-197 68t-73 179q0 87 46 149l218 303q11 15 29 15h105q14 0 18.5 -8t-3.5 -20zM286 116q61 0 97 31t36 86t-36 86t-97 31q-40 0 -70 -13.5t-46 -40t-16 -63.5q0 -55 35.5 -86t96.5 -31z" />
    <glyph glyph-name="seven.tf" horiz-adv-x="578" 
d="M25 676q0 24 24 24h472q24 0 24 -24v-78q0 -16 -7 -29l-249 -551q-8 -18 -29 -18h-95q-13 0 -18 7.5t0 20.5l244 540h-342q-24 0 -24 24v84z" />
    <glyph glyph-name="eight.tf" horiz-adv-x="578" 
d="M456 364q50 -28 76.5 -72t26.5 -97q0 -96 -72 -152.5t-198 -56.5t-198.5 56.5t-72.5 152.5q0 53 27 97t76 72q-79 52 -79 145q0 97 70 151t176.5 54t176.5 -54t70 -151q0 -93 -79 -145zM289 584q-51 0 -80 -22t-29 -60t29 -60.5t79.5 -22.5t80 22.5t29.5 60.5t-29 60
t-80 22zM289 116q64 0 98.5 25t34.5 71.5t-34.5 71.5t-98.5 25q-43 0 -73 -11.5t-45 -33t-15 -52.5q0 -46 34.5 -71t98.5 -25z" />
    <glyph glyph-name="nine.tf" horiz-adv-x="578" 
d="M561 467q0 -87 -46 -149l-218 -303q-11 -15 -28 -15h-105q-14 0 -19 8t4 20l138 192q-122 1 -194 69t-72 178q0 73 33 128.5t94.5 87t142.5 31.5q124 0 197 -68t73 -179zM159 467q0 -28 9 -50t26.5 -37t42 -22.5t54.5 -7.5q41 0 70.5 13.5t46 40t16.5 63.5q0 55 -35.5 86
t-97.5 31q-61 0 -96.5 -31t-35.5 -86z" />
    <glyph glyph-name="zero.dnom" horiz-adv-x="409" 
d="M204.5 -14q-83.5 0 -133 58t-49.5 156t49.5 156t133 58t132.5 -58t49 -156t-49 -156t-132.5 -58zM204 93q34 0 53 27.5t19 79.5t-19 79.5t-53 27.5q-22 0 -38 -12.5t-25 -36.5t-9 -58q0 -52 19 -79.5t53 -27.5z" />
    <glyph glyph-name="one.dnom" horiz-adv-x="267" 
d="M98 393q13 7 28 7h70q22 0 22 -23v-354q0 -23 -22 -23h-62q-22 0 -22 23v269l-72 -38q-12 -7 -20 -2t-8 18v58q0 18 17 27z" />
    <glyph glyph-name="two.dnom" horiz-adv-x="356" 
d="M53 0q-23 0 -23 23v31q0 16 12 28l139 137q34 34 34 62q0 16 -10 25.5t-28 9.5q-31 0 -39 -23q-6 -12 -10.5 -16.5t-13.5 -4.5h-64q-11 0 -17.5 6.5t-4.5 17.5q7 57 48.5 87.5t100.5 30.5q42 0 74.5 -14.5t52 -44.5t19.5 -72q0 -58 -68 -124l-65 -61h116q24 0 24 -24v-51
q0 -23 -24 -23h-253z" />
    <glyph glyph-name="three.dnom" horiz-adv-x="348" 
d="M235 235q42 -13 65.5 -42.5t23.5 -71.5q0 -65 -41.5 -100t-113.5 -35q-65 0 -105.5 29t-47.5 82q-2 7 0.5 12.5t8 8.5t13.5 3h64q6 0 10.5 -3t6.5 -6t7 -10q10 -22 43 -22q47 0 47 41q0 19 -12.5 29t-34.5 10h-37q-23 0 -23 24v22q0 17 10 28l57 68h-123q-23 0 -23 24v51
q0 23 23 23h229q23 0 23 -23v-40q0 -16 -10 -29z" />
    <glyph glyph-name="four.dnom" horiz-adv-x="357" 
d="M318 162q23 0 23 -24v-50q0 -24 -23 -24h-18v-41q0 -23 -23 -23h-56q-23 0 -23 23v41h-164q-23 0 -23 24v59q0 14 7 28l114 209q8 16 26 16h66q13 0 17.5 -7.5t-1.5 -20.5l-110 -210h68v46q0 23 23 23h56q23 0 23 -23v-46h18z" />
    <glyph glyph-name="five.dnom" horiz-adv-x="334" 
d="M168 249q43 0 74 -13.5t49.5 -44t18.5 -74.5q0 -63 -40.5 -97t-105.5 -34q-60 0 -99.5 28t-46.5 82q-2 11 4.5 17t17.5 6h55q5 0 8.5 -1t6.5 -4.5t4.5 -5.5t5.5 -8q10 -22 44 -22q15 0 26 5.5t16.5 14.5t5.5 21q0 19 -13 31t-35 12h-110q-23 0 -22 24l13 192q2 22 24 22
h199q23 0 23 -23v-51q0 -23 -23 -23h-126l-4 -54h30z" />
    <glyph glyph-name="six.dnom" horiz-adv-x="340" 
d="M185 270q63 -4 101 -43.5t38 -97.5q0 -63 -42.5 -102.5t-111.5 -39.5t-111.5 39.5t-42.5 102.5q0 40 19 73l115 182q11 16 28 16h59q14 0 18.5 -8t-3.5 -20zM170 77q25 0 39.5 13.5t14.5 38t-14.5 38t-39.5 13.5q-16 0 -28.5 -6t-19 -17.5t-6.5 -27.5q0 -25 14.5 -38.5
t39.5 -13.5z" />
    <glyph glyph-name="seven.dnom" horiz-adv-x="295" 
d="M2 377q0 23 24 23h230q23 0 23 -23v-45q0 -14 -5 -28l-114 -286q-7 -18 -26 -18h-64q-12 0 -17.5 7.5t-0.5 19.5l111 275h-137q-24 0 -24 24v51z" />
    <glyph glyph-name="eight.dnom" horiz-adv-x="349" 
d="M270 210q58 -34 58 -101q0 -56 -40.5 -89.5t-112.5 -33.5t-113 33.5t-41 89.5q0 67 59 101q-45 31 -45 83q0 37 18.5 64.5t50 41.5t71.5 14q61 0 100 -32t39 -88q0 -52 -44 -83zM175 323q-23 0 -35.5 -10t-12.5 -29q0 -9 3 -16t9.5 -12t15.5 -7.5t20 -2.5q21 0 34 10
t13 28q0 19 -13 29t-34 10zM175 78q12 0 22 3t16.5 9t10 14.5t3.5 19.5q0 13 -6 23.5t-18 15.5t-28 5q-25 0 -39 -11.5t-14 -32.5t14 -33.5t39 -12.5z" />
    <glyph glyph-name="nine.dnom" horiz-adv-x="340" 
d="M324 271q0 -40 -19 -73l-115 -183q-10 -15 -28 -15h-58q-14 0 -19 8t3 20l67 102q-41 3 -73 21.5t-49 50t-17 69.5q0 63 42.5 103t111.5 40q46 0 81 -18.5t54 -51t19 -73.5zM116 271.5q0 -24.5 14.5 -38t39.5 -13.5t40 13.5t15 38t-15 38t-40 13.5t-39.5 -13.5t-14.5 -38
z" />
    <glyph glyph-name="zero.numr" horiz-adv-x="409" 
d="M204.5 286q-83.5 0 -133 58t-49.5 156t49.5 156t133 58t132.5 -58t49 -156t-49 -156t-132.5 -58zM204 393q23 0 39 12.5t24.5 36.5t8.5 58q0 52 -19 79.5t-53 27.5q-22 0 -38 -12.5t-25 -36.5t-9 -58q0 -52 19 -79.5t53 -27.5z" />
    <glyph glyph-name="one.numr" horiz-adv-x="267" 
d="M98 693q13 7 28 7h70q22 0 22 -23v-354q0 -23 -22 -23h-62q-22 0 -22 23v269l-72 -38q-12 -7 -20 -2t-8 18v58q0 18 17 27z" />
    <glyph glyph-name="two.numr" horiz-adv-x="356" 
d="M53 300q-23 0 -23 23v31q0 16 12 28l139 137q34 34 34 62q0 16 -10 25.5t-28 9.5q-31 0 -39 -23q-6 -12 -10.5 -16.5t-13.5 -4.5h-64q-11 0 -17.5 6.5t-4.5 17.5q7 57 48.5 87.5t100.5 30.5q42 0 74.5 -14.5t52 -44.5t19.5 -72q0 -58 -68 -124l-65 -61h116q24 0 24 -24
v-51q0 -23 -24 -23h-253z" />
    <glyph glyph-name="three.numr" horiz-adv-x="348" 
d="M235 535q42 -13 65.5 -42.5t23.5 -71.5q0 -65 -41.5 -100t-113.5 -35q-43 0 -76 13t-52.5 37.5t-24.5 60.5q-2 11 4 17.5t18 6.5h64q6 0 10.5 -3t6.5 -6t7 -10q10 -22 43 -22q47 0 47 41q0 9 -3 16.5t-9 12.5t-15 7.5t-20 2.5h-37q-23 0 -23 24v22q0 17 10 28l57 68h-123
q-23 0 -23 24v51q0 23 23 23h229q23 0 23 -23v-40q0 -16 -10 -29z" />
    <glyph glyph-name="four.numr" horiz-adv-x="357" 
d="M318 462q23 0 23 -24v-50q0 -24 -23 -24h-18v-41q0 -23 -23 -23h-56q-23 0 -23 23v41h-164q-23 0 -23 24v59q0 14 7 28l114 209q8 16 26 16h66q13 0 17.5 -7.5t-1.5 -20.5l-110 -210h68v46q0 23 23 23h56q23 0 23 -23v-46h18z" />
    <glyph glyph-name="five.numr" horiz-adv-x="334" 
d="M168 549q43 0 74 -13.5t49.5 -44t18.5 -74.5q0 -63 -40.5 -97t-105.5 -34q-39 0 -69.5 12t-51 37t-25.5 61q-2 11 4.5 17t17.5 6h55q5 0 8.5 -1t6.5 -4.5t4.5 -5.5t5.5 -8q10 -22 44 -22q23 0 35.5 11.5t12.5 29.5q0 13 -6 22.5t-16.5 15t-25.5 5.5h-110q-23 0 -22 24
l13 192q2 22 24 22h199q23 0 23 -23v-51q0 -23 -23 -23h-126l-4 -54h30z" />
    <glyph glyph-name="six.numr" horiz-adv-x="340" 
d="M185 570q63 -4 101 -43.5t38 -97.5q0 -41 -19 -73.5t-54.5 -50.5t-80.5 -18q-69 0 -111.5 39.5t-42.5 102.5q0 40 19 73l115 182q11 16 28 16h59q14 0 18.5 -8t-3.5 -20zM170 377q25 0 39.5 13.5t14.5 38t-14.5 38t-39.5 13.5t-39.5 -13.5t-14.5 -38t14.5 -38t39.5 -13.5
z" />
    <glyph glyph-name="seven.numr" horiz-adv-x="295" 
d="M2 677q0 23 24 23h230q23 0 23 -23v-45q0 -14 -5 -28l-114 -286q-7 -18 -26 -18h-64q-12 0 -17.5 7.5t-0.5 19.5l111 275h-137q-24 0 -24 24v51z" />
    <glyph glyph-name="eight.numr" horiz-adv-x="349" 
d="M270 510q58 -34 58 -101q0 -56 -40.5 -89.5t-112.5 -33.5t-113 33.5t-41 89.5q0 67 59 101q-45 31 -45 83q0 56 39.5 88t100.5 32t100 -32t39 -88q0 -52 -44 -83zM175 623q-23 0 -35.5 -10t-12.5 -29q0 -18 12.5 -28t35.5 -10q21 0 34 10t13 28q0 19 -13 29t-34 10z
M175 378q16 0 28 5.5t18 16t6 24.5q0 20 -14 32t-38 12q-25 0 -39 -11.5t-14 -32.5t14 -33.5t39 -12.5z" />
    <glyph glyph-name="nine.numr" horiz-adv-x="340" 
d="M324 571q0 -40 -19 -73l-115 -183q-10 -15 -28 -15h-58q-14 0 -19 8t3 20l67 102q-41 3 -73 21.5t-49 50t-17 69.5q0 63 42.5 103t111.5 40q46 0 81 -18.5t54 -51t19 -73.5zM116 571.5q0 -24.5 14.5 -38t39.5 -13.5t40 13.5t15 38t-15 38t-40 13.5t-39.5 -13.5t-14.5 -38
z" />
    <glyph glyph-name="zero.sups" horiz-adv-x="409" 
d="M204.5 446q-83.5 0 -133 58t-49.5 156q0 65 22.5 113.5t63.5 74.5t96 26q84 0 133 -58t49 -156t-49 -156t-132.5 -58zM204 553q34 0 53 27.5t19 79.5t-19 79.5t-53 27.5q-22 0 -38 -12.5t-25 -36.5t-9 -58q0 -52 19 -79.5t53 -27.5z" />
    <glyph glyph-name="one.sups" horiz-adv-x="267" 
d="M98 853q13 7 28 7h70q22 0 22 -23v-354q0 -23 -22 -23h-62q-22 0 -22 23v269l-72 -38q-12 -7 -20 -2t-8 18v58q0 18 17 27z" />
    <glyph glyph-name="two.sups" horiz-adv-x="356" 
d="M53 460q-23 0 -23 23v31q0 16 12 28l139 137q34 34 34 62q0 16 -10 25.5t-28 9.5q-31 0 -39 -23q-6 -12 -10.5 -16.5t-13.5 -4.5h-64q-11 0 -17.5 6.5t-4.5 17.5q7 57 48.5 87.5t100.5 30.5q42 0 74.5 -14.5t52 -44.5t19.5 -72q0 -58 -68 -124l-65 -61h116q24 0 24 -24
v-51q0 -23 -24 -23h-253z" />
    <glyph glyph-name="three.sups" horiz-adv-x="348" 
d="M235 695q42 -13 65.5 -42.5t23.5 -71.5q0 -65 -41.5 -100t-113.5 -35q-65 0 -105.5 29t-47.5 82q-2 11 4 17.5t18 6.5h64q6 0 10.5 -3t6.5 -6t7 -10q10 -22 43 -22q47 0 47 41q0 19 -12.5 29t-34.5 10h-37q-23 0 -23 24v22q0 17 10 28l57 68h-123q-23 0 -23 24v51
q0 23 23 23h229q23 0 23 -23v-40q0 -16 -10 -29z" />
    <glyph glyph-name="four.sups" horiz-adv-x="357" 
d="M318 622q23 0 23 -24v-50q0 -24 -23 -24h-18v-41q0 -23 -23 -23h-56q-23 0 -23 23v41h-164q-23 0 -23 24v59q0 14 7 28l114 209q8 16 26 16h66q13 0 17.5 -7.5t-1.5 -20.5l-110 -210h68v46q0 23 23 23h56q23 0 23 -23v-46h18z" />
    <glyph glyph-name="five.sups" horiz-adv-x="334" 
d="M168 709q43 0 74 -13.5t49.5 -44t18.5 -74.5q0 -63 -40.5 -97t-105.5 -34q-39 0 -69.5 12t-51 37t-25.5 61q-2 11 4.5 17t17.5 6h55q6 0 11 -2.5t7 -5.5t7 -11q10 -22 44 -22q23 0 35.5 11.5t12.5 29.5q0 19 -13 31t-35 12h-110q-23 0 -22 24l13 192q2 22 24 22h199
q23 0 23 -23v-51q0 -23 -23 -23h-126l-4 -54h30z" />
    <glyph glyph-name="six.sups" horiz-adv-x="340" 
d="M185 730q63 -4 101 -43.5t38 -97.5q0 -41 -19 -73.5t-54.5 -50.5t-80.5 -18q-69 0 -111.5 39.5t-42.5 102.5q0 40 19 73l115 182q11 16 28 16h59q14 0 18.5 -8t-3.5 -20zM170 537q25 0 39.5 13.5t14.5 38.5q0 12 -3.5 21.5t-11 16t-17.5 10t-22 3.5q-25 0 -39.5 -13.5
t-14.5 -38t14.5 -38t39.5 -13.5z" />
    <glyph glyph-name="seven.sups" horiz-adv-x="295" 
d="M2 837q0 23 24 23h230q23 0 23 -23v-45q0 -14 -5 -28l-114 -286q-7 -18 -26 -18h-64q-8 0 -13 3.5t-6.5 9.5t1.5 14l111 275h-137q-24 0 -24 24v51z" />
    <glyph glyph-name="eight.sups" horiz-adv-x="349" 
d="M270 670q58 -34 58 -101q0 -56 -40.5 -89.5t-112.5 -33.5t-113 33.5t-41 89.5q0 67 59 101q-45 31 -45 83q0 56 39.5 88t100.5 32t100 -32t39 -88q0 -52 -44 -83zM175 783q-23 0 -35.5 -10t-12.5 -29q0 -18 12.5 -28t35.5 -10q21 0 34 10t13 28q0 19 -13 29t-34 10z
M175 538q16 0 28 5.5t18 16t6 24.5q0 20 -14 32t-38 12q-25 0 -39 -11.5t-14 -32.5t14 -33.5t39 -12.5z" />
    <glyph glyph-name="nine.sups" horiz-adv-x="340" 
d="M324 731q0 -40 -19 -73l-115 -183q-10 -15 -28 -15h-58q-14 0 -19 8t3 20l67 102q-41 3 -73 21.5t-49 50t-17 69.5q0 63 42.5 103t111.5 40q46 0 81 -18.5t54 -51t19 -73.5zM116 731.5q0 -24.5 14.5 -38t39.5 -13.5t40 13.5t15 38t-15 38t-40 13.5t-39.5 -13.5t-14.5 -38
z" />
    <glyph glyph-name="cent.tf" horiz-adv-x="578" 
d="M529 282q12 0 18 -7t1 -19q-24 -76 -90.5 -123t-151.5 -47q-35 0 -69 9l-26 -82q-4 -13 -18 -13h-25q-17 0 -13 18l31 95q-66 32 -105.5 95t-39.5 142q0 55 20.5 104t55.5 84t84 55t105 20q21 0 41 -3l24 77q5 13 18 13h25q18 0 13 -18l-27 -85q53 -20 92 -60t56 -93
q5 -12 -1 -19t-18 -7h-90q-17 0 -29 16q-17 28 -50 42l-83 -260q14 -2 29 -2q34 0 61.5 13.5t42.5 37.5q11 17 29 17h90zM170 350q0 -73 56 -112l81 248h-1q-58 0 -97 -38.5t-39 -97.5z" />
    <glyph glyph-name="dollar.tf" horiz-adv-x="578" 
d="M545 194q0 -90 -62.5 -144.5t-158.5 -61.5v-68q0 -20 -20 -20h-27q-20 0 -20 20v68q-95 9 -155.5 60.5t-67.5 142.5q-2 25 23 25h90q21 0 25 -23q11 -59 84 -70v171q-38 12 -62.5 21.5t-56.5 28t-50 39t-31.5 53t-13.5 72.5q0 60 29.5 105.5t77 70t107.5 28.5v68
q0 20 20 20h28q20 0 20 -20v-69q85 -10 141.5 -60.5t63.5 -137.5q2 -25 -23 -25h-88q-20 0 -24 23q-10 52 -70 65v-169q31 -10 46.5 -15.5t43 -17.5t42.5 -22t34.5 -26.5t29.5 -34.5t17.5 -43t7.5 -54zM180 508q0 -27 19.5 -44.5t57.5 -32.5v147q-38 -6 -57.5 -24.5
t-19.5 -45.5zM324 122q41 5 62.5 24.5t21.5 47.5q0 26 -21.5 43.5t-62.5 33.5v-149z" />
    <glyph glyph-name="Euro.tf" horiz-adv-x="578" 
d="M542 249q12 0 18 -7t4 -19q-17 -109 -82.5 -173t-164.5 -64q-105 0 -169.5 72.5t-81.5 198.5h-41q-20 0 -20 20v37q0 20 20 20h35v16v24h-35q-20 0 -20 20v37q0 20 20 20h42q19 123 83 193t167 70q97 0 162 -61.5t83 -168.5q1 -7 -1 -13t-7.5 -9t-13.5 -3h-92
q-20 0 -25 22q-9 47 -37.5 73t-68.5 26q-90 0 -112 -129h158q20 0 20 -20v-37q0 -20 -20 -20h-165q-1 -12 -1 -24v-16h166q20 0 20 -20v-37q0 -20 -20 -20h-160q21 -137 114 -137q27 0 49.5 12.5t38 36.5t21.5 57q4 23 24 23h92z" />
    <glyph glyph-name="florin.tf" horiz-adv-x="578" 
d="M534 709q21 -4 21 -26v-80q0 -25 -26 -20q-79 12 -99 -63l-29 -106h98q23 0 23 -24v-76q0 -24 -23 -24h-132l-90 -331q-27 -99 -88.5 -139.5t-145.5 -25.5q-21 4 -21 27v80q0 25 26 19q80 -12 99 64l84 306h-95q-24 0 -24 24v76q0 24 24 24h129l35 131q27 99 88.5 139
t145.5 25z" />
    <glyph glyph-name="uni20BD.tf" horiz-adv-x="578" 
d="M319 242h-97v-54h174q22 0 22 -21v-45q0 -22 -22 -22h-174v-76q0 -24 -23 -24h-90q-24 0 -24 24v76h-53q-22 0 -22 22v45q0 21 22 21h53v54h-51q-24 0 -24 24v74q0 24 24 24h51v312q0 24 24 24h113h97q49 0 92.5 -18.5t75 -49.5t50 -74t18.5 -90q0 -96 -68 -161t-168 -65
zM222 571v-207h97q42 0 70.5 30t28.5 73.5t-28.5 73.5t-70.5 30h-97z" />
    <glyph glyph-name="sterling.tf" horiz-adv-x="578" 
d="M529 132q23 0 23 -23v-85q0 -24 -23 -24h-498q-23 0 -23 24v85q0 23 23 23h49v124h-36q-24 0 -24 24v73q0 24 24 24h36v116q0 55 19.5 98t51.5 69t71.5 40t81.5 14q43 0 82 -14t71 -40t51.5 -69t19.5 -98v-19q0 -24 -24 -24h-90q-24 0 -24 24v19q0 42 -24 64.5t-62 22.5
q-25 0 -44 -9.5t-30.5 -29.5t-11.5 -48v-116h172q24 0 24 -24v-73q0 -24 -24 -24h-172v-124h311z" />
    <glyph glyph-name="yen.tf" horiz-adv-x="578" 
d="M543 700q14 0 18.5 -8t-1.5 -20l-175 -310h112q22 0 22 -22v-37q0 -21 -22 -21h-140v-46h140q22 0 22 -21v-37q0 -22 -22 -22h-140v-132q0 -24 -23 -24h-90q-24 0 -24 24v132h-140q-21 0 -21 22v37q0 21 21 21h140v46h-140q-21 0 -21 21v37q0 22 21 22h113l-175 310
q-7 12 -2 20t19 8h104q19 0 27 -17l123 -235l122 235q9 17 28 17h104z" />
    <glyph glyph-name="brevecy" horiz-adv-x="360" 
d="M59 564q-24 0 -24 24v64q0 24 24 24h242q24 0 24 -24v-64q0 -24 -24 -24h-242z" />
    </font>
</defs>
</svg>
